<?xml version="1.0" encoding="utf-8"?>
<!-- Generator: Adobe Illustrator 19.2.0, SVG Export Plug-In . SVG Version: 6.00 Build 0)  -->
<svg version="1.1" id="Layer_1" xmlns="http://www.w3.org/2000/svg" xmlns:xlink="http://www.w3.org/1999/xlink" x="0px" y="0px"
	 viewBox="0 0 194.9 47.8" style="enable-background:new 0 0 194.9 47.8;" xml:space="preserve">
<g>
	<g>
		<path style="fill:#656665;" d="M107.5,16.3c0-6.8,5.1-11.4,11.6-11.4c3.9,0,6.5,1.8,8.2,4c0.4,0.5,0.2,1.2-0.4,1.5l-1.5,0.8
			c-0.4,0.2-0.9,0.1-1.2-0.3c-1.2-1.5-3-2.5-5.1-2.5c-4.4,0-7.6,3.4-7.6,8c0,4.6,3.3,8,7.6,8c2.1,0,4-1,5.1-2.5
			c0.3-0.4,0.8-0.5,1.2-0.3l1.5,0.8c0.6,0.3,0.7,1,0.3,1.5c-1.7,2.2-4.3,4-8.2,4C112.5,27.8,107.5,23.1,107.5,16.3z"/>
		<path style="fill:#656665;" d="M146.5,16.3c0-5.3,3-9.5,7.6-10.9c0.2-0.1,0.4-0.1,0.7-0.2c1-0.2,2-0.4,3-0.4
			c6.6,0,11.3,4.8,11.3,11.4s-4.7,11.4-11.3,11.4C151.2,27.8,146.5,22.9,146.5,16.3z M165.2,16.3c0-4.6-2.9-8-7.3-8
			c-4.5,0-7.3,3.4-7.3,8c0,4.5,2.9,8,7.3,8C162.3,24.3,165.2,20.9,165.2,16.3z"/>
		<path style="fill:#656665;" d="M99.1,5.3h-3.5c-0.4,0-0.8,0.3-0.9,0.6L86.7,26c-0.3,0.7,0.2,1.4,0.9,1.4h2.3
			c0.4,0,0.8-0.3,0.9-0.6l1.4-3.6l1.1-3.4l1.1-3l2.8-7.5l4,10.5h-4c-0.4,0-0.8,0.3-1,0.7l-0.7,2.1c-0.1,0.3,0.1,0.7,0.5,0.7h6.2
			l1.4,3.6c0.1,0.4,0.5,0.6,0.9,0.6h2.3c0.7,0,1.2-0.7,0.9-1.4L100,5.9C99.8,5.5,99.5,5.3,99.1,5.3z"/>
		<path style="fill:#656665;" d="M86.6,14.4h-7.3V8.7h10.4c0.4,0,0.8-0.3,0.9-0.6l0.6-1.4c0.3-0.7-0.2-1.4-0.9-1.4H76.4
			c-0.6,0-1,0.4-1,1v20.1c0,0.6,0.4,1,1,1h1.9c0.6,0,1-0.4,1-1v-8.6H86c0.4,0,0.8-0.3,0.9-0.6l0.6-1.4
			C87.8,15.1,87.3,14.4,86.6,14.4z"/>
		<path style="fill:#656665;" d="M129.6,5.3c-0.8,0-1.3,1-0.8,1.6l0.9,1.4c0.2,0.3,0.5,0.4,0.8,0.4h5.6v18.7h3.9V8.7h5.6
			c0.3,0,0.6-0.2,0.8-0.4c0.3-0.5,0.6-0.9,1-1.3c0.6-0.6,0.1-1.7-0.7-1.7L129.6,5.3z"/>
		<g>
			<path style="fill:#656665;" d="M189.1,5.8l-4.5,10.8c-0.1,0.2-0.1,0.5,0,0.8l1.4,3.3c0.2,0.4,0.8,0.4,0.9,0l4.1-9.8v15.4
				c0,0.6,0.4,1,1,1h1.9c0.6,0,1-0.4,1-1V6.2c0-0.6-0.4-1-1-1h-3.8C189.6,5.2,189.3,5.5,189.1,5.8z"/>
			<path style="fill:#656665;" d="M183.9,24.7c0.7,0,1.2-0.7,0.9-1.4l-1.5-3.5l0,0l-5.7-13.9c-0.2-0.4-0.5-0.6-0.9-0.6h-3.8
				c-0.6,0-1,0.4-1,1v20.1c0,0.6,0.4,1,1,1h1.9c0.6,0,1-0.4,1-1V10.9l5.4,13.1c0.2,0.4,0.5,0.6,0.9,0.6H183.9z"/>
		</g>
	</g>
	<g>
		<g>
			<path style="fill:#656665;" d="M23.7,7.7c-0.4,1.4-2.3,3.3-4.8,4.9c0,0-0.1,0.1-0.1,0.1c-0.1,0.3,0.4,1.1,1,0.8
				c2.9-1.9,5.1-4.1,5.5-5.7c0.3-1.3-0.5-1.9-2.2-2c-0.5,0-1.1,0-1.6,0.1l-0.4,0C23,5.8,24.1,6.4,23.7,7.7z"/>
			<path style="fill:#656665;" d="M31,9.6c-0.9,3.4-7.6,8.7-15,11.9c-1.4,0.6-2.7,1.1-3.9,1.4c-0.1,0-0.2,0.1-0.3,0.2
				c-0.3,0.4-0.2,1.4,0.5,1.3c1.3-0.4,2.7-0.9,4.2-1.5c7.8-3.3,15-9,15.9-12.6c0.3-1.2-0.1-2-1.1-2.5c-0.5-0.2-1.1-0.5-1.6-0.7
				C30.8,7.5,31.3,8.4,31,9.6z"/>
			<path style="fill:#656665;" d="M40.2,17.4C40.3,17.4,40.3,17.4,40.2,17.4c0-0.4,0-0.4-0.2-1.1l-0.2-0.4l-0.7-1.1
				c0.2,0.3,0.3,0.7,0.3,1.2C39.5,16.4,40,17.3,40.2,17.4z"/>
			<path style="fill:#656665;" d="M41,20.3c-1,3.6-7.2,9-14.7,12.9c-0.2,0.1-0.3,0.2-0.4,0.5c-0.2,0.5,0.3,1.2,1.1,0.8
				c7.4-3.9,13.5-9.1,14.4-12.7c0.2-0.6,0.2-1.1,0.1-1.5c-0.1-0.5-0.4-1.2-0.5-1.7C41.2,19,41.2,19.6,41,20.3z"/>
			<path style="fill:#656665;" d="M34.7,31.8c-0.1,0.1-0.3,0.3-0.4,0.6c-0.1,0.4,0.2,1,0.8,0.6c3.7-2.7,6.4-5.6,6.9-7.8
				c0.1-0.3,0.1-0.7,0.1-0.9l0-0.6L42,22.5c0,0.4,0,0.7-0.1,1.2C41.3,26,38.5,29,34.7,31.8z"/>
			<path style="fill:#656665;" d="M14.1,13.5c0.9-0.4,1.8-0.8,2.6-1.3c0.2-0.2,0.1-0.4,0-0.5c-0.1-0.1-0.4-0.4-0.6-0.3
				c-0.7,0.4-1.4,0.8-2.1,1.1c-2.3,1-4.1,1.1-4.5,0.5c-0.1-0.2-0.2-0.4-0.1-0.7c0.1-0.3,0.3-0.6,0.6-1c0.4-0.4,0.9-0.9,1.4-1.4
				c1.3-0.9,2.8-1.8,4.3-2.4C16,7.2,16.3,7.1,16.5,7c2.3-0.7,3.8-0.5,3.5,0.6c-0.1,0.4-0.3,0.8-0.7,1.2c0.2,0.2,1.1,0.4,1.4,0.2
				c0.5-0.5,0.8-1.1,0.9-1.5c0.4-1.3-1.2-1.7-3.6-1c-0.3,0.1-0.4,0.1-0.6,0.2c-0.3,0.1-0.3,0.1-0.6,0.2c-0.3,0.1-0.4,0.2-0.6,0.2
				c-0.2,0.1-0.3,0.1-0.6,0.3c-0.2,0.1-0.3,0.1-0.5,0.2c-0.2,0.1-0.3,0.1-0.5,0.2C14.3,8,14.3,8,14.1,8.1c-0.2,0.1-0.2,0.1-0.4,0.2
				c-0.2,0.1-0.3,0.1-0.4,0.2c-0.2,0.1-0.2,0.1-0.4,0.3c-0.2,0.1-0.3,0.2-0.4,0.3c-0.2,0.1-0.2,0.2-0.4,0.3
				c-0.2,0.1-0.3,0.2-0.4,0.3c-0.2,0.1-0.3,0.2-0.4,0.3c-0.2,0.2-0.3,0.2-0.5,0.4c-0.2,0.2-0.3,0.2-0.5,0.4C9.7,11.2,9.3,11.6,9,12
				c-0.3,0.3-0.5,0.6-0.6,0.9c0,0.1-0.1,0.2-0.1,0.3c0,0.1,0,0.1,0,0.2c0,0.3,0,0.5,0.1,0.7C9,14.9,11.3,14.7,14.1,13.5z"/>
			<path style="fill:#656665;" d="M6.2,16.8c0,0,0,0.1,0,0.1c0,0,0,0.1,0,0.1c0,0.1,0.1,0.2,0.1,0.2c0,0,0,0,0,0
				c0.6,0.7,2,0.8,3,0.6c3.5-0.4,3.6-1,3.6-1.4c0,0,0-0.7-0.4-0.7c-2.8,0.9-4.8,0.9-5.4,0.1C7,15.6,6.9,15.2,7,14.7
				c0.1-0.4,0.3-0.6,0.4-0.9c0.1-0.2,0.3-0.4,0.5-0.7l0,0l-0.3,0.3c-0.1,0.2-0.3,0.4-0.5,0.6c-0.2,0.2-0.3,0.5-0.4,0.6
				c-0.1,0.2-0.3,0.5-0.4,0.7c-0.1,0.2-0.1,0.3-0.2,0.5c0,0.1,0,0.2-0.1,0.3C6.1,16.4,6.1,16.6,6.2,16.8C6.2,16.7,6.2,16.8,6.2,16.8
				z"/>
			<path style="fill:#656665;" d="M15.4,19.5c6.7-2.8,12.8-7.6,13.6-10.7c0.3-1.1-0.1-1.9-1.2-2.2c-0.2-0.1-0.4-0.1-0.7-0.2
				c-0.5-0.1-0.5-0.1-0.6-0.1c0.9,0.3,1.3,1,1,2c-0.8,2.8-6.3,7.2-12.4,9.8c-4.8,2-8.5,2.3-9.5,1c-0.3-0.4-0.3-0.8-0.2-1.4
				c0.1-0.2,0.1-0.4,0.2-0.6c-0.2,0.5-0.5,1.2-0.7,1.7c0,0.1-0.1,0.2-0.1,0.3c0,0.1-0.1,0.3-0.1,0.4c-0.1,0.5,0,0.9,0.3,1.2
				C6,22.1,10.1,21.8,15.4,19.5z"/>
			<path style="fill:#656665;" d="M3.9,22.8c0,0.1,0,0.3,0,0.4C3.9,23.1,3.9,22.9,3.9,22.8z"/>
			<path style="fill:#656665;" d="M3.9,27C3.9,27,3.9,27,3.9,27c0,0,0,0.1,0,0.1C3.9,27.1,3.9,27,3.9,27c0,0.1,0,0.2,0.1,0.3
				c0,0,0,0.1,0,0.1c0,0,0,0,0,0.1c0,0,0,0,0,0c0,0.1,0.1,0.1,0.1,0.2c0,0-0.1-0.1-0.1-0.1c0.1,0.1,0.1,0.3,0.2,0.4c0,0,0,0,0,0
				c1.4,1.9,6.7,1.5,13.5-1.4c8.7-3.7,16.6-9.9,17.7-14c0.3-1.1,0-1.9-0.6-2.5L34,9.4L33.4,9c0.3,0.3,1,0.7,0.9,1.8
				C34,17.1,9.6,32.1,4.1,26.3c-0.2-0.3-0.4-0.7-0.4-1.2c0,0.5,0,1.1,0.1,1.6c0,0,0,0,0,0c0,0,0,0.1,0,0.1c0,0,0,0,0,0
				C3.9,26.9,3.9,27,3.9,27z"/>
			<path style="fill:#656665;" d="M4.6,30c0-0.1,0-0.1,0-0.2C4.6,29.8,4.6,29.9,4.6,30C4.6,30,4.6,30,4.6,30z"/>
			<path style="fill:#656665;" d="M19.3,29.9c9.2-3.9,17.6-10.5,18.8-14.8c0.3-1,0.1-1.7-0.3-2.3c-0.3-0.4-0.8-0.9-1.2-1.3
				c0.6,0.6,0.7,1.4,0.5,2.4c-1.1,4.2-9.4,10.7-18.4,14.5c-7.1,3-12.5,3.5-14,1.5c0,0,0,0.1,0,0.1c0,0,0,0,0,0c0,0,0-0.1,0-0.1
				c0,0,0,0,0,0c-0.2-0.2-0.3-0.5-0.3-0.7c0.1,0.5,0.3,1.2,0.5,1.7c0,0,0,0.1,0,0.1c0,0,0,0,0,0.1c0,0,0,0,0,0c0,0,0,0,0,0
				c0,0,0,0,0,0c0,0,0,0,0,0.1c0.1,0.1,0.1,0.2,0.2,0.3c0,0,0,0,0,0C6.4,33.5,12,33,19.3,29.9z"/>
			<path style="fill:#656665;" d="M6.5,34.9c0-0.1-0.1-0.1-0.1-0.2c0,0,0,0,0,0C6.4,34.8,6.4,34.8,6.5,34.9z"/>
			<path style="fill:#656665;" d="M21.1,33.4c5.5-2.4,10.8-5.7,14.4-8.9c0.1-0.2,0.4-0.5,0.2-1c-0.1-0.2-0.4-0.7-1-0.4
				c-3.6,3.2-8.8,6.5-14.4,8.9C12.9,35,7.2,35.5,5.7,33.4C5.9,33.7,6,34,6.1,34.3c0,0.1,0.1,0.2,0.1,0.2c0,0,0,0,0,0
				c0,0.1,0.1,0.1,0.1,0.2c0-0.1-0.1-0.1-0.1-0.2c0,0.1,0.1,0.1,0.1,0.2C7.7,37,13.5,36.6,21.1,33.4z"/>
			<path style="fill:#656665;" d="M14.9,38.9c0.4-0.1,0.3-0.4,0.2-0.6c-0.1-0.1-0.5-0.7-1.1-0.6c-3.1,0.5-5.3,0.2-6.2-0.9
				c0,0,0,0,0-0.1c0,0,0,0,0,0c0.2,0.2,0.4,0.4,0.6,0.7c0.2,0.2,0.4,0.5,0.6,0.7C9.8,39.1,11.9,39.4,14.9,38.9z"/>
			<path style="fill:#656665;" d="M23.6,39.3c0.5-0.2,0.4-0.5,0.4-0.7c0,0-0.3-0.6-1.2-0.3c-6,2.4-10.6,2.8-12.3,1.4
				c0.4,0.3,1,0.7,1.4,1.1C13.6,42,18,41.5,23.6,39.3z"/>
			<path style="fill:#656665;" d="M13.9,42c0.5,0.2,1.1,0.5,1.6,0.8c1.9,0.8,5.9,0.2,10.9-1.9c7.6-3.2,14.5-8.7,15.4-12.2
				c0-0.1,0-0.2,0.1-0.3c0.1-0.4,0.1-1,0.2-1.5l0-0.3C41.1,33.5,20.6,44.8,13.9,42z"/>
			<path style="fill:#656665;" d="M27.3,41.7c-4.2,1.8-7.7,2.4-9.6,1.9c0.5,0.1,1.3,0.3,1.8,0.4c5.2,0.8,18.4-5.7,21.2-11.6
				c0.2-0.5,0.4-1.2,0.6-1.7C40.3,33.9,34.1,38.8,27.3,41.7z"/>
			<path style="fill:#656665;" d="M36.4,38.1c-2.1,1.7-4.8,3.3-7.7,4.5c-2.8,1.2-5.2,1.7-6.8,1.6c0.6,0,1.4,0,2,0
				c1.4-0.1,3.2-0.6,5.4-1.5c2.5-1.1,4.9-2.5,6.8-4c0.3-0.2,0.4-0.5,0.5-0.5c0-0.1,0.1-0.1,0.1-0.2c0,0,0-0.1,0-0.1
				C36.5,38,36.4,38,36.4,38.1z"/>
			<path style="fill:#656665;" d="M3.9,23.2L3.9,23.2C3.9,23.2,3.9,23.2,3.9,23.2c0,0.1,0,0.1,0,0.1c0,0.1,0,0.2,0,0.2
				c0,0,0,0,0,0.1c0,0,0,0,0,0.1c0,0.1,0,0.1,0.1,0.2c0,0,0,0.1,0,0.1c0,0.1,0.1,0.1,0.1,0.2c0,0,0,0,0,0.1c0,0,0,0,0,0
				c0.2,0.2,0.4,0.5,0.7,0.6c0.2,0,0.3-0.3,0.3-0.5c0,0,0.1-0.8-0.1-1.1c-0.3-0.1-0.5-0.3-0.7-0.6c-0.2-0.3-0.3-0.7-0.3-1.2
				c0-0.2,0.1-0.4,0.1-0.5c0,0.1,0,0.1,0,0.2l-0.1,0.7l-0.2,1l0,0v0C3.9,22.9,3.9,23.1,3.9,23.2z"/>
		</g>
		<g>
			<path style="fill:#407BA4;" d="M41.6,36.6c-0.4-0.3-1-0.2-1.3,0.2c-1.8,2.6-4.1,4.7-6.8,6.3c-3.2,1.8-6.7,2.8-10.4,2.8
				c0,0-0.1,0-0.1,0c-6.7,0-13-3.2-16.9-8.5c0,0,0,0-0.1,0c0-0.1-0.1-0.1-0.1-0.1c0,0-0.1-0.1-0.1-0.1c-0.1,0-0.1,0-0.2-0.1
				c-0.1,0-0.1,0-0.2,0c0,0,0,0-0.1,0c0,0-0.1,0-0.1,0c-0.1,0-0.1,0-0.2,0c-0.1,0-0.1,0-0.2,0.1c0,0-0.1,0-0.1,0c0,0,0,0,0,0.1
				c-0.1,0-0.1,0.1-0.1,0.1c0,0-0.1,0.1-0.1,0.1c0,0.1,0,0.1-0.1,0.2c0,0.1,0,0.1,0,0.2c0,0,0,0,0,0.1v3.8c0,0.5,0.4,1,1,1
				s1-0.4,1-1v-1.1c4.3,4.6,10.4,7.2,16.8,7.2c0,0,0.1,0,0.1,0c4,0,7.9-1.1,11.3-3.1c3-1.7,5.5-4,7.4-6.9
				C42.2,37.5,42.1,36.9,41.6,36.6z"/>
			<path style="fill:#D37D41;" d="M22.1,3C22.1,3,22.1,2.9,22.1,3c0-0.1,0-0.1,0-0.2c0-0.1,0-0.1-0.1-0.2c0-0.1,0-0.1-0.1-0.2
				c0,0-0.1-0.1-0.1-0.1c0-0.1-0.1-0.1-0.2-0.1c0,0,0,0-0.1-0.1l-3.5-2c-0.5-0.3-1-0.1-1.3,0.4c-0.3,0.5-0.1,1,0.4,1.3l1.1,0.6
				c-2.4,0.5-4.6,1.4-6.8,2.6C8,7,5.2,9.9,3.2,13.3C-0.8,20-1,28.1,2.4,35.1c0.2,0.3,0.5,0.5,0.9,0.5c0.1,0,0.3,0,0.4-0.1
				c0.5-0.2,0.7-0.8,0.4-1.3c-3.1-6.4-2.9-13.8,0.7-20c1.8-3.1,4.5-5.8,7.6-7.6c2.7-1.6,5.7-2.5,8.8-2.7c0,0,0,0,0,0
				c0.1,0,0.2,0,0.3-0.1c0,0,0,0,0,0c0.1-0.1,0.2-0.1,0.3-0.2c0,0,0,0,0.1-0.1c0,0,0.1-0.1,0.1-0.1c0,0,0-0.1,0-0.1
				c0-0.1,0-0.1,0.1-0.2C22.1,3.1,22.1,3.1,22.1,3z"/>
			<path style="fill:#E9B520;" d="M47.1,31.8c-0.3-0.5-0.9-0.6-1.3-0.4l-0.9,0.5c2-6.1,1.3-12.9-2-18.5C39.1,7,32.4,2.7,25,2
				c-0.5,0-1,0.3-1,0.9c0,0.5,0.3,1,0.9,1c6.8,0.6,12.9,4.5,16.4,10.4c3.4,5.9,3.7,13.2,0.9,19.4c0,0,0,0.1,0,0.1c0,0.1,0,0.1,0,0.2
				c0,0.1,0,0.1,0,0.2c0,0.1,0,0.1,0,0.2c0,0.1,0,0.1,0.1,0.2c0,0,0,0.1,0,0.1c0,0,0.1,0.1,0.1,0.1c0,0,0,0,0,0.1
				c0.1,0.1,0.2,0.1,0.3,0.2c0,0,0,0,0,0c0,0,0.1,0,0.1,0c0,0,0,0,0.1,0c0.1,0,0.2,0,0.2,0c0,0,0,0,0,0c0.1,0,0.2,0,0.2,0
				c0,0,0.1,0,0.1,0c0,0,0.1,0,0.1-0.1l3.3-1.9C47.2,32.8,47.3,32.2,47.1,31.8z"/>
		</g>
	</g>
	<g>
		<path style="fill:#939598;" d="M81.5,33.9h-4.9v3.2h4.8c0.3,0,0.5,0.2,0.5,0.6c0,0.3-0.2,0.5-0.5,0.5h-4.8v4
			c0,0.3-0.3,0.6-0.6,0.6c-0.3,0-0.6-0.3-0.6-0.6v-8.6c0-0.5,0.4-0.9,0.9-0.9h5.2c0.3,0,0.5,0.2,0.5,0.6
			C82,33.6,81.8,33.9,81.5,33.9z"/>
		<path style="fill:#939598;" d="M88.7,42.9c-3,0-5-2.2-5-5.2c0-3,2-5.2,5-5.2c3,0,5,2.2,5,5.2C93.6,40.7,91.6,42.9,88.7,42.9z
			 M88.7,33.7c-2.3,0-3.7,1.7-3.7,4.1c0,2.3,1.4,4.1,3.7,4.1c2.2,0,3.7-1.7,3.7-4.1C92.4,35.4,90.9,33.7,88.7,33.7z"/>
		<path style="fill:#939598;" d="M100.2,42.9c-2.7,0-4.1-1.6-4.1-4.1v-5.6c0-0.3,0.3-0.6,0.6-0.6c0.3,0,0.6,0.3,0.6,0.6v5.6
			c0,1.8,1,3,2.8,3c1.8,0,2.8-1.2,2.8-3v-5.6c0-0.3,0.3-0.6,0.6-0.6c0.3,0,0.6,0.3,0.6,0.6v5.6C104.2,41.4,102.9,42.9,100.2,42.9z"
			/>
		<path style="fill:#939598;" d="M114.6,42.9c-0.2,0-0.5-0.1-0.6-0.3l-5.7-7.8v7.5c0,0.3-0.3,0.6-0.6,0.6c-0.3,0-0.6-0.3-0.6-0.6
			v-8.8c0-0.4,0.3-0.8,0.8-0.8c0.3,0,0.5,0.1,0.7,0.3l5.6,7.6v-7.3c0-0.3,0.3-0.6,0.6-0.6c0.3,0,0.6,0.3,0.6,0.6v8.9
			C115.4,42.5,115.1,42.9,114.6,42.9z"/>
		<path style="fill:#939598;" d="M121.6,42.8h-2.5c-0.5,0-0.9-0.4-0.9-0.9v-8.2c0-0.5,0.4-0.9,0.9-0.9h2.5c3.1,0,5.1,2.2,5.1,5
			C126.7,40.6,124.7,42.8,121.6,42.8z M121.6,33.9h-2.2v7.8h2.2c2.4,0,3.8-1.7,3.8-3.9C125.5,35.6,124.1,33.9,121.6,33.9z"/>
		<path style="fill:#939598;" d="M136.2,42.9c-0.3,0-0.5-0.1-0.6-0.4l-0.8-1.9h-5l-0.8,1.9c-0.1,0.3-0.3,0.4-0.6,0.4
			c-0.4,0-0.7-0.3-0.7-0.7c0-0.1,0-0.2,0-0.2l3.5-8.6c0.2-0.4,0.6-0.7,1-0.7c0.4,0,0.8,0.3,1,0.7l3.5,8.6c0,0.1,0,0.2,0,0.2
			C136.9,42.5,136.6,42.9,136.2,42.9z M132.4,34.1l-2.1,5.4h4.2L132.4,34.1z"/>
		<path style="fill:#939598;" d="M144.4,33.9h-2.7v8.4c0,0.3-0.3,0.6-0.6,0.6c-0.3,0-0.6-0.3-0.6-0.6v-8.4h-2.7
			c-0.3,0-0.5-0.2-0.5-0.6c0-0.3,0.2-0.5,0.5-0.5h6.7c0.3,0,0.5,0.2,0.5,0.6C145,33.6,144.7,33.9,144.4,33.9z"/>
		<path style="fill:#939598;" d="M147.7,42.9c-0.3,0-0.6-0.3-0.6-0.6v-9c0-0.3,0.3-0.6,0.6-0.6c0.3,0,0.6,0.3,0.6,0.6v9
			C148.3,42.6,148,42.9,147.7,42.9z"/>
		<path style="fill:#939598;" d="M155.7,42.9c-3,0-5-2.2-5-5.2c0-3,2-5.2,5-5.2c3,0,5,2.2,5,5.2C160.6,40.7,158.6,42.9,155.7,42.9z
			 M155.7,33.7c-2.3,0-3.7,1.7-3.7,4.1c0,2.3,1.4,4.1,3.7,4.1c2.2,0,3.7-1.7,3.7-4.1C159.4,35.4,157.9,33.7,155.7,33.7z"/>
		<path style="fill:#939598;" d="M170.6,42.9c-0.2,0-0.5-0.1-0.6-0.3l-5.7-7.8v7.5c0,0.3-0.3,0.6-0.6,0.6c-0.3,0-0.6-0.3-0.6-0.6
			v-8.8c0-0.4,0.3-0.8,0.8-0.8c0.3,0,0.5,0.1,0.7,0.3l5.6,7.6v-7.3c0-0.3,0.3-0.6,0.6-0.6c0.3,0,0.6,0.3,0.6,0.6v8.9
			C171.4,42.5,171.1,42.9,170.6,42.9z"/>
	</g>
</g>
</svg>
