<?xml version="1.0" encoding="UTF-8" standalone="no"?>
<svg
   xmlns:dc="http://purl.org/dc/elements/1.1/"
   xmlns:cc="http://creativecommons.org/ns#"
   xmlns:rdf="http://www.w3.org/1999/02/22-rdf-syntax-ns#"
   xmlns:svg="http://www.w3.org/2000/svg"
   xmlns="http://www.w3.org/2000/svg"
   xmlns:sodipodi="http://sodipodi.sourceforge.net/DTD/sodipodi-0.dtd"
   xmlns:inkscape="http://www.inkscape.org/namespaces/inkscape"
   id="Layer_1"
   data-name="Layer 1"
   width="58.127323"
   height="59"
   viewBox="0 0 58.127321 59.000003"
   version="1.1"
   sodipodi:docname="factom-protocol-main-globe-only.svg"
   inkscape:version="0.92.3 (2405546, 2018-03-11)">
  <metadata
     id="metadata81">
    <rdf:RDF>
      <cc:Work
         rdf:about="">
        <dc:format>image/svg+xml</dc:format>
        <dc:type
           rdf:resource="http://purl.org/dc/dcmitype/StillImage" />
        <dc:title>factom-protocol-main</dc:title>
      </cc:Work>
    </rdf:RDF>
  </metadata>
  <sodipodi:namedview
     pagecolor="#ffffff"
     bordercolor="#666666"
     borderopacity="1"
     objecttolerance="10"
     gridtolerance="10"
     guidetolerance="10"
     inkscape:pageopacity="0"
     inkscape:pageshadow="2"
     inkscape:window-width="1447"
     inkscape:window-height="760"
     id="namedview79"
     showgrid="false"
     fit-margin-top="0"
     fit-margin-left="0"
     fit-margin-right="0"
     fit-margin-bottom="0"
     inkscape:zoom="1.623842"
     inkscape:cx="116.67346"
     inkscape:cy="69.452149"
     inkscape:window-x="2116"
     inkscape:window-y="69"
     inkscape:window-maximized="0"
     inkscape:current-layer="g58" />
  <defs
     id="defs4">
    <style
       id="style2">
      .cls-1 {
        fill: #427ca5;
      }

      .cls-2 {
        fill: #d37e41;
      }

      .cls-3 {
        fill: #e9b520;
      }

      .cls-4 {
        isolation: isolate;
      }
    </style>
  </defs>
  <title
     id="title6">factom-protocol-main</title>
  <g
     id="g58"
     transform="translate(-0.02359953,-52.200411)">
    <g
       id="g14"
       transform="matrix(0.53100383,0,0,0.53100383,0.01106809,52.152567)">
      <path
         class="cls-1"
         d="m 397,213 a 2.2,2.2 0 0 0 -3,0.5 50.1,50.1 0 0 1 -15.8,14.6 48.4,48.4 0 0 1 -24.1,6.5 h -0.3 a 48.9,48.9 0 0 1 -39.2,-19.7 h -0.2 a 0.2,0.2 0 0 0 -0.2,-0.2 l -0.3,-0.3 -0.4,-0.2 h -1.4 l -0.5,0.2 h -0.2 v 0.3 a 0.2,0.2 0 0 0 -0.2,0.2 l -0.3,0.2 c 0,0.2 0,0.2 -0.2,0.5 v 9.5 a 2.3,2.3 0 0 0 2.3,2.3 2.2,2.2 0 0 0 2.3,-2.3 v -2.6 a 53.4,53.4 0 0 0 39,16.7 h 0.2 a 52.4,52.4 0 0 0 26.3,-7.1 49.7,49.7 0 0 0 17.1,-16.1 2.2,2.2 0 0 0 -0.9,-3 z"
         transform="translate(-300.5,-128)"
         id="path8"
         inkscape:connector-curvature="0"
         style="fill:#427ca5" />
      <path
         class="cls-2"
         d="m 351.8,135.1 v 0 -0.5 c 0,-0.2 0,-0.2 -0.3,-0.4 -0.3,-0.2 0,-0.3 -0.2,-0.5 l -0.2,-0.2 c 0,-0.3 -0.3,-0.3 -0.5,-0.3 l -0.2,-0.2 -8.2,-4.6 a 2.1,2.1 0 0 0 -3,0.9 c -0.7,1.1 -0.2,2.3 1,3 l 2.5,1.4 a 57.2,57.2 0 0 0 -15.8,6 55.7,55.7 0 0 0 -19,19.3 c -9.3,15.5 -9.7,34.3 -1.8,50.5 a 2.3,2.3 0 0 0 2,1.2 1.8,1.8 0 0 0 1,-0.2 2.1,2.1 0 0 0 0.9,-3 49.2,49.2 0 0 1 1.6,-46.4 50,50 0 0 1 17.7,-17.7 44.6,44.6 0 0 1 20.4,-6.2 v 0 a 0.8,0.8 0 0 0 0.7,-0.3 v 0 l 0.7,-0.4 0.2,-0.3 0.2,-0.2 v -0.2 c 0,-0.3 0,-0.3 0.3,-0.5 z"
         transform="translate(-300.5,-128)"
         id="path10"
         inkscape:connector-curvature="0"
         style="fill:#d37e41" />
      <path
         class="cls-3"
         d="m 409.8,201.9 a 2.3,2.3 0 0 0 -3.1,-0.9 l -2.1,1.1 a 52.2,52.2 0 0 0 -4.6,-42.9 54.5,54.5 0 0 0 -41.5,-26.4 2.1,2.1 0 0 0 -2.3,2.1 2.2,2.2 0 0 0 2.1,2.3 48.8,48.8 0 0 1 40.1,69.1 v 1.6 c 0,0.3 0,0.3 0.2,0.5 v 0.2 l 0.3,0.3 v 0.2 l 0.6,0.4 h 1.7 a 0.2,0.2 0 0 0 0.2,-0.2 l 7.7,-4.4 a 2.7,2.7 0 0 0 0.7,-3 z"
         transform="translate(-300.5,-128)"
         id="path12"
         inkscape:connector-curvature="0"
         style="fill:#e9b520" />
    </g>
    <g
       id="g56"
       style="fill:#ffffff"
       transform="matrix(0.53100383,0,0,0.53100383,0.01106809,52.152567)">
      <g
         class="cls-4"
         id="g18"
         style="isolation:isolate;fill:#ffffff">
        <path
           d="m 344.6,219.8 a 17.8,17.8 0 0 0 -2.4,3.7 17.8,17.8 0 0 1 2.4,-3.7"
           transform="translate(-300.5,-128)"
           id="path16"
           inkscape:connector-curvature="0"
           style="fill:#ffffff" />
      </g>
      <path
         d="m 350.4,142 a 23.6,23.6 0 0 0 3.7,-0.2 c 3.9,0 6,1.6 5.1,4.7 -0.9,3.1 -6,8.5 -12.8,13.2 -1.1,0.7 -2.5,-1.2 -2.3,-1.9 l 0.2,-0.2 c 5.8,-4 10.2,-8.4 11.2,-11.4 1,-3 -1.7,-4.6 -6.1,-4.2 h 1"
         transform="translate(-300.5,-128)"
         id="path20"
         inkscape:connector-curvature="0"
         style="fill:#ffffff" />
      <path
         d="m 373.1,146.2 c 2.3,1.2 3.2,3 2.6,5.8 -2.4,8.4 -18.8,21.6 -36.9,29.2 -3.5,1.4 -6.8,2.6 -9.8,3.5 -3,0.9 -1.8,-2.1 -1.1,-3 0.7,-0.9 0.4,-0.5 0.7,-0.5 2.7,-0.9 5.8,-1.8 9,-3.2 16.9,-7.4 32.5,-19.7 34.8,-27.6 0.7,-2.8 -0.2,-4.9 -2.8,-5.8 a 22.9,22.9 0 0 0 3.5,1.6"
         transform="translate(-300.5,-128)"
         id="path22"
         inkscape:connector-curvature="0"
         style="fill:#ffffff" />
      <path
         d="m 392.8,165 0.5,0.9 a 5.9,5.9 0 0 1 0.4,2.4 v 0.2 a 10.4,10.4 0 0 1 -1.8,-3.5 6.1,6.1 0 0 0 -0.7,-2.8 l 1.6,2.8"
         transform="translate(-300.5,-128)"
         id="path24"
         inkscape:connector-curvature="0"
         style="fill:#ffffff" />
      <path
         d="m 396.8,175 a 6.3,6.3 0 0 1 -0.3,3.5 c -2.3,8.3 -16.4,20.4 -33.4,29.4 -1.8,0.7 -3,-0.7 -2.5,-1.8 a 2.5,2.5 0 0 1 0.9,-1.2 c 17.4,-9 31.8,-21.3 34.1,-29.7 a 5.2,5.2 0 0 0 0,-3.9 22.9,22.9 0 0 1 1.2,3.7"
         transform="translate(-300.5,-128)"
         id="path26"
         inkscape:connector-curvature="0"
         style="fill:#ffffff" />
      <path
         d="m 398.2,183.1 v 1.4 a 5.1,5.1 0 0 1 -0.3,2.1 c -1.4,5.1 -7.4,11.8 -16,18.1 -1.4,0.9 -2.1,-0.5 -1.8,-1.4 a 3.3,3.3 0 0 1 0.9,-1.4 c 8.8,-6.5 15.3,-13.5 16.7,-18.8 a 13.2,13.2 0 0 0 0.2,-2.8 l 0.3,2.8"
         transform="translate(-300.5,-128)"
         id="path28"
         inkscape:connector-curvature="0"
         style="fill:#ffffff" />
      <path
         d="m 335.5,217 c -0.2,-0.3 -1.1,-1.7 -2.5,-1.4 -7.2,1.1 -12.3,0.4 -14.4,-2.1 v -0.2 0 a 7.6,7.6 0 0 1 1.4,1.6 l 1.4,1.6 c 2.1,2.3 7.2,3 13.9,1.9 0.5,-0.3 0.2,-1 0.2,-1.4 z"
         transform="translate(-300.5,-128)"
         id="path30"
         inkscape:connector-curvature="0"
         style="fill:#ffffff" />
      <path
         d="m 356.2,217.9 c 0,0.2 0.2,0.9 -1,1.6 -13,5.1 -23.2,6.3 -27.3,3.3 a 26.9,26.9 0 0 1 -3.3,-2.6 c 4,3.3 14.9,2.3 28.6,-3.2 2.3,-0.5 3,0.9 3,0.9"
         transform="translate(-300.5,-128)"
         id="path32"
         inkscape:connector-curvature="0"
         style="fill:#ffffff" />
      <path
         d="m 398.2,190.5 c -0.3,1 -0.3,2.6 -0.5,3.5 a 1,1 0 0 1 -0.2,0.7 c -2.1,8.1 -18.4,20.9 -35.8,28.3 -11.3,4.9 -20.6,6.3 -25.3,4.4 -1.1,-0.5 -2.5,-1.1 -3.7,-1.8 15.6,6.5 63.1,-19.8 65.5,-35.8 v 0.7"
         transform="translate(-300.5,-128)"
         id="path34"
         inkscape:connector-curvature="0"
         style="fill:#ffffff" />
      <path
         d="m 394.9,203.3 c -6.7,13.7 -37.1,28.8 -49.2,26.9 l -4.1,-0.9 c 4.4,1.1 12.5,-0.3 22.2,-4.4 15.8,-6.8 30.4,-18.1 32.5,-25.6 -0.5,1.2 -0.9,2.8 -1.4,4"
         transform="translate(-300.5,-128)"
         id="path36"
         inkscape:connector-curvature="0"
         style="fill:#ffffff" />
      <path
         d="m 385.2,217 c 0,0.2 -0.5,0.7 -1.2,1.1 a 61.6,61.6 0 0 1 -15.8,9.3 39.2,39.2 0 0 1 -12.5,3.5 h -4.6 c 3.7,0.2 9.2,-1.2 15.7,-3.7 a 78.9,78.9 0 0 0 17.9,-10.5 0.8,0.8 0 0 1 0.5,-0.2 v 0.2 c 0.2,-0.2 0,0 0,0.3"
         transform="translate(-300.5,-128)"
         id="path38"
         inkscape:connector-curvature="0"
         style="fill:#ffffff" />
      <path
         d="m 312.6,181.9 a 3.6,3.6 0 0 1 -1.7,-1.3 5.8,5.8 0 0 1 -0.7,-2.8 6.8,6.8 0 0 1 0.3,-1.2 v 0.5 l -0.3,1.6 -0.4,2.3 v 0 1.6 c 0,0.3 0.2,0.7 0.2,1 v 0.4 c 0,0.3 0.2,0.3 0.2,0.5 v 0 a 3.2,3.2 0 0 0 1.7,1.4 c 0.4,0 0.7,-0.7 0.7,-1.2 a 4.4,4.4 0 0 0 0,-2.8 z"
         transform="translate(-300.5,-128)"
         id="path40"
         inkscape:connector-curvature="0"
         style="fill:#ffffff" />
      <path
         d="m 381.2,151.3 -1.8,-1.4 -1.4,-0.9 c 0.7,0.7 2.3,1.6 2.1,4.2 -0.7,14.6 -57.3,49.4 -70.1,35.9 a 4.6,4.6 0 0 1 -0.9,-2.7 23.6,23.6 0 0 0 0.2,3.7 v 0 0.2 0 0.2 0 0 a 0.8,0.8 0 0 0 0.2,0.7 v 0.5 0 c 0,0.2 0.3,0.2 0.3,0.5 l -0.3,-0.3 c 0.3,0.3 0.3,0.7 0.5,0.9 v 0 c 3.3,4.5 15.5,3.5 31.3,-3.2 20.2,-8.6 38.5,-23 41.1,-32.5 0.9,-2.5 0.4,-4.6 -1.2,-5.8 z"
         transform="translate(-300.5,-128)"
         id="path42"
         inkscape:connector-curvature="0"
         style="fill:#ffffff" />
      <path
         d="m 387.9,157.8 a 24.4,24.4 0 0 0 -2.7,-3 c 1.4,1.4 1.6,3.3 1.1,5.6 -2.5,9.7 -21.8,24.8 -42.7,33.6 -16.4,7 -29.2,8.1 -32.7,3.5 v 0 a 3.1,3.1 0 0 1 -0.7,-1.6 34.3,34.3 0 0 0 1.2,3.9 c 0.2,0.7 0.2,0.9 0.7,1.2 v 0 c 3.5,4.6 16.5,3.4 33.2,-3.5 21.3,-9.1 40.8,-24.4 43.6,-34.3 0.4,-2.1 0.2,-4 -1,-5.4 z"
         transform="translate(-300.5,-128)"
         id="path44"
         inkscape:connector-curvature="0"
         style="fill:#ffffff" />
      <path
         d="m 342.2,143.4 -1.3,0.5 -1.4,0.5 a 6.3,6.3 0 0 1 -1.4,0.4 l -1.4,0.7 -1.2,0.5 a 5.4,5.4 0 0 0 -1.1,0.5 l -1.2,0.4 -0.9,0.5 -1,0.4 -0.9,0.7 -0.9,0.7 c -0.5,0.3 -0.5,0.5 -0.9,0.7 l -1,0.7 -0.9,0.7 -1.2,1 -1.1,0.9 a 10.2,10.2 0 0 0 -3,2.8 5.1,5.1 0 0 0 -1.4,2.1 c 0,0.2 -0.3,0.4 -0.3,0.6 v 0.5 a 2.6,2.6 0 0 0 0.3,1.6 c 1.4,1.9 6.5,1.4 13.2,-1.4 a 37.3,37.3 0 0 0 6,-3 0.6,0.6 0 0 0 0,-1.1 c -0.2,-0.3 -0.9,-1 -1.4,-0.7 -0.5,0.3 -3.2,1.8 -4.8,2.5 -5.4,2.3 -9.5,2.6 -10.5,1.2 a 2.1,2.1 0 0 1 -0.2,-1.6 9,9 0 0 1 1.4,-2.4 l 3.5,-3.2 a 53.6,53.6 0 0 1 9.9,-5.6 3.3,3.3 0 0 1 1.7,-1.1 c 5.3,-1.7 8.8,-1.2 8.1,1.4 a 5.5,5.5 0 0 1 -1.6,2.7 c 0.4,0.5 2.5,1 3.2,0.5 a 7.4,7.4 0 0 0 2.1,-3.5 c 0.7,-2.8 -2.8,-3.7 -8.4,-2.1 z"
         transform="translate(-300.5,-128)"
         id="path46"
         inkscape:connector-curvature="0"
         style="fill:#ffffff" />
      <path
         d="m 329.7,164.5 c -6.5,2.1 -11.1,2.1 -12.5,0.3 a 2.9,2.9 0 0 1 -0.5,-2.6 6.8,6.8 0 0 1 1,-2.1 c 0.2,-0.4 0.7,-0.9 1.1,-1.6 v 0 l -0.7,0.7 c -0.2,0.5 -0.7,0.9 -1.1,1.6 a 9.4,9.4 0 0 0 -1,1.4 c -0.2,0.5 -0.7,1.2 -0.9,1.6 a 6.1,6.1 0 0 1 -0.5,1.2 1,1 0 0 1 -0.2,0.7 v 1.2 0 a 1.4,1.4 0 0 0 0.5,0.9 v 0 c 1.4,1.6 4.6,1.8 6.9,1.4 8.2,-0.9 8.4,-2.3 8.4,-3.3 0,-1 0.4,-1.4 -0.5,-1.4 z"
         transform="translate(-300.5,-128)"
         id="path48"
         inkscape:connector-curvature="0"
         style="fill:#ffffff" />
      <path
         d="m 365,143.2 -1.6,-0.5 -1.4,-0.2 c 2.1,0.7 3,2.3 2.3,4.6 -1.9,6.5 -14.6,16.7 -28.8,22.8 -11.1,4.6 -19.7,5.3 -22,2.3 a 3.8,3.8 0 0 1 -0.5,-3.2 12.1,12.1 0 0 0 0.5,-1.4 c -0.5,1.1 -1.2,2.7 -1.6,3.9 -0.4,1.2 -0.3,0.5 -0.3,0.7 0,0.2 -0.2,0.7 -0.2,0.9 a 3,3 0 0 0 0.7,2.8 c 2.5,3.5 11.8,2.6 24.1,-2.5 15.6,-6.5 29.7,-17.7 31.6,-24.9 0.7,-2.5 -0.5,-4.4 -2.8,-5.3 z"
         transform="translate(-300.5,-128)"
         id="path50"
         inkscape:connector-curvature="0"
         style="fill:#ffffff" />
      <path
         d="m 315.6,209.1 c 0,0 -0.3,-0.2 -0.7,-1.4 v 0 -0.2 a 15.7,15.7 0 0 1 -1.2,-1.9 c 3.5,4.9 16.7,3.7 33.9,-3.5 a 127.4,127.4 0 0 0 33.4,-20.6 1.6,1.6 0 0 1 2.3,0.9 1.8,1.8 0 0 1 -0.5,2.3 c -8.3,7.5 -20.6,15.1 -33.4,20.7 -16,6.7 -28.5,8.1 -32.9,4.4 -0.2,0.2 -0.7,-0.5 -0.9,-0.7"
         transform="translate(-300.5,-128)"
         id="path52"
         inkscape:connector-curvature="0"
         style="fill:#ffffff" />
      <path
         d="M 315.6,209.1"
         transform="translate(-300.5,-128)"
         id="path54"
         inkscape:connector-curvature="0"
         style="fill:#ffffff" />
    </g>
  </g>
</svg>
