<?xml version="1.0" encoding="UTF-8"?>
<svg width="59px" height="59px" viewBox="0 0 59 59" version="1.1" xmlns="http://www.w3.org/2000/svg" xmlns:xlink="http://www.w3.org/1999/xlink">
    <!-- Generator: Sketch 46 (44423) - http://www.bohemiancoding.com/sketch -->
    <title>isologo</title>
    <desc>Created with Sketch.</desc>
    <defs></defs>
    <g id="Page-1" stroke="none" stroke-width="1" fill="none" fill-rule="evenodd">
        <g id="01" transform="translate(-444.000000, -22.000000)">
            <g id="isologo" transform="translate(443.000000, 21.000000)">
                <g id="iso" transform="translate(1.090909, 1.633929)">
                    <path d="M23.4545455,51.1964286 C22.7323882,51.9590944 22.1759719,52.6919167 21.8181818,53.375 C22.1759719,52.6919167 22.7323882,51.9590944 23.4545455,51.1964286" id="Fill-15" fill="#E7B420"></path>
                    <path d="M26.9396045,0.0752084007 C27.6500416,0.043669394 28.5972911,0.00242607744 29.3089426,0 C31.8191537,0.00970430977 33.1307299,0.991052636 32.6170293,2.91493205 C31.986744,5.27793148 28.7575948,8.48399282 24.4221068,11.3564685 C23.6023717,11.7446409 22.7583481,10.6371366 22.9320105,10.1713297 C22.956299,10.1082517 23.0230922,10.0391085 23.0728835,9.99301299 C26.8594526,7.48566195 29.678127,4.68596858 30.2282604,2.62380276 C30.7443899,0.69264511 29.154711,-0.15162984 26.2923173,0.129795143 L26.9396045,0.0752084007" id="Fill-17" fill="#D27C40"></path>
                    <path d="M41.8432307,2.671154 C43.3427082,3.35567363 43.9655103,4.62025297 43.4677689,6.45383158 C41.9770456,11.9471938 30.995468,20.4698932 18.9408698,25.4888845 C16.6522595,26.442542 14.4899605,27.2007981 12.4977439,27.7661105 C11.4109667,27.919728 11.2333805,26.3749503 11.6886014,25.7359015 C11.8324212,25.5318974 11.9937494,25.4630768 12.1225619,25.4065455 C13.998472,24.8744145 16.0344598,24.1604003 18.1880045,23.263274 C29.53601,18.5392284 39.8735251,10.5167075 41.2779565,5.34532762 C41.7844522,3.47488082 41.0540979,2.23365133 39.3782849,1.63392857 C40.1198947,1.93993465 41.1153776,2.33565336 41.8432307,2.671154" id="Fill-19" fill="#E7B420"></path>
                    <path d="M54.9647654,15.4883857 L55.3034845,16.2226004 C55.6305237,17.2470238 55.6305237,17.2470238 55.6363636,17.8662249 C55.6316916,17.9009964 55.6165077,17.9518164 55.5919798,17.9732143 C55.2847966,17.855526 54.5407826,16.2346367 54.4707027,15.5311815 C54.4636948,14.7942921 54.3036792,14.1563678 54,13.6160714 L54.9647654,15.4883857" id="Fill-21" fill="#E7B420"></path>
                    <path d="M57.7069688,22.1412381 C57.8767772,22.7796352 57.8544666,23.5264623 57.6239238,24.3780645 C56.1675377,29.7459605 46.8677378,37.6162755 35.6095635,43.4227649 C34.3527332,43.9393305 33.5830177,43.0061011 33.8829713,42.2105414 C34.0279901,41.8292088 34.2919989,41.6622997 34.5262601,41.5136652 C45.9703561,35.6121473 55.4238512,27.6102542 56.9050268,22.1546396 C57.1739934,21.1629311 57.1640776,20.3137656 56.9037873,19.6071429 C57.1492039,20.3661531 57.499976,21.371263 57.7069688,22.1412381" id="Fill-23" fill="#407BA3"></path>
                    <path d="M58.3085693,26.7272297 L58.3607838,27.6477418 C58.3773975,28.0722203 58.3216229,28.5379339 58.1887132,29.0436698 C57.3354807,32.315793 53.464487,36.5884729 48.0614722,40.6646798 C47.1868792,41.2116507 46.8059506,40.4221206 46.9329268,39.7866156 C47.0361692,39.2723901 47.3625098,38.9801063 47.5013529,38.8551883 C53.0954254,34.6346587 57.1040755,30.2091666 57.988162,26.820615 C58.1590459,26.166918 58.2065136,25.5774992 58.1388721,25.0535714 L58.3085693,26.7272297" id="Fill-25" fill="#D27C40"></path>
                    <path d="M16.7966161,49.9436526 C16.6862043,49.7210126 16.0842816,48.9016974 15.1689319,48.955131 C10.6337357,49.7553628 7.3831161,49.2490158 6.068859,47.4729846 C6.04748896,47.4424511 6.02137003,47.4144621 6,47.3839286 C6.01305947,47.4042842 6.02730615,47.4246399 6.04274007,47.4449955 C6.27899767,47.7732305 6.56868035,48.1459935 6.86073748,48.5162121 C7.15160739,48.8927918 7.44485175,49.2680992 7.7084155,49.578523 C9.09271882,51.1611754 12.2163055,51.5899165 16.5009973,50.8329404 C17.0566182,50.6586451 16.9248363,50.2006428 16.7966161,49.9436526" id="Fill-27" fill="#407BA3"></path>
                    <path d="M30.4952309,50.1738674 C30.5711671,50.3563097 30.6670209,50.8231103 29.9039245,51.2030936 C21.3281153,54.6330086 14.604651,55.336355 11.9070493,53.4125326 C11.2771524,52.9256004 10.4256713,52.290198 9.81818182,51.7743267 C12.434868,53.9938314 19.547972,53.3320063 28.693925,49.6730948 C30.0421035,49.2528485 30.4914963,50.1650599 30.4952309,50.1738674" id="Fill-29" fill="#D27C40"></path>
                    <path d="M58.3300852,32.5169088 C58.2393727,33.2013315 58.1412044,34.1155423 58.0243966,34.7962587 C57.9995438,34.9358611 57.9672353,35.0791699 57.9274709,35.2261848 C56.4934683,40.5730826 45.9273294,48.868928 34.329802,53.7550141 C26.7820274,56.9337498 20.6570716,57.8862586 17.694626,56.6891366 C16.9651983,56.351867 15.9860007,55.9132929 15.2727273,55.5414314 C25.4524062,59.7554491 56.863774,42.6918279 58.3636364,32.1339286 L58.3300852,32.5169088" id="Fill-31" fill="#407BA3"></path>
                    <path d="M56.3310575,40.2651519 C51.9728957,49.3320009 31.9775704,59.4642046 24.0185424,58.1633637 C23.1919518,57.9769895 22.0894186,57.731429 21.2727273,57.5060171 C24.1200101,58.3321078 29.4309784,57.3838665 35.8877893,54.5995883 C46.2758552,50.120313 55.7531865,42.5595684 57.2727273,37.5803571 C57.0004968,38.3888178 56.6713455,39.4831361 56.3310575,40.2651519" id="Fill-33" fill="#E7B420"></path>
                    <path d="M50.0393667,49.4434861 C49.9774313,49.5429994 49.7470316,49.8930942 49.350645,50.2264037 C46.5635518,52.395313 42.8895435,54.5426412 39.0384,56.1216648 C35.7929847,57.4525047 32.9551044,58.162286 30.8567328,58.2653961 C29.9450437,58.2821814 28.729871,58.2821814 27.8181818,58.2534065 C30.253482,58.3804957 33.9089096,57.5783949 38.1911236,55.823125 C42.5550923,54.0330854 46.7183903,51.6004059 49.8758573,49.1425484 C49.9427475,49.0957892 50.0418442,49.047831 50.1186441,49.0178571 C50.1372247,49.0514279 50.1632376,49.0969882 50.1818182,49.1305589 C50.1446569,49.2264753 50.0938699,49.3547635 50.0393667,49.4434861" id="Fill-35" fill="#407BA3"></path>
                    <path d="M1.95379846,26.4318077 C1.49457809,26.2020946 1.1309762,25.908711 0.868025358,25.5541539 C0.498132784,25.0535291 0.343381809,24.424315 0.406288709,23.6777474 C0.455356092,23.4105811 0.484293266,23.1396694 0.540909476,22.875 C0.51952113,22.9586455 0.499390922,23.0397942 0.48177699,23.1209428 L0.271667943,24.180869 L0.0326217212,25.772631 L0.0326217212,25.7738794 C0.00494268503,25.9911081 -0.00512241903,26.1983493 0.00242640901,26.3968514 C0.00620082304,26.4954782 0.0263310312,26.5841175 0.0389124112,26.678999 C0.0452031013,26.7314335 0.0502356533,26.7851164 0.0590426194,26.837551 C0.100561174,27.0622703 0.157177384,27.2782505 0.24776332,27.4767526 C0.264119115,27.5104605 0.288023737,27.5404231 0.305637669,27.574131 C0.328284153,27.6178264 0.354705051,27.6577765 0.379867811,27.7002235 C0.42516078,27.7776268 0.46290492,27.8587755 0.517004854,27.9311851 C0.518262992,27.9149553 0.522037406,27.8987256 0.524553682,27.8824959 C0.80386032,28.2732578 1.16997848,28.6115853 1.67071741,28.8637703 C1.92737756,28.902472 2.06074019,28.4455426 2.1274215,28.0547807 C2.12993778,28.0410478 2.32746545,26.7638929 1.95379846,26.4318077" id="Fill-37" fill="#E7B420"></path>
                    <g id="Group-41" transform="translate(0.000000, 4.901786)" fill="#D27C40">
                        <path d="M47.4142416,1.69775672 L46.2380116,0.82544281 L45.2356699,0.150142977 C45.7536085,0.531780314 46.7199306,1.24177445 46.6354705,2.91701367 C46.1523095,12.5236184 8.8619678,35.4144242 0.5438977,26.5339216 C0.187426725,26.0494404 -0.000124205915,25.4608763 -0.000124205915,24.7719466 C0.00608608981,25.5030051 0.0681890471,26.449664 0.111661117,27.2166559 C0.111661117,27.2253295 0.112903176,27.2352421 0.112903176,27.2451548 C0.116629354,27.3021526 0.120355531,27.3653458 0.12283965,27.4211045 C0.124081709,27.4334953 0.129049945,27.443408 0.131534064,27.4570379 C0.1365023,27.5103184 0.15140701,27.5586426 0.160101424,27.6106841 C0.156375246,27.5920978 0.155133187,27.5722725 0.152649069,27.5536863 C0.162585542,27.6329875 0.187426725,27.7048543 0.202331435,27.7816774 C0.191152903,27.7234406 0.168795838,27.6713991 0.160101424,27.6106841 C0.184942607,27.7804383 0.222204381,27.9427581 0.273128806,28.0976434 C0.291759693,28.1558803 0.304180285,28.2165953 0.326537349,28.2735931 C0.337715882,28.302092 0.347652355,28.3305909 0.360072946,28.3590898 C0.351378532,28.3392644 0.347652355,28.316961 0.338957941,28.2971356 C0.378703834,28.3950231 0.439564732,28.4817589 0.489247097,28.5746901 C0.449501205,28.5003451 0.393608543,28.4359129 0.360072946,28.3590898 C0.445775027,28.5561038 0.546381818,28.7444443 0.67431391,28.9179159 C0.673071851,28.905525 0.673071851,28.8931342 0.671829792,28.8807434 C2.79326681,31.8322373 10.8728616,31.1817191 21.3719875,26.7433265 C34.6570521,21.1278057 46.7584344,11.5943067 48.4016786,5.44845873 C48.850062,3.76950226 48.472476,2.5167901 47.4142416,1.69775672" id="Fill-39"></path>
                    </g>
                    <path d="M51.6370384,10.7302623 C51.1178452,10.1047443 50.3743704,9.31593853 49.8279165,8.71428571 C50.6903472,9.57343087 50.966672,10.8031138 50.5478479,12.3970541 C48.8440516,18.8733003 36.2941981,28.9192695 22.5188503,34.8365689 C11.7149233,39.4764552 3.36570204,40.1986898 1.08695198,37.1728408 C1.07827811,37.1615363 1.06464774,37.1426954 1.05225649,37.1251105 C0.808148952,36.7872303 0.637149763,36.404132 0.545454545,35.9758155 C0.722649357,36.7734137 1.02623487,37.8197118 1.23812517,38.6085176 C1.37442888,39.0895886 1.45868935,39.1863053 1.65199278,39.45259 L1.67057964,39.4764552 C1.67429702,39.4814794 1.67553614,39.4852476 1.68049264,39.4902718 L1.67925352,39.4902718 L1.68792739,39.5015764 C1.68916651,39.5028324 1.69040564,39.5040885 1.69040564,39.5053445 L1.713949,39.536746 C1.71270988,39.5329779 1.71270988,39.5292097 1.71147076,39.5254415 C4.02739456,42.6228859 12.5463759,41.8906028 23.5758236,37.1527439 C37.6274961,31.1173748 50.4288919,20.870436 52.1673837,14.2635595 C52.5601862,12.77136 52.3532523,11.5919195 51.6370384,10.7302623" id="Fill-42" fill="#407BA3"></path>
                    <path d="M22.1219426,1.04956017 C21.6967606,1.16571467 21.5302205,1.2116659 21.1428886,1.33675537 C20.7530334,1.45290987 20.6016333,1.50524322 20.1915913,1.64820261 C19.7613627,1.80009696 19.5254309,1.88689373 19.2327241,2.00177181 C18.9173072,2.12175558 18.6990387,2.21238162 18.2561934,2.3987394 C17.9281599,2.53914594 17.8019931,2.59403213 17.4979313,2.73826794 C17.1951311,2.87484522 17.081581,2.93100783 16.7724725,3.08417861 C16.474719,3.23096727 16.3662156,3.28457704 16.0861254,3.43519496 C15.8072969,3.5807072 15.7025785,3.63942266 15.4174416,3.79897555 C15.1335664,3.95852844 15.028848,4.0172439 14.7626362,4.17934964 C14.4951627,4.33507326 14.387921,4.40272368 14.1141391,4.57631723 C13.8290023,4.75629289 13.7242839,4.82139046 13.4593337,5.00264255 C13.1842902,5.18389463 13.0820951,5.25537432 12.8007433,5.45449633 C12.4979431,5.66893541 12.3869163,5.74807364 12.1080878,5.96251273 C11.8292593,6.16801685 11.7131859,6.25991931 11.4204791,6.49350474 C11.0848755,6.76283002 10.9612321,6.8611146 10.6622169,7.12150491 C10.3632017,7.37296027 10.2282033,7.49422046 9.90647809,7.78779778 C9.25545767,8.38388737 8.69527732,8.97359485 8.25117037,9.53777386 C7.85248344,10.0445138 7.54715992,10.5295546 7.34907812,10.9826848 C7.27337807,11.1562784 7.2140797,11.3260426 7.17118301,11.4881484 C7.14090299,11.6030265 7.11945464,11.7127988 7.1055763,11.8174655 C7.0551096,12.2323031 7.13585632,12.5756609 7.33267645,12.847539 C8.25243203,14.1150271 11.7068776,13.8240027 16.1832738,11.9055387 C17.6026497,11.2966849 18.9904839,10.581888 20.2849547,9.80965199 C20.5738766,9.5620259 20.3707481,9.18420466 20.2710764,9.03486316 C20.1764513,8.89190377 19.707111,8.35070037 19.3008541,8.50004187 C18.2713334,9.11400139 17.1673744,9.68200968 16.0394437,10.165774 C12.4802797,11.6910997 9.73489131,11.9221322 9.00312418,10.9150344 C8.80630405,10.6444327 8.75583736,10.283205 8.8744341,9.83390403 C8.99807751,9.36545674 9.29583103,8.83957042 9.73236798,8.28432637 C10.282455,7.58612293 11.0596422,6.84069183 11.9831828,6.10164285 C13.9274123,4.67332538 16.2766372,3.30627623 18.7267954,2.25578001 C19.1166506,2.08856858 19.4850575,1.95326773 19.8585111,1.81158477 C23.3924417,0.641104771 25.7076015,1.00105609 25.2269062,2.82506472 C25.0792911,3.38286162 24.6843892,4.02362602 24.0863588,4.74352865 C24.343739,5.00774824 25.7202182,5.32302475 26.3232953,5.02817101 C27.0575857,4.17934964 27.553421,3.37392665 27.7388862,2.67189394 C28.2902348,0.578560039 25.9183,0.014381023 22.1219426,1.04956017" id="Fill-44" fill="#407BA3"></path>
                    <path d="M13.6308573,14.7223242 C9.43082729,16.0841011 6.32107057,16.1119915 5.37699303,14.852075 C5.07097315,14.4446333 4.99168055,13.9025903 5.17504469,13.225946 C5.33858568,12.6899661 5.55664033,12.2679729 5.81186339,11.867807 C6.03982962,11.5391858 6.25912323,11.2057142 6.51062945,10.8928571 L6.50319577,10.9025581 L6.10177697,11.4118603 C5.88496126,11.6992522 5.64088872,12.0412122 5.40053302,12.3843848 C5.16265522,12.7178565 4.92849425,13.0525407 4.73521854,13.3435705 C4.55557124,13.6430887 4.32388817,14.0456799 4.17025875,14.3585369 C4.06247037,14.5962113 3.97822198,14.8266099 3.91751358,15.0509453 C3.87415044,15.2073738 3.84441572,15.3577392 3.82583151,15.5008289 C3.81468099,15.8185364 3.8097252,16.0477224 3.85432729,16.2659947 C3.85680518,16.2805462 3.86299992,16.2938851 3.86671676,16.3084366 C3.91131885,16.4963933 3.9893725,16.6807122 4.14671876,16.913536 C4.15415244,16.9220244 4.16282507,16.9353632 4.1714977,16.9438516 C5.14407101,18.0546153 7.17470499,18.0691668 8.70604336,17.884848 C14.0471434,17.245795 14.127675,16.34239 14.1797108,15.7445663 C14.1809497,15.7336527 14.2404192,14.6362279 13.6308573,14.7223242" id="Fill-46" fill="#D27C40"></path>
                    <path d="M36.2604071,0.94755177 C35.9711667,0.868244191 35.6732737,0.785276263 35.1380552,0.67546577 C34.4508,0.532712129 34.4236065,0.535152362 34.1603235,0.553454111 C35.5237092,1.04760133 36.117023,2.0676188 35.7029394,3.60008524 C34.5533939,7.85341168 26.0900197,14.4518022 16.7984783,18.3378736 C9.47723319,21.4003662 3.82591921,21.8640105 2.3216215,19.8422773 C1.91742647,19.2981053 1.81236049,18.5745762 2.05586636,17.67291 C2.13991915,17.3617803 2.26352619,17.0384494 2.42297928,16.7041374 C2.08429598,17.4545091 1.68380916,18.478187 1.38097191,19.2432001 C1.3228766,19.4005951 1.27343378,19.5543298 1.23264346,19.7056243 C1.17949243,19.9045033 1.14117425,20.0960616 1.11768891,20.2790791 C1.0262197,21.0038283 1.17083994,21.6041257 1.52435608,22.078751 C3.16956581,24.2908224 9.35115401,23.7820338 17.3608904,20.4328137 C27.5250975,16.1819275 36.7832649,8.96371778 38.0403486,4.31141321 C38.4939864,2.6337529 37.8450494,1.51856633 36.2604071,0.94755177" id="Fill-48" fill="#407BA3"></path>
                    <path d="M4.4207498,43.8490636 C4.4207498,43.8490636 4.29912147,43.7610664 3.93423647,42.9715708 C3.93299537,42.9703314 3.93299537,42.969092 3.93299537,42.9678527 C3.9181021,42.9418253 3.90320883,42.9145586 3.88955668,42.8872919 C3.67236322,42.4745728 3.46633972,42.0581356 3.27272727,41.6379802 C5.5849067,44.7810897 14.2701626,44.059761 25.5245067,39.2979996 C33.9776758,35.7211013 41.9865292,30.6656029 47.480903,25.7637898 C48.4377952,25.2593554 48.8486011,26.0352176 48.9813994,26.3921638 C49.2668537,27.1655472 48.929273,27.6365179 48.7071151,27.9476064 C43.2028125,32.8580954 35.180307,37.9222695 26.7110035,41.5053648 C16.1740183,45.963474 7.90329166,46.8756698 4.97676504,44.4030738 C4.97676504,44.4030738 4.58705793,44.0634792 4.4207498,43.8490636" id="Fill-50" fill="#E7B420"></path>
                </g>
            </g>
        </g>
    </g>
</svg>