<?xml version="1.0" encoding="utf-8"?>
<!-- Generator: Adobe Illustrator 21.1.0, SVG Export Plug-In . SVG Version: 6.00 Build 0)  -->
<svg version="1.1" id="Layer_1" xmlns="http://www.w3.org/2000/svg" xmlns:xlink="http://www.w3.org/1999/xlink" x="0px" y="0px"
	 viewBox="0 0 30 31" style="enable-background:new 0 0 30 31;" xml:space="preserve">
<style type="text/css">
	.st0{fill:#302C42;}
</style>
<path class="st0" d="M29.4,13.7c-0.3-0.3-0.8-0.6-1.3-0.7l-2.4-0.5c-0.1-0.3-0.2-0.6-0.3-0.9c-0.1-0.3-0.3-0.6-0.4-0.8l1.3-2.2
	c0.3-0.4,0.4-0.9,0.5-1.3c0.1-0.5-0.1-1-0.5-1.3L25,4.6c-0.4-0.4-0.8-0.6-1.4-0.5c-0.5,0-1,0.2-1.4,0.4l-2.1,1.3
	c-0.3-0.1-0.5-0.3-0.8-0.4c-0.3-0.1-0.6-0.2-0.9-0.3l-0.5-2.5c-0.1-0.5-0.3-0.9-0.7-1.2c-0.3-0.4-0.8-0.6-1.3-0.6h-1.9
	c-0.5,0-1,0.2-1.3,0.6c-0.3,0.4-0.5,0.8-0.6,1.3l-0.6,2.4c-0.3,0.1-0.6,0.2-0.9,0.3C10.3,5.6,10,5.7,9.8,5.9L7.6,4.5
	C7.2,4.3,6.7,4.1,6.2,4.1c-0.5,0-1,0.1-1.3,0.5L3.5,5.9C3.2,6.3,3,6.8,3.1,7.3c0,0.5,0.2,0.9,0.4,1.4l1.4,2.3l-0.3,0.8
	c-0.1,0.3-0.2,0.5-0.3,0.8L1.9,13c-0.5,0.1-0.9,0.3-1.3,0.7C0.2,14,0,14.5,0,15v1.9c0,0.5,0.2,0.9,0.6,1.2c0.4,0.3,0.8,0.5,1.3,0.6
	l2.4,0.6c0.1,0.3,0.2,0.5,0.3,0.8c0.1,0.2,0.2,0.5,0.3,0.7l-1.4,2.3c-0.2,0.4-0.4,0.9-0.4,1.4c-0.1,0.5,0.1,1,0.4,1.3l1.3,1.3
	c0.3,0.4,0.8,0.6,1.3,0.5c0.5,0,1-0.2,1.4-0.4l2.2-1.4c0.3,0.2,0.6,0.3,0.9,0.4c0.3,0.1,0.6,0.2,0.9,0.3l0.6,2.4
	c0.1,0.5,0.3,0.9,0.6,1.3c0.3,0.4,0.7,0.6,1.2,0.6h1.9c0.5,0,1-0.2,1.3-0.6c0.3-0.4,0.6-0.8,0.7-1.3l0.5-2.4
	c0.3-0.1,0.6-0.2,0.9-0.3l0.8-0.4l2.1,1.4c0.4,0.3,0.9,0.4,1.4,0.4c0.5,0,1-0.1,1.4-0.5l1.3-1.3c0.4-0.3,0.5-0.8,0.5-1.3
	c0-0.5-0.2-0.9-0.5-1.4L25,21c0.1-0.3,0.3-0.5,0.4-0.8c0.1-0.3,0.2-0.5,0.3-0.8l2.4-0.6c0.5-0.1,0.9-0.3,1.3-0.6
	c0.4-0.3,0.6-0.8,0.6-1.3V15C30,14.5,29.8,14,29.4,13.7z M28.1,16.8c0,0-0.1,0.1-0.2,0.1l-0.2,0.1l-3.5,0.9l-0.3,1
	c-0.1,0.2-0.2,0.5-0.2,0.7c-0.1,0.2-0.2,0.4-0.3,0.7l-0.5,0.9l1.9,3c0.1,0.1,0.1,0.2,0.1,0.3c0,0.1,0,0.1,0,0.2l-1.2,1.2l-0.2-0.1
	l-0.1-0.1l-3.1-2l-1,0.5l-0.7,0.3l-0.7,0.3l-1,0.4l-0.8,3.5c0,0.1-0.1,0.2-0.1,0.2l-0.1,0.1h-1.7c0,0-0.1-0.1-0.1-0.2
	c0-0.1-0.1-0.2-0.1-0.2l-0.9-3.5l-1-0.3c-0.3-0.1-0.5-0.2-0.8-0.3c-0.3-0.1-0.5-0.2-0.8-0.4l-1-0.5l-3.1,2l-0.2,0.1
	c-0.1,0-0.1,0-0.2,0L5,24.6c0-0.1,0-0.1,0-0.2c0-0.1,0.1-0.2,0.1-0.2L7,21l-0.4-1c-0.1-0.2-0.2-0.4-0.3-0.6
	c-0.1-0.2-0.2-0.4-0.2-0.6l-0.3-1l-3.4-0.9L2,16.8c-0.1,0-0.1-0.1-0.2-0.1V15H2l0.2-0.1l3.5-0.8l0.3-1c0.1-0.2,0.1-0.4,0.2-0.6
	c0.1-0.2,0.2-0.4,0.3-0.7L7,10.9L5.2,7.6C5.1,7.6,5,7.5,5,7.4c0-0.1,0-0.1,0-0.2l1.2-1.2L6.4,6l0.2,0.1l3.1,2l1-0.5
	c0.3-0.1,0.5-0.3,0.8-0.4c0.2-0.1,0.5-0.2,0.8-0.3l1-0.3L14,3.2c0-0.1,0-0.2,0.1-0.3c0-0.1,0.1-0.1,0.1-0.2h1.7L16,2.8
	c0,0.1,0.1,0.1,0.1,0.2l0.8,3.5l1,0.3c0.3,0.1,0.5,0.1,0.7,0.2l0.7,0.3l1,0.5l3-1.9C23.3,6.1,23.4,6,23.5,6h0.2l1.2,1.2
	c0,0.1,0,0.1,0,0.2c0,0.1-0.1,0.2-0.1,0.2l-1.9,3.1l0.5,0.9c0.1,0.3,0.3,0.5,0.4,0.7c0.1,0.2,0.2,0.5,0.2,0.7l0.3,1l3.5,0.8
	c0.1,0,0.2,0.1,0.2,0.2l0.1,0.1L28.1,16.8z M15,10.2c-1.5,0-3,0.6-4,1.6c-1.1,1-1.7,2.5-1.7,4c0,1.5,0.6,3,1.7,4
	c1,1.1,2.5,1.7,4,1.6c1.5,0,2.9-0.6,4-1.6c1.1-1,1.7-2.5,1.7-4c0-1.5-0.6-3-1.7-4C17.9,10.8,16.5,10.2,15,10.2z M17.6,18.5
	c-1.5,1.5-3.8,1.5-5.3,0c-1.5-1.5-1.5-3.8,0-5.3c1.5-1.5,3.8-1.5,5.3,0C19.1,14.7,19.1,17.1,17.6,18.5z"/>
</svg>
