<?xml version="1.0" encoding="utf-8"?>
<!-- Generator: Adobe Illustrator 21.1.0, SVG Export Plug-In . SVG Version: 6.00 Build 0)  -->
<svg version="1.1" id="Layer_1" xmlns="http://www.w3.org/2000/svg" xmlns:xlink="http://www.w3.org/1999/xlink" x="0px" y="0px"
	 viewBox="0 0 29 30" style="enable-background:new 0 0 29 30;" xml:space="preserve">
<style type="text/css">
	.st0{fill:#302C42;}
</style>
<path class="st0" d="M2.4,8.4c0,0.1,0.1,0.2,0.1,0.3l0,0C3.2,9.1,4,9.3,4.7,9.1c2.6-0.3,2.6-0.8,2.7-1.1c0,0,0-0.6-0.3-0.5
	c-2,0.7-3.6,0.7-4,0.1C3,7.4,2.9,7.1,3,6.8c0.1-0.2,0.2-0.5,0.3-0.7C3.4,6,3.5,5.8,3.6,5.7l0,0L3.4,5.9L3.1,6.4L2.8,6.9
	C2.7,7,2.6,7.2,2.5,7.4c0,0.1-0.1,0.2-0.1,0.3c0,0.1,0,0.1,0,0.2C2.4,8.1,2.4,8.2,2.4,8.4L2.4,8.4z M0.5,13.6c0,0.1,0,0.2,0.1,0.3
	l0,0V14l0.1,0.1l0,0c0.1,0.2,0.3,0.4,0.6,0.5c0.1,0,0.2-0.2,0.2-0.4c0,0,0.1-0.6-0.1-0.8c-0.2-0.1-0.3-0.2-0.5-0.4
	c-0.2-0.3-0.3-0.6-0.2-1c0-0.1,0-0.3,0.1-0.4v0.1l-0.1,0.5L0.5,13l0,0c0,0.1,0,0.2,0,0.3c0,0,0,0.1,0,0.1L0.5,13.6z M9,10.4
	c5-2.1,9.5-5.7,10.1-8C19.3,1.8,19,1,18.4,0.8c-0.1,0-0.1,0-0.2-0.1l-0.5-0.1c-0.2-0.1-0.3-0.1-0.5-0.1c0.6,0.2,1,0.8,0.8,1.4
	c0,0,0,0.1,0,0.1c-0.6,2.1-4.7,5.4-9.2,7.3c-3.6,1.5-6.3,1.8-7.1,0.8C1.4,9.8,1.4,9.4,1.5,9c0-0.2,0.1-0.3,0.2-0.5
	C1.5,8.9,1.3,9.4,1.2,9.8c0,0.1,0,0.1-0.1,0.2c0,0.1,0,0.2-0.1,0.3c-0.1,0.3,0,0.6,0.2,0.9C2,12.3,5.1,12.1,9,10.4z M23.7,19.6
	c-0.1,0.1-0.2,0.3-0.3,0.5c-0.1,0.3,0.1,0.7,0.5,0.4c2.6-2,4.5-4.2,4.9-5.8C29,14.5,29,14.2,29,14v-0.5l-0.1-0.8
	c0,0.3,0,0.6-0.1,0.9C28.4,15.3,26.4,17.5,23.7,19.6L23.7,19.6z M15.3,1.6c-0.3,1-1.7,2.4-3.5,3.6c0,0-0.1,0.1-0.1,0.1
	c-0.1,0.2,0.3,0.8,0.7,0.6c2.1-1.4,3.7-3,4-4.2c0.2-1-0.4-1.5-1.6-1.5c-0.4,0-0.8,0-1.2,0h-0.3C14.7,0.2,15.5,0.6,15.3,1.6L15.3,1.6
	z M8.4,6.2c0.7-0.3,1.4-0.6,2-1c0.1-0.1,0-0.3,0-0.4s-0.3-0.3-0.5-0.3c-0.5,0.3-1,0.6-1.6,0.8C6.6,6.1,5.3,6.2,4.9,5.7
	C4.8,5.5,4.8,5.3,4.8,5.2c0.1-0.3,0.2-0.5,0.4-0.8C5.6,4,6,3.6,6.4,3.3c1-0.8,2.1-1.4,3.3-1.9l0.6-0.2c1.7-0.6,2.9-0.4,2.6,0.5
	c-0.1,0.4-0.3,0.7-0.6,1c0.3,0.2,0.7,0.2,1.1,0.1C13.6,2.4,13.9,2,14,1.6c0.3-1-0.9-1.3-2.7-0.8l-0.4,0.1l-0.5,0.2L9.9,1.2L9.4,1.4
	L9,1.6L8.6,1.8L8.3,1.9L8,2.1L7.7,2.3L7.4,2.5L7,2.7L6.8,3L6.4,3.2L6.1,3.5L5.7,3.8L5.3,4.2C5,4.4,4.8,4.7,4.5,5
	C4.4,5.2,4.2,5.5,4.1,5.7C4.1,5.8,4,5.9,4,6c0,0.1,0,0.1,0,0.2c0,0.2,0,0.4,0.1,0.5C4.5,7.3,6.2,7.1,8.4,6.2z M28.3,11.3
	c-0.7,2.7-5.3,6.7-10.9,9.6c-0.1,0.1-0.3,0.2-0.3,0.4c-0.1,0.4,0.2,0.9,0.8,0.6c5.5-2.9,10-6.8,10.7-9.5c0.1-0.4,0.1-0.7,0-1.1
	c-0.1-0.4-0.3-0.9-0.4-1.3C28.4,10.4,28.4,10.9,28.3,11.3L28.3,11.3z M27.6,9.2C27.6,9.2,27.6,9.1,27.6,9.2c0-0.3,0-0.6-0.2-0.9
	l-0.2-0.4L26.9,7c0.2,0.3,0.2,0.7,0.2,1C27.2,8.4,27.3,8.8,27.6,9.2L27.6,9.2z M20.6,2.9C20,5.5,14.9,9.5,9.4,11.8
	c-1,0.4-2,0.8-3,1.1c-0.1,0-0.2,0.1-0.2,0.2C6,13.4,6,14.1,6.6,14c1.1-0.3,2.1-0.7,3.1-1.1c5.9-2.5,11.2-6.7,12-9.5
	c0.3-0.7-0.1-1.6-0.8-1.9c-0.4-0.2-0.8-0.4-1.2-0.5c0.7,0.2,1.2,0.9,1,1.7C20.7,2.8,20.7,2.8,20.6,2.9L20.6,2.9z M18,27.4
	c-3.1,1.4-5.7,1.9-7.1,1.5c0.4,0.1,0.9,0.2,1.3,0.3c3.9,0.6,13.6-4.4,15.8-8.9c0.2-0.4,0.3-0.9,0.5-1.3C27.7,21.4,23.1,25.2,18,27.4
	z M24.8,24.7c-1.7,1.3-3.6,2.5-5.7,3.3c-1.6,0.7-3.3,1.2-5.1,1.2c0.4,0,1,0,1.5,0c1.4-0.1,2.7-0.5,4-1.1c1.8-0.8,3.5-1.7,5-2.9
	c0.1-0.1,0.2-0.2,0.3-0.4c0,0,0.1-0.1,0.1-0.1v-0.1L24.8,24.7z M8,27.9c0.4,0.2,0.8,0.4,1.2,0.6c1.4,0.6,4.4,0.1,8.1-1.5
	c5.7-2.4,10.8-6.6,11.5-9.2c0-0.1,0-0.1,0-0.2c0.1-0.3,0.1-0.8,0.1-1.1v-0.2C28.2,21.5,12.9,30,8,27.9z M15.1,25.7
	c0.4-0.2,0.3-0.4,0.3-0.5s-0.2-0.5-0.9-0.2c-1,0.4-1.9,0.7-2.8,1c-3.1,0.9-5.5,0.9-6.5,0.1c0.3,0.3,0.7,0.6,1,0.8
	C7.6,27.8,10.9,27.4,15.1,25.7L15.1,25.7z M13.5,20.9c3.9-1.7,7.5-3.9,10.7-6.8c0.2-0.2,0.2-0.5,0.1-0.8c-0.1-0.3-0.3-0.4-0.6-0.4
	c-0.1,0-0.1,0-0.2,0.1c-3.2,2.8-6.8,5.1-10.7,6.7C7.5,22.2,3.2,22.5,2.1,21c0.1,0.2,0.2,0.4,0.3,0.6l0,0l0,0
	c0.1,0.2,0.1,0.3,0.2,0.4c0.1,0.1,0.2,0.2,0.3,0.3C4.4,23.6,8.4,23.1,13.5,20.9z M12,18.7c6.9-3,13.1-8.1,14-11.4
	c0.2-0.6,0.1-1.3-0.3-1.8c-0.2-0.3-0.6-0.7-0.9-1c0.4,0.5,0.6,1.2,0.4,1.8c-0.8,3.2-7,8.2-13.7,11.2C6.2,19.9,2.2,20.2,1,18.8l0,0
	c-0.1-0.2-0.2-0.4-0.2-0.6c0.1,0.4,0.2,0.9,0.3,1.3c0,0.2,0.1,0.3,0.2,0.4l0,0l0,0l0,0C2.5,21.5,6.6,21.1,12,18.7z M8.6,25.5
	c0.3-0.1,0.2-0.3,0.1-0.4c-0.2-0.3-0.5-0.5-0.8-0.5c-2.2,0.4-3.8,0.1-4.4-0.7l0,0l0,0l0.4,0.5l0.4,0.5C4.9,25.7,6.5,25.9,8.6,25.5z
	 M0.8,17.1c1,1.5,5,1.1,10.1-1.1c6.5-2.8,12.4-7.5,13.2-10.6c0.3-0.7,0.1-1.4-0.5-1.9l-0.6-0.4l-0.5-0.3c0.5,0.3,0.7,0.8,0.7,1.4
	C23,8.9,4.8,20.3,0.8,15.9c-0.2-0.3-0.3-0.6-0.3-0.9c0,0.4,0,0.8,0.1,1.2l0,0v0.1c0,0,0,0,0,0.1l0,0c0,0,0,0.1,0,0.1s0,0,0-0.1
	c0,0.1,0,0.2,0.1,0.2v0.1l0,0l0,0c0,0,0,0.1,0.1,0.1c0,0,0-0.1-0.1-0.1C0.7,16.9,0.7,17,0.8,17.1L0.8,17.1z"/>
</svg>
