<svg id="Layer_1" data-name="Layer 1" xmlns="http://www.w3.org/2000/svg" viewBox="0 0 29 30"><path fill="#EDB820" d="M2.39,8.36a.89.89,0,0,0,.14.3v0a2.6,2.6,0,0,0,2.21.47c2.61-.32,2.64-.77,2.67-1.07,0,0,0-.55-.27-.51-2,.68-3.57.69-4,.06A.92.92,0,0,1,3,6.82a2.69,2.69,0,0,1,.31-.68c.11-.16.22-.33.34-.49h0l-.2.25-.34.48-.32.48c-.09.15-.2.35-.28.51a2.3,2.3,0,0,0-.12.34,1.64,1.64,0,0,0,0,.22,1.66,1.66,0,0,0,0,.38ZM.53,13.6a1.38,1.38,0,0,0,.09.32l0,0,0,.06.07.11v0a1.52,1.52,0,0,0,.56.49c.13,0,.19-.21.22-.4,0,0,.1-.64-.08-.81A1.46,1.46,0,0,1,.93,13,1.36,1.36,0,0,1,.7,12c0-.13,0-.27.07-.4l0,.12-.1.53-.12.79h0a1.93,1.93,0,0,0,0,.31s0,.09,0,.14ZM9,10.41c5-2.12,9.47-5.71,10.09-8A1.26,1.26,0,0,0,18.19.71L17.65.57a1.29,1.29,0,0,0-.48-.06A1.14,1.14,0,0,1,17.92,2c-.56,2.12-4.69,5.4-9.22,7.34-3.57,1.52-6.33,1.76-7.06.75A1.23,1.23,0,0,1,1.51,9a2.9,2.9,0,0,1,.18-.48c-.17.37-.36.88-.51,1.26,0,.08-.05.15-.07.23a2.23,2.23,0,0,0-.06.29,1.22,1.22,0,0,0,.2.9C2.05,12.33,5.07,12.08,9,10.41Zm14.7,9.17a.83.83,0,0,0-.28.46c-.06.32.12.71.55.44,2.64-2,4.52-4.16,4.94-5.79A2.42,2.42,0,0,0,29,14l0-.46-.08-.83a2.36,2.36,0,0,1-.07.88C28.36,15.28,26.41,17.48,23.68,19.58Zm-8.43-18C15,2.57,13.61,4,11.76,5.21a.28.28,0,0,0-.07.09c-.08.23.33.78.73.59,2.11-1.43,3.69-3,4-4.2C16.67.73,16,.24,14.8.24c-.35,0-.81,0-1.16,0l-.32,0C14.73.16,15.5.58,15.25,1.54ZM8.4,6.16a16.94,16.94,0,0,0,2-1c.14-.12,0-.31,0-.39s-.28-.34-.47-.27a13.5,13.5,0,0,1-1.59.83c-1.74.76-3.08.87-3.43.37a.63.63,0,0,1-.06-.54,2.26,2.26,0,0,1,.42-.77,7,7,0,0,1,1.1-1.09A16.89,16.89,0,0,1,9.64,1.36l.55-.22c1.72-.58,2.85-.4,2.62.5a2.72,2.72,0,0,1-.56,1,1.4,1.4,0,0,0,1.09.14A3.19,3.19,0,0,0,14,1.57c.27-1-.89-1.32-2.74-.81L10.82.9l-.46.16-.47.18-.48.2L9,1.6l-.35.17-.33.17L8,2.13l-.32.19-.32.2-.32.21L6.75,3l-.34.25-.34.26-.37.31-.37.33A7.43,7.43,0,0,0,4.53,5a3.41,3.41,0,0,0-.44.72A1.78,1.78,0,0,0,4,6a1.35,1.35,0,0,0,0,.16.71.71,0,0,0,.11.51C4.53,7.26,6.22,7.12,8.4,6.16Zm19.86,5.1C27.54,14,22.93,18,17.35,20.91a.68.68,0,0,0-.31.35c-.15.4.23.86.84.6,5.49-2.89,10-6.81,10.74-9.48a2.19,2.19,0,0,0,0-1.11c-.1-.38-.27-.88-.39-1.26A2.11,2.11,0,0,1,28.26,11.27Zm-.64-2.08a.1.1,0,0,0,0-.05,2,2,0,0,0-.16-.82l-.17-.37L26.85,7a2,2,0,0,1,.23,1A2.64,2.64,0,0,0,27.62,9.19Zm-7-6.29C20,5.47,14.91,9.47,9.38,11.82a26.35,26.35,0,0,1-3,1.07.45.45,0,0,0-.21.16c-.22.32-.14,1.09.39,1a28,28,0,0,0,3.14-1.13c5.88-2.5,11.24-6.74,12-9.48a1.45,1.45,0,0,0-.79-1.88c-.36-.17-.84-.36-1.2-.52A1.38,1.38,0,0,1,20.64,2.9ZM18,27.42c-3.15,1.39-5.74,1.86-7.13,1.45.4.11.94.23,1.34.33,3.88.65,13.64-4.4,15.76-8.91.17-.39.33-.93.46-1.34C27.7,21.43,23.08,25.19,18,27.42Zm6.82-2.72A24.94,24.94,0,0,1,19.14,28a12.67,12.67,0,0,1-5.06,1.21c.44,0,1,0,1.48,0a12.64,12.64,0,0,0,4-1.07,22,22,0,0,0,5-2.94,1.72,1.72,0,0,0,.34-.39A1.06,1.06,0,0,0,25,24.7l0-.06ZM8,27.89c.35.19.83.4,1.18.57,1.45.6,4.43.12,8.11-1.46,5.66-2.43,10.81-6.56,11.51-9.23q0-.11,0-.21c.06-.34.1-.79.15-1.13l0-.19C28.24,21.49,12.92,30,8,27.89Zm7.14-2.16c.37-.19.33-.42.29-.51s-.22-.46-.88-.25c-1,.39-1.89.72-2.75,1-3.11.92-5.46.94-6.46.07.3.26.71.57,1,.82C7.63,27.79,10.91,27.44,15.09,25.73ZM13.54,20.9a40.43,40.43,0,0,0,10.73-6.75.76.76,0,0,0,.13-.77.48.48,0,0,0-.73-.31A40.37,40.37,0,0,1,13,19.8C7.47,22.18,3.23,22.53,2.1,21q.14.31.3.62l0,0h0a1.54,1.54,0,0,0,.24.44,2.74,2.74,0,0,0,.27.28C4.36,23.58,8.4,23.12,13.54,20.9ZM12,18.74c6.85-3,13.1-8.11,13.95-11.4a1.91,1.91,0,0,0-.26-1.76c-.25-.31-.62-.7-.88-1a1.82,1.82,0,0,1,.35,1.83c-.83,3.22-7,8.23-13.67,11.17C6.22,19.89,2.15,20.25,1,18.75l0,0a1.52,1.52,0,0,1-.25-.57c.09.4.23.92.34,1.31a1,1,0,0,0,.2.42h0v0h0C2.47,21.46,6.63,21.1,12,18.74ZM8.55,25.55c.27-.09.21-.31.14-.44a.93.93,0,0,0-.79-.49c-2.21.4-3.8.15-4.44-.74l0,0,0,0,.4.53.41.53C4.94,25.71,6.46,25.92,8.55,25.55ZM.83,17.06c1,1.47,5,1.15,10.1-1.06,6.48-2.8,12.38-7.54,13.19-10.6a1.66,1.66,0,0,0-.48-1.87l-.57-.43-.49-.34a1.48,1.48,0,0,1,.68,1.38C23,8.91,4.83,20.31.77,15.89A1.46,1.46,0,0,1,.51,15c0,.36,0,.84.05,1.22h0v.11s0,.05,0,.08v0s0,.08,0,.11,0-.05,0-.09a1.46,1.46,0,0,0,.06.24l0,.09,0,0v0a1.51,1.51,0,0,0,.07.14s0-.07-.06-.11a1.42,1.42,0,0,0,.15.28Z"/></svg>
