<?xml version="1.0" encoding="UTF-8"?>
<svg width="25px" height="30px" viewBox="0 0 25 30" version="1.1" xmlns="http://www.w3.org/2000/svg" xmlns:xlink="http://www.w3.org/1999/xlink">
    <!-- Generator: Sketch 46 (44423) - http://www.bohemiancoding.com/sketch -->
    <title>lock - simple-line-icons</title>
    <desc>Created with Sketch.</desc>
    <defs></defs>
    <g id="Page-1" stroke="none" stroke-width="1" fill="none" fill-rule="evenodd">
        <g id="01" transform="translate(-468.000000, -284.000000)" fill="#FFFFFF">
            <path d="M488.625,295.25 C489.660161,295.25 490.543942,295.616207 491.276367,296.348633 C492.008793,297.081058 492.375,297.964839 492.375,299 L492.375,310.25 C492.375,311.285161 492.008793,312.168942 491.276367,312.901367 C490.543942,313.633793 489.660161,314 488.625,314 L471.75,314 C470.714839,314 469.831058,313.633793 469.098633,312.901367 C468.366207,312.168942 468,311.285161 468,310.25 L468,299 C468,297.964839 468.366207,297.081058 469.098633,296.348633 C469.831058,295.616207 470.714839,295.25 471.75,295.25 L472.6875,295.25 L472.6875,291.675781 C472.6875,290.621088 472.868162,289.625005 473.229492,288.6875 C473.590822,287.749995 474.09863,286.934574 474.75293,286.241211 C475.40723,285.547848 476.193355,285.000979 477.111328,284.600586 C478.029301,284.200193 479.044916,284 480.158203,284 C481.251959,284 482.262691,284.200193 483.19043,284.600586 C484.118169,285.000979 484.914059,285.542965 485.578125,286.226562 C486.242191,286.91016 486.759764,287.720698 487.130859,288.658203 C487.501955,289.595708 487.6875,290.601557 487.6875,291.675781 L487.6875,295.25 L488.625,295.25 Z M474.5625,291.675781 L474.5625,295.25 L485.8125,295.25 L485.8125,291.675781 C485.8125,290.054679 485.290044,288.682623 484.245117,287.55957 C483.20019,286.436518 481.837899,285.875 480.158203,285.875 C478.458976,285.875 477.101568,286.441401 476.085938,287.574219 C475.070307,288.707037 474.5625,290.074211 474.5625,291.675781 Z M490.5,310.25 L490.5,299 C490.5,298.492185 490.314455,298.052736 489.943359,297.681641 C489.572264,297.310545 489.132815,297.125 488.625,297.125 L471.75,297.125 C471.242185,297.125 470.802736,297.310545 470.431641,297.681641 C470.060545,298.052736 469.875,298.492185 469.875,299 L469.875,310.25 C469.875,310.757815 470.060545,311.197264 470.431641,311.568359 C470.802736,311.939455 471.242185,312.125 471.75,312.125 L488.625,312.125 C489.132815,312.125 489.572264,311.939455 489.943359,311.568359 C490.314455,311.197264 490.5,310.757815 490.5,310.25 Z M480.1875,300.875 C480.714846,300.875 481.159178,301.055662 481.520508,301.416992 C481.881838,301.778322 482.0625,302.222654 482.0625,302.75 C482.0625,303.101564 481.97461,303.418944 481.798828,303.702148 C481.623046,303.985353 481.398439,304.205077 481.125,304.361328 L481.125,307.4375 C481.125,307.691408 481.032227,307.911132 480.84668,308.09668 C480.661132,308.282227 480.441408,308.375 480.1875,308.375 C479.933592,308.375 479.713868,308.282227 479.52832,308.09668 C479.342773,307.911132 479.25,307.691408 479.25,307.4375 L479.25,304.361328 C478.976561,304.205077 478.751954,303.985353 478.576172,303.702148 C478.40039,303.418944 478.3125,303.101564 478.3125,302.75 C478.3125,302.222654 478.493162,301.778322 478.854492,301.416992 C479.215822,301.055662 479.660154,300.875 480.1875,300.875 Z" id="lock---simple-line-icons"></path>
        </g>
    </g>
</svg>