<?xml version="1.0" encoding="UTF-8"?>
<svg width="33px" height="31px" viewBox="0 0 33 31" version="1.1" xmlns="http://www.w3.org/2000/svg" xmlns:xlink="http://www.w3.org/1999/xlink">
    <!-- Generator: Sketch 46 (44423) - http://www.bohemiancoding.com/sketch -->
    <title>Group 4</title>
    <desc>Created with Sketch.</desc>
    <defs></defs>
    <g id="Page-1" stroke="none" stroke-width="1" fill="none" fill-rule="evenodd">
        <g id="01" transform="translate(-463.000000, -283.000000)" fill="#FFFFFF">
            <g id="Group-4" transform="translate(464.000000, 284.000000)">
                <path d="M11,13 C10.4477153,13 10,13.4477153 10,14 L10,27 C10,27.5522847 10.4477153,28 11,28 L29,28 C29.5522847,28 30,27.5522847 30,27 L30,14 C30,13.4477153 29.5522847,13 29,13 L11,13 Z M11,11 L29,11 C30.6568542,11 32,12.3431458 32,14 L32,27 C32,28.6568542 30.6568542,30 29,30 L11,30 C9.34314575,30 8,28.6568542 8,27 L8,14 C8,12.3431458 9.34314575,11 11,11 Z" id="Rectangle-3" fill-rule="nonzero"></path>
                <path d="M1,12 L1,7 C1,3.6862915 3.6862915,1 7,1 C10.3137085,1 13,3.6862915 13,7 L13,12 L15,12 L15,7 C15,2.581722 11.418278,-1 7,-1 C2.581722,-1 -1,2.581722 -1,7 L-1,12 L1,12 Z" id="Rectangle" fill-rule="nonzero"></path>
                <path d="M19,20.7324356 C18.4021986,20.3866262 18,19.7402824 18,19 C18,17.8954305 18.8954305,17 20,17 C21.1045695,17 22,17.8954305 22,19 C22,19.7402824 21.5978014,20.3866262 21,20.7324356 L21,24 C21,24.5522847 20.5522847,25 20,25 C19.4477153,25 19,24.5522847 19,24 L19,20.7324356 Z" id="Combined-Shape"></path>
            </g>
        </g>
    </g>
</svg>