<?xml version="1.0" encoding="utf-8"?>
<!-- Generator: Adobe Illustrator 21.1.0, SVG Export Plug-In . SVG Version: 6.00 Build 0)  -->
<svg version="1.1" id="Layer_1" xmlns="http://www.w3.org/2000/svg" xmlns:xlink="http://www.w3.org/1999/xlink" x="0px" y="0px"
	 viewBox="0 0 26 31" style="enable-background:new 0 0 26 31;" xml:space="preserve">
<style type="text/css">
	.st0{fill:#302C42;}
</style>
<path class="st0" d="M24.9,1.7c-0.5-0.5-1.2-0.8-2-0.8H4.2c-0.6,0-1.1,0.2-1.5,0.6C2.4,1.9,2.3,2.3,2.2,2.8v3.7h-1
	C1,6.5,0.8,6.6,0.6,6.8C0.4,7,0.3,7.2,0.3,7.5c0,0.2,0.1,0.5,0.3,0.6C0.8,8.3,1,8.4,1.2,8.4h1v3.8H1.3c-0.2,0-0.5,0.1-0.6,0.3
	c-0.4,0.4-0.4,0.9,0,1.3C0.8,13.9,1.1,14,1.3,14h0.9v3.8h-1c-0.2,0-0.4,0.1-0.6,0.2c-0.2,0.2-0.3,0.4-0.3,0.6c0,0.2,0.1,0.5,0.3,0.7
	c0.2,0.2,0.4,0.3,0.6,0.3h1v3.8h-1c-0.2,0-0.5,0.1-0.6,0.3c-0.2,0.2-0.3,0.4-0.3,0.6c0,0.2,0.1,0.5,0.3,0.7c0.2,0.2,0.4,0.3,0.6,0.3
	h1V29c-0.1,0.6,0.2,1.2,0.7,1.5c0.4,0.2,0.8,0.3,1.2,0.4h18.7c1.5,0,2.8-1.2,2.8-2.8c0,0,0,0,0,0V3.7C25.7,2.9,25.4,2.2,24.9,1.7z
	 M19.1,29h-15v-3.8h1C5.6,25.2,6,24.8,6,24.3c0-0.2-0.1-0.5-0.3-0.6c-0.2-0.2-0.4-0.3-0.7-0.3h-1v-3.8h1c0.5,0,0.9-0.4,0.9-0.9
	c0-0.3-0.1-0.5-0.2-0.7c-0.2-0.2-0.4-0.3-0.7-0.3h-1V14h1C5.6,14,6,13.6,6,13.1c0-0.5-0.4-0.9-0.9-0.9c0,0,0,0,0,0h-1V8.4H5
	c0.5,0,0.9-0.4,0.9-0.9c0,0,0,0,0,0c0-0.2-0.1-0.5-0.3-0.7C5.5,6.6,5.2,6.5,5,6.5H4.1V2.8h15L19.1,29z M23.8,28.1
	c0,0.5-0.4,0.9-0.9,0.9H21V2.8h1.9c0.5,0,0.9,0.4,0.9,0.9L23.8,28.1z"/>
</svg>
