<svg id="Layer_1" data-name="Layer 1" xmlns="http://www.w3.org/2000/svg" viewBox="0 0 26 31"><path fill="#EDB820" d="M24.87,1.7a2.71,2.71,0,0,0-2-.82H4.18a1.72,1.72,0,0,0-1.46.62,2.14,2.14,0,0,0-.47,1.32V6.53h-1a.85.85,0,0,0-.64.28.93.93,0,0,0-.26.66.88.88,0,0,0,.26.64.88.88,0,0,0,.64.26h1v3.78H1.31a.88.88,0,0,0-.64.26.92.92,0,0,0,0,1.29.88.88,0,0,0,.64.26h.94v3.81h-1A.89.89,0,0,0,.65,18a.85.85,0,0,0-.28.64.9.9,0,0,0,.28.66.87.87,0,0,0,.63.28h1v3.75h-1a.89.89,0,0,0-.63.26.85.85,0,0,0-.28.64.9.9,0,0,0,.28.66.87.87,0,0,0,.63.28h1V29a1.54,1.54,0,0,0,.69,1.52,2.74,2.74,0,0,0,1.22.35H22.87a2.8,2.8,0,0,0,2.81-2.81V3.69A2.71,2.71,0,0,0,24.87,1.7ZM19.12,29h-15V25.22h1A1,1,0,0,0,6,24.28a.85.85,0,0,0-.28-.64.93.93,0,0,0-.66-.26h-1V19.63h1A1,1,0,0,0,6,18.69.85.85,0,0,0,5.75,18a.93.93,0,0,0-.66-.26h-1V14h1a.91.91,0,1,0,0-1.82h-1V8.38H5a.9.9,0,0,0,.91-.91.93.93,0,0,0-.26-.66A.85.85,0,0,0,5,6.53H4.12V2.75h15Zm4.69-.94a1,1,0,0,1-.94.94H21V2.75h1.88a1,1,0,0,1,.94.94Z"/></svg>
