<?xml version="1.0" encoding="utf-8"?>
<!-- Generator: Adobe Illustrator 19.2.0, SVG Export Plug-In . SVG Version: 6.00 Build 0)  -->
<svg version="1.1" id="Layer_1" xmlns="http://www.w3.org/2000/svg" xmlns:xlink="http://www.w3.org/1999/xlink" x="0px" y="0px"
	 viewBox="0 0 32.3 32.3" style="enable-background:new 0 0 32.3 32.3;" xml:space="preserve">
<g>
	<g>
		<path style="fill:#3F7BA3;" d="M16.1,28.3c-6.7,0-12.2-5.5-12.2-12.2c0-6.7,5.5-12.2,12.2-12.2c6.7,0,12.2,5.5,12.2,12.2
			C28.3,22.9,22.9,28.3,16.1,28.3z M16.1,4.6C9.8,4.6,4.6,9.8,4.6,16.1s5.2,11.5,11.5,11.5s11.5-5.2,11.5-11.5S22.5,4.6,16.1,4.6z"
			/>
	</g>
	<g>
		<path style="fill:#3F7BA3;" d="M16.1,30.9C8,30.9,1.4,24.3,1.4,16.1C1.4,8,8,1.4,16.1,1.4S30.9,8,30.9,16.1
			C30.9,24.3,24.3,30.9,16.1,30.9z M16.1,2.1C8.4,2.1,2.1,8.4,2.1,16.1s6.3,14.1,14.1,14.1s14.1-6.3,14.1-14.1S23.9,2.1,16.1,2.1z"
			/>
	</g>
	<g>
		<path style="fill:#3F7BA3;" d="M16.1,32.3c-7.1,0-13.7-4.8-15.6-12C-0.6,16.1,0,11.8,2.2,8.1C4.3,4.3,7.8,1.7,12,0.6
			S20.5,0,24.2,2.2c3.7,2.2,6.4,5.6,7.5,9.8l0,0c2.3,8.6-2.8,17.4-11.4,19.7C18.9,32.1,17.5,32.3,16.1,32.3z M16.2,0.7
			c-1.3,0-2.7,0.2-4,0.5C3.9,3.4-1,11.9,1.2,20.1C3.4,28.3,11.9,33.2,20.1,31c8.2-2.2,13.1-10.7,10.9-18.9l0,0
			c-1.1-4-3.6-7.3-7.2-9.4C21.5,1.4,18.8,0.7,16.2,0.7z"/>
	</g>
	<g>
		<g>
			<path style="fill:#3F7BA3;" d="M16.1,24.1c-4.4,0-7.9-3.6-7.9-7.9c0-4.4,3.6-7.9,7.9-7.9s7.9,3.6,7.9,7.9
				C24.1,20.5,20.5,24.1,16.1,24.1z M16.1,8.9c-4,0-7.2,3.2-7.2,7.2c0,4,3.2,7.2,7.2,7.2s7.2-3.2,7.2-7.2
				C23.4,12.1,20.1,8.9,16.1,8.9z"/>
		</g>
		<g>
			<g style="enable-background:new    ;">
				<g style="enable-background:new    ;">
					<g>
						<path style="fill:#3F7BA3;" d="M14.2,8.9C13.9,9,13.9,9,13.7,9.1c-0.3,0.1-0.3,0.1-0.5,0.2C13,9.4,13,9.4,12.9,9.4
							c-0.2,0.1-0.2,0.1-0.3,0.2c-0.2,0.1-0.2,0.1-0.3,0.2C12,9.9,12,9.9,11.9,10c-0.2,0.2-0.2,0.2-0.3,0.3
							c-0.2,0.2-0.3,0.2-0.4,0.3c0.5-0.5,1.4-1,2.2-1.4C13.6,9.1,13.9,9,14.2,8.9"/>
						<g>
							<path style="fill:#3F7BA3;" d="M10,11.9C10,12,9.9,12.1,9.8,12.1C9.9,12.1,10,12,10,11.9"/>
						</g>
						<g>
							<path style="fill:#3F7BA3;" d="M14.6,21.7c-0.2,0.2-0.3,0.4-0.4,0.6C14.3,22.2,14.4,22,14.6,21.7"/>
						</g>
						<polyline style="fill:#3F7BA3;" points="8.7,15.2 8.7,15.2 8.7,15.2 						"/>
						<g>
							<path style="fill:#3F7BA3;" d="M8.7,16.6c0,0.1,0,0.2,0,0.2C8.7,16.8,8.7,16.7,8.7,16.6"/>
						</g>
						<g>
							<path style="fill:#3F7BA3;" d="M9,18c0,0.2,0,0.3,0,0.4C9,18.3,9,18.1,9,18"/>
						</g>
						<g>
							<path style="fill:#3F7BA3;" d="M10.6,21.1c-0.1-0.2-0.3-0.3-0.4-0.5c0,0,0,0,0,0C10.3,20.8,10.5,21,10.6,21.1
								C10.6,21.2,10.6,21.1,10.6,21.1"/>
						</g>
						<g>
							<path style="fill:#3F7BA3;" d="M14.2,23.2c-0.1-0.1-0.1-0.3-0.1-0.4C14.1,22.9,14.1,23,14.2,23.2"/>
						</g>
						<path style="fill:#3F7BA3;" d="M8.7,15.2c0-0.1,0-0.1,0-0.2c0-0.2,0.1-0.4,0.1-0.6c0,0,0,0,0,0.1l-0.1,0.3L8.7,15.2L8.7,15.2"
							/>
						<path style="fill:#3F7BA3;" d="M10,11.9c0.1-0.1,0.2-0.3,0.3-0.4l0,0l-0.1,0.1c-0.1,0.1-0.2,0.3-0.3,0.5
							C9.9,12.1,10,12,10,11.9"/>
					</g>
				</g>
				<g style="enable-background:new    ;">
					<g style="enable-background:new    ;">
						<path style="fill:#3F7BA3;" d="M19,13C19,13,19,13,19,13C19,13,19,13,19,13C19,13,19,13,19,13C19,13,19,13,19,13"/>
					</g>
					<g>
						<g>
							<path style="fill:#3F7BA3;" d="M10.7,11c0.1-0.1,0.3-0.3,0.4-0.4c0.2-0.2,0.2-0.2,0.4-0.3c0.2-0.2,0.2-0.2,0.3-0.3
								c0.2-0.1,0.2-0.1,0.3-0.2c0.2-0.1,0.2-0.1,0.3-0.2c0.2-0.1,0.2-0.1,0.3-0.2c0.2-0.1,0.2-0.1,0.4-0.2c0.3-0.1,0.3-0.1,0.5-0.2
								C14,9,14,9,14.2,8.9c1-0.3,1.5-0.1,1.4,0.4c0,0.2-0.2,0.4-0.4,0.6c-0.2,0.1-0.5,0-0.6-0.1c0.1-0.2,0.2-0.3,0.3-0.5
								c0.1-0.5-0.7-0.6-1.8-0.1c-0.9,0.4-1.7,0.9-2.1,1.4C11,10.8,10.8,10.9,10.7,11"/>
							<path style="fill:#3F7BA3;" d="M10.7,11c-0.1,0.1-0.2,0.2-0.2,0.4C10.5,11.3,10.6,11.2,10.7,11"/>
						</g>
						<g>
							<path style="fill:#3F7BA3;" d="M15.6,8.7c0.2,0,0.4,0,0.6,0c0.7,0,1,0.3,0.9,0.8c-0.2,0.6-1,1.4-2.1,2.2
								c-0.2,0.1-0.4-0.2-0.4-0.3c0,0,0,0,0,0c1-0.7,1.7-1.4,1.9-1.9c0.1-0.5-0.3-0.7-1-0.6L15.6,8.7"/>
							<path style="fill:#3F7BA3;" d="M9.8,12.1c0,0.1-0.1,0.2-0.1,0.3C9.7,12.3,9.8,12.2,9.8,12.1"/>
						</g>
						<path style="fill:#3F7BA3;" d="M19.4,9.4c0.4,0.2,0.5,0.5,0.4,1c-0.4,1.4-3.2,3.6-6.2,4.9c-0.6,0.2-1.1,0.4-1.6,0.6
							c-0.3,0-0.3-0.4-0.2-0.5c0-0.1,0.1-0.1,0.1-0.1c0.5-0.1,1-0.3,1.5-0.6c2.9-1.2,5.5-3.3,5.8-4.6c0.1-0.5-0.1-0.8-0.5-1
							C18.9,9.2,19.2,9.3,19.4,9.4"/>
						<path style="fill:#3F7BA3;" d="M22.7,12.6l0.1,0.2c0.1,0.2,0.1,0.2,0.1,0.4c0,0,0,0,0,0c-0.1,0-0.3-0.4-0.3-0.6
							c0-0.2,0-0.3-0.1-0.5L22.7,12.6"/>
						<path style="fill:#3F7BA3;" d="M23.3,14.2c0,0.2,0,0.4,0,0.6c-0.4,1.4-2.7,3.4-5.6,4.9c-0.3,0.1-0.5-0.1-0.4-0.3
							c0-0.1,0.1-0.1,0.2-0.2c2.9-1.5,5.3-3.6,5.7-5c0.1-0.3,0.1-0.5,0-0.7C23.2,13.8,23.3,14,23.3,14.2"/>
						<path style="fill:#3F7BA3;" d="M23.6,15.6l0,0.2c0,0.1,0,0.2,0,0.4c-0.2,0.9-1.3,2-2.7,3c-0.2,0.1-0.3-0.1-0.3-0.2
							c0-0.1,0.1-0.2,0.2-0.2C22.2,17.6,23.2,16.5,23.6,15.6c0-0.1,0-0.3,0-0.4L23.6,15.6"/>
						<g>
							<path style="fill:#3F7BA3;" d="M10.5,11.9c0-0.1-0.1-0.2-0.1-0.3C10.4,11.7,10.4,11.8,10.5,11.9"/>
							<path style="fill:#3F7BA3;" d="M13.7,10.9c0,0,0.1,0.1,0,0.2c-0.3,0.2-0.7,0.4-1,0.5c-1.1,0.5-2,0.5-2.2,0.2
								c0.1-0.2,0.3-0.3,0.4-0.5c0.2,0.2,0.9,0.2,1.8-0.2c0.3-0.1,0.6-0.3,0.8-0.4C13.6,10.7,13.7,10.9,13.7,10.9"/>
						</g>
						<g>
							<path style="fill:#3F7BA3;" d="M9.7,13.1c-0.1-0.1-0.1-0.2-0.1-0.4C9.6,12.9,9.6,12.9,9.7,13.1L9.7,13.1"/>
							<path style="fill:#3F7BA3;" d="M12.2,12.8c0,0.2,0,0.4-1.4,0.6c-0.4,0-0.9,0-1.2-0.2c0,0,0,0,0,0c0.1-0.2,0.2-0.4,0.3-0.5
								c0.2,0.3,1,0.3,2.1,0C12.3,12.5,12.2,12.8,12.2,12.8"/>
						</g>
						<g>
							<path style="fill:#3F7BA3;" d="M9.1,14.4C9,14.3,9,14.1,9,13.9C9,14.1,9,14.3,9.1,14.4"/>
							<path style="fill:#3F7BA3;" d="M17.7,8.9c0.1,0,0.2,0,0.3,0.1c0.4,0.1,0.6,0.4,0.5,0.9c-0.3,1.2-2.7,3.1-5.3,4.2
								c-2,0.9-3.6,1-4,0.4c0.1-0.2,0.1-0.4,0.2-0.6c0.4,0.5,1.8,0.4,3.7-0.4c2.4-1,4.5-2.7,4.8-3.8c0.1-0.4,0-0.7-0.4-0.8
								C17.5,8.8,17.6,8.8,17.7,8.9"/>
						</g>
						<g>
							<polyline style="fill:#3F7BA3;" points="8.7,15.2 8.7,15.2 8.7,15.2 							"/>
							<path style="fill:#3F7BA3;" d="M9.3,15.8c0,0.1-0.1,0.2-0.1,0.2c-0.3-0.2-0.5-0.4-0.4-0.8c0,0.2,0,0.4,0.1,0.5
								c0-0.2,0.1-0.4,0.1-0.6c0.1,0.1,0.2,0.2,0.3,0.2C9.3,15.5,9.3,15.8,9.3,15.8"/>
						</g>
						<g>
							<path style="fill:#3F7BA3;" d="M8.7,16.8c0-0.1,0-0.1,0-0.2C8.7,16.7,8.7,16.8,8.7,16.8"/>
							<path style="fill:#3F7BA3;" d="M20.4,10l0.3,0.2c0.3,0.2,0.4,0.5,0.3,1c-0.4,1.6-3.5,4-6.9,5.4C10.9,18,8.5,18,8.7,16.6
								c0,0.2,0,0.4,0.1,0.6c0-0.2,0-0.4,0-0.6c2.1,2.3,11.6-3.6,11.7-6c0-0.4-0.2-0.6-0.4-0.7L20.4,10"/>
						</g>
						<g>
							<path style="fill:#3F7BA3;" d="M9,18.4C9,18.3,9,18.1,9,18C9,18.1,9,18.3,9,18.4"/>
							<path style="fill:#3F7BA3;" d="M21.9,11.4c0.2,0.2,0.2,0.5,0.1,0.9c-0.4,1.7-3.7,4.2-7.3,5.8C11.3,19.5,8.8,19.4,9,18
								c0,0.3,0,0.5,0.1,0.6C9.1,18.4,9,18.2,9,18c0.6,0.8,2.7,0.6,5.5-0.6c3.5-1.5,6.7-4,7.1-5.6c0.1-0.4,0-0.7-0.2-0.9
								C21.5,11,21.7,11.2,21.9,11.4"/>
						</g>
						<g>
							<path style="fill:#3F7BA3;" d="M21.1,15.5c0.1,0.2,0,0.3-0.1,0.4c-1.4,1.3-3.4,2.5-5.6,3.5c-3.2,1.4-5.6,1.4-5.8,0.3
								c0-0.1,0,0,0-0.1c0,0,0,0.2,0.1,0.4c0-0.1-0.1-0.1-0.1-0.2c0,0,0-0.1,0-0.1c-0.1-0.1-0.1-0.2-0.2-0.3
								c0.6,0.8,2.8,0.6,5.7-0.6c2.2-0.9,4.2-2.2,5.6-3.4C20.9,15.2,21,15.4,21.1,15.5"/>
						</g>
						<path style="fill:#3F7BA3;" d="M13.1,21.3c0,0.1,0.1,0.2-0.1,0.2c-1.1,0.2-2,0.1-2.3-0.3c-0.1-0.2-0.3-0.4-0.4-0.5
							c0.3,0.4,1.2,0.6,2.4,0.4C12.9,21,13,21.2,13.1,21.3"/>
						<path style="fill:#3F7BA3;" d="M16.5,21.4c0,0,0,0.2-0.2,0.3c-2.2,0.9-3.9,1-4.6,0.6c-0.2-0.1-0.4-0.3-0.5-0.4
							c0.7,0.6,2.5,0.4,4.8-0.5C16.4,21.2,16.5,21.4,16.5,21.4"/>
						<path style="fill:#3F7BA3;" d="M23.6,16.8c0,0.2,0,0.4-0.1,0.6c0,0,0,0.1,0,0.1c-0.4,1.4-3.1,3.5-6,4.7
							c-1.9,0.8-3.5,1.1-4.2,0.8c-0.2-0.1-0.4-0.2-0.6-0.3C15.2,23.8,23.2,19.4,23.6,16.8L23.6,16.8"/>
						<path style="fill:#3F7BA3;" d="M23,19c-1.1,2.3-6.2,4.8-8.2,4.5c-0.2,0-0.5-0.1-0.7-0.2c0.7,0.2,2.1,0,3.7-0.7
							c2.7-1.1,5.1-3,5.5-4.3C23.2,18.5,23.1,18.8,23,19"/>
						<path style="fill:#3F7BA3;" d="M21.4,21.3c0,0-0.1,0.1-0.2,0.2c-0.7,0.6-1.6,1.1-2.6,1.6c-0.8,0.4-1.6,0.5-2.1,0.6
							c-0.2,0-0.5,0-0.8,0c0.6,0,1.6-0.2,2.6-0.6C19.5,22.5,20.5,21.8,21.4,21.3c0-0.1,0-0.1,0-0.1C21.4,21.1,21.4,21.2,21.4,21.3
							C21.4,21.2,21.4,21.2,21.4,21.3"/>
						<path style="fill:#3F7BA3;" d="M10.5,11.9c0-0.1-0.1-0.2-0.1-0.3c0,0,0-0.1,0-0.1c0.1-0.1,0.3-0.3,0.4-0.4c0,0.1,0,0.2,0,0.3
							C10.8,11.5,10.6,11.7,10.5,11.9"/>
						<path style="fill:#3F7BA3;" d="M9.7,13.1c-0.1-0.1-0.1-0.2-0.1-0.4c0,0,0-0.1,0-0.1c0.1-0.2,0.2-0.3,0.3-0.5
							c0,0.2,0,0.3,0.1,0.4C9.9,12.7,9.8,12.9,9.7,13.1"/>
						<path style="fill:#3F7BA3;" d="M9.1,14.4C9,14.3,9,14.1,9,13.9c0,0,0-0.1,0-0.1c0.1-0.2,0.1-0.4,0.2-0.5
							c-0.1,0.2,0,0.4,0.1,0.6C9.3,14,9.2,14.2,9.1,14.4"/>
						<path style="fill:#3F7BA3;" d="M8.9,15.8c-0.1-0.1-0.1-0.3-0.1-0.5l0.1-0.4l0.1-0.3c-0.1,0.3,0,0.5,0.1,0.6
							C8.9,15.4,8.9,15.6,8.9,15.8"/>
						<path style="fill:#3F7BA3;" d="M8.8,17.2c-0.1-0.1-0.1-0.2-0.1-0.4c0-0.2,0-0.5,0-0.7c0,0.2,0,0.3,0.1,0.4
							C8.8,16.8,8.8,17,8.8,17.2"/>
						<path style="fill:#3F7BA3;" d="M9.1,18.6c0-0.1-0.1-0.1-0.1-0.2c-0.1-0.2-0.1-0.5-0.2-0.7c0,0.1,0.1,0.2,0.1,0.3
							C9,18.2,9.1,18.4,9.1,18.6"/>
						<path style="fill:#3F7BA3;" d="M10.4,11.5c0,0,0-0.1,0-0.1c0-0.1,0.1-0.2,0.2-0.4c0.1-0.1,0.2-0.2,0.4-0.3
							c-0.1,0.1-0.2,0.3-0.2,0.4C10.7,11.2,10.6,11.4,10.4,11.5"/>
						<path style="fill:#3F7BA3;" d="M9.6,12.6c0-0.1,0-0.1,0.1-0.2c0-0.1,0.1-0.2,0.1-0.3c0.1-0.2,0.2-0.4,0.3-0.5l0.1-0.1
							c-0.1,0.2-0.3,0.4-0.3,0.6C9.8,12.3,9.7,12.4,9.6,12.6"/>
						<path style="fill:#3F7BA3;" d="M9.1,13.8c0,0,0-0.1,0-0.1c0.1-0.2,0.2-0.5,0.3-0.7c0,0.1-0.1,0.2-0.1,0.3
							C9.2,13.4,9.1,13.6,9.1,13.8"/>
					</g>
				</g>
			</g>
		</g>
		<g>
			<path style="fill:#3F7BA3;" d="M22.7,13.5c-0.1,0-0.2,0-0.3-0.1c-0.1-0.1-0.1-0.3,0-0.4c0-0.1,0.1-0.3,0.1-0.3
				c0-0.2,0.2-0.3,0.4-0.3c0.2,0,0.3,0.2,0.3,0.4c-0.1,0.5-0.2,0.6-0.2,0.6C22.9,13.5,22.8,13.5,22.7,13.5z"/>
		</g>
	</g>
	<g>
		<g>
			<circle style="fill:#3F7BA3;" cx="3" cy="16.1" r="0.5"/>
			<circle style="fill:#3F7BA3;" cx="29.2" cy="16.1" r="0.5"/>
		</g>
		<g>
			
				<ellipse transform="matrix(0.9659 -0.2588 0.2588 0.9659 -4.9356 1.5605)" style="fill:#3F7BA3;" cx="3.5" cy="19.5" rx="0.5" ry="0.5"/>
			
				<ellipse transform="matrix(0.9659 -0.2588 0.2588 0.9659 -2.315 7.8873)" style="fill:#3F7BA3;" cx="28.8" cy="12.7" rx="0.5" ry="0.5"/>
		</g>
		<g>
			
				<ellipse transform="matrix(0.866 -0.5 0.5 0.866 -10.7053 5.4242)" style="fill:#3F7BA3;" cx="4.8" cy="22.7" rx="0.5" ry="0.5"/>
			<ellipse transform="matrix(0.866 -0.5 0.5 0.866 -1.1035 15.026)" style="fill:#3F7BA3;" cx="27.5" cy="9.6" rx="0.5" ry="0.5"/>
		</g>
		<g>
			
				<ellipse transform="matrix(0.7071 -0.7071 0.7071 0.7071 -15.9567 12.2871)" style="fill:#3F7BA3;" cx="6.9" cy="25.4" rx="0.5" ry="0.5"/>
			
				<ellipse transform="matrix(0.7071 -0.7071 0.7071 0.7071 2.5925 19.9705)" style="fill:#3F7BA3;" cx="25.4" cy="6.9" rx="0.5" ry="0.5"/>
		</g>
		<g>
			
				<ellipse transform="matrix(0.5 -0.866 0.866 0.5 -19.0216 22.0326)" style="fill:#3F7BA3;" cx="9.6" cy="27.5" rx="0.5" ry="0.5"/>
			<ellipse transform="matrix(0.5 -0.866 0.866 0.5 7.211 22.0326)" style="fill:#3F7BA3;" cx="22.7" cy="4.8" rx="0.5" ry="0.5"/>
		</g>
		<g>
			
				<ellipse transform="matrix(0.2588 -0.9659 0.9659 0.2588 -18.3807 33.6454)" style="fill:#3F7BA3;" cx="12.7" cy="28.8" rx="0.5" ry="0.5"/>
			
				<ellipse transform="matrix(0.2588 -0.9659 0.9659 0.2588 11.1269 21.4229)" style="fill:#3F7BA3;" cx="19.5" cy="3.5" rx="0.5" ry="0.5"/>
		</g>
		<g>
			<circle style="fill:#3F7BA3;" cx="16.1" cy="29.2" r="0.5"/>
			<circle style="fill:#3F7BA3;" cx="16.1" cy="3" r="0.5"/>
		</g>
		<g>
			
				<ellipse transform="matrix(0.9659 -0.2588 0.2588 0.9659 -6.7887 6.0342)" style="fill:#3F7BA3;" cx="19.5" cy="28.8" rx="0.5" ry="0.5"/>
			
				<ellipse transform="matrix(0.9659 -0.2588 0.2588 0.9659 -0.4619 3.4136)" style="fill:#3F7BA3;" cx="12.7" cy="3.5" rx="0.5" ry="0.5"/>
		</g>
		<g>
			
				<ellipse transform="matrix(0.866 -0.5 0.5 0.866 -10.7053 15.026)" style="fill:#3F7BA3;" cx="22.7" cy="27.5" rx="0.5" ry="0.5"/>
			<ellipse transform="matrix(0.866 -0.5 0.5 0.866 -1.1035 5.4242)" style="fill:#3F7BA3;" cx="9.6" cy="4.8" rx="0.5" ry="0.5"/>
		</g>
		<g>
			
				<ellipse transform="matrix(0.7071 -0.7071 0.7071 0.7071 -10.5238 25.4034)" style="fill:#3F7BA3;" cx="25.4" cy="25.4" rx="0.5" ry="0.5"/>
			
				<ellipse transform="matrix(0.7071 -0.7071 0.7071 0.7071 -2.8404 6.8542)" style="fill:#3F7BA3;" cx="6.9" cy="6.9" rx="0.5" ry="0.5"/>
		</g>
		<g>
			
				<ellipse transform="matrix(0.5 -0.866 0.866 0.5 -5.9053 35.1489)" style="fill:#3F7BA3;" cx="27.5" cy="22.7" rx="0.5" ry="0.5"/>
			<ellipse transform="matrix(0.5 -0.866 0.866 0.5 -5.9053 8.9163)" style="fill:#3F7BA3;" cx="4.8" cy="9.6" rx="0.5" ry="0.5"/>
		</g>
		<g>
			
				<ellipse transform="matrix(0.2588 -0.9659 0.9659 0.2588 2.4843 42.2879)" style="fill:#3F7BA3;" cx="28.8" cy="19.5" rx="0.5" ry="0.5"/>
			
				<ellipse transform="matrix(0.2588 -0.9659 0.9659 0.2588 -9.7381 12.7804)" style="fill:#3F7BA3;" cx="3.5" cy="12.7" rx="0.5" ry="0.5"/>
		</g>
	</g>
</g>
</svg>
