<?xml version="1.0" encoding="utf-8"?>
<!-- Generator: Adobe Illustrator 19.2.0, SVG Export Plug-In . SVG Version: 6.00 Build 0)  -->
<svg version="1.1" id="Layer_1" xmlns="http://www.w3.org/2000/svg" xmlns:xlink="http://www.w3.org/1999/xlink" x="0px" y="0px"
	 viewBox="0 0 119.5 97.5" style="enable-background:new 0 0 119.5 97.5;" xml:space="preserve">
<g>
	<path style="fill:#656665;" d="M32.1,70.9c0-6.8,5.1-11.4,11.6-11.4c3.9,0,6.5,1.8,8.2,4c0.4,0.5,0.2,1.2-0.4,1.5L50,65.7
		c-0.4,0.2-0.9,0.1-1.2-0.3c-1.2-1.5-3-2.5-5.1-2.5c-4.4,0-7.6,3.4-7.6,8c0,4.6,3.3,8,7.6,8c2.1,0,4-1,5.1-2.5
		c0.3-0.4,0.8-0.5,1.2-0.3l1.5,0.8c0.6,0.3,0.7,1,0.3,1.5c-1.7,2.2-4.3,4-8.2,4C37.1,82.3,32.1,77.7,32.1,70.9z"/>
	<path style="fill:#656665;" d="M71.1,70.9c0-5.3,3-9.5,7.6-10.9c0.2-0.1,0.4-0.1,0.7-0.2c1-0.2,2-0.4,3-0.4
		c6.6,0,11.3,4.8,11.3,11.4s-4.7,11.4-11.3,11.4C75.8,82.3,71.1,77.5,71.1,70.9z M89.8,70.9c0-4.6-2.9-8-7.3-8c-4.5,0-7.3,3.4-7.3,8
		c0,4.5,2.9,8,7.3,8C86.9,78.9,89.8,75.4,89.8,70.9z"/>
	<path style="fill:#656665;" d="M23.7,59.8h-3.5c-0.4,0-0.8,0.3-0.9,0.6l-7.9,20.1c-0.3,0.7,0.2,1.4,0.9,1.4h2.3
		c0.4,0,0.8-0.3,0.9-0.6l1.4-3.6l1.1-3.4l1.1-3l2.8-7.5l4,10.5h-4c-0.4,0-0.8,0.3-1,0.7L20.3,77c-0.1,0.3,0.1,0.7,0.5,0.7H27
		l1.4,3.6c0.1,0.4,0.5,0.6,0.9,0.6h2.3c0.7,0,1.2-0.7,0.9-1.4l-7.9-20.1C24.4,60.1,24.1,59.8,23.7,59.8z"/>
	<path style="fill:#656665;" d="M11.2,69H3.9v-5.7h10.3c0.4,0,0.8-0.3,0.9-0.6l0.6-1.4c0.3-0.7-0.2-1.4-0.9-1.4H1c-0.6,0-1,0.4-1,1
		v20.1c0,0.6,0.4,1,1,1h1.9c0.6,0,1-0.4,1-1v-8.6h6.8c0.4,0,0.8-0.3,0.9-0.6l0.6-1.4C12.4,69.7,11.9,69,11.2,69z"/>
	<path style="fill:#656665;" d="M54.2,59.8c-0.8,0-1.3,1-0.8,1.6l0.9,1.4c0.2,0.3,0.5,0.4,0.8,0.4h5.6v18.7h3.9V63.2h5.6
		c0.3,0,0.6-0.2,0.8-0.4c0.3-0.5,0.6-0.9,1-1.3c0.6-0.6,0.1-1.7-0.7-1.7L54.2,59.8z"/>
	<g>
		<path style="fill:#656665;" d="M113.7,60.4l-4.5,10.8c-0.1,0.2-0.1,0.5,0,0.8l1.4,3.3c0.2,0.4,0.8,0.4,0.9,0l4.1-9.8v15.4
			c0,0.6,0.4,1,1,1h1.9c0.6,0,1-0.4,1-1V60.8c0-0.6-0.4-1-1-1h-3.8C114.2,59.8,113.9,60,113.7,60.4z"/>
		<path style="fill:#656665;" d="M108.5,79.2c0.7,0,1.2-0.7,0.9-1.4l-1.5-3.5l0,0l-5.7-13.9c-0.2-0.4-0.5-0.6-0.9-0.6h-3.8
			c-0.6,0-1,0.4-1,1v20.1c0,0.6,0.4,1,1,1h1.9c0.6,0,1-0.4,1-1V65.5l5.4,13.1c0.2,0.4,0.5,0.6,0.9,0.6H108.5z"/>
	</g>
</g>
<g>
	<path style="fill:#939598;" d="M17.6,88.4h-4.9v3.2h4.8c0.3,0,0.5,0.2,0.5,0.6c0,0.3-0.2,0.5-0.5,0.5h-4.8v4c0,0.3-0.3,0.6-0.6,0.6
		c-0.3,0-0.6-0.3-0.6-0.6v-8.6c0-0.5,0.4-0.9,0.9-0.9h5.2c0.3,0,0.5,0.2,0.5,0.6C18.1,88.2,17.9,88.4,17.6,88.4z"/>
	<path style="fill:#939598;" d="M24.8,97.5c-3,0-5-2.2-5-5.2c0-3,2-5.2,5-5.2c3,0,5,2.2,5,5.2C29.7,95.3,27.7,97.5,24.8,97.5z
		 M24.8,88.3c-2.3,0-3.7,1.7-3.7,4.1c0,2.3,1.4,4.1,3.7,4.1c2.2,0,3.7-1.7,3.7-4.1C28.5,90,27,88.3,24.8,88.3z"/>
	<path style="fill:#939598;" d="M36.3,97.5c-2.7,0-4.1-1.6-4.1-4.1v-5.6c0-0.3,0.3-0.6,0.6-0.6c0.3,0,0.6,0.3,0.6,0.6v5.6
		c0,1.8,1,3,2.8,3c1.8,0,2.8-1.2,2.8-3v-5.6c0-0.3,0.3-0.6,0.6-0.6c0.3,0,0.6,0.3,0.6,0.6v5.6C40.4,95.9,39,97.5,36.3,97.5z"/>
	<path style="fill:#939598;" d="M50.7,97.4c-0.2,0-0.5-0.1-0.6-0.3l-5.7-7.8v7.5c0,0.3-0.3,0.6-0.6,0.6c-0.3,0-0.6-0.3-0.6-0.6V88
		c0-0.4,0.3-0.8,0.8-0.8c0.3,0,0.5,0.1,0.7,0.3l5.6,7.6v-7.3c0-0.3,0.3-0.6,0.6-0.6c0.3,0,0.6,0.3,0.6,0.6v8.9
		C51.5,97.1,51.2,97.4,50.7,97.4z"/>
	<path style="fill:#939598;" d="M57.7,97.3h-2.5c-0.5,0-0.9-0.4-0.9-0.9v-8.2c0-0.5,0.4-0.9,0.9-0.9h2.5c3.1,0,5.1,2.2,5.1,5
		C62.9,95.2,60.8,97.3,57.7,97.3z M57.7,88.4h-2.2v7.8h2.2c2.4,0,3.8-1.7,3.8-3.9C61.6,90.2,60.2,88.4,57.7,88.4z"/>
	<path style="fill:#939598;" d="M72.3,97.4c-0.3,0-0.5-0.1-0.6-0.4L71,95.1h-5L65.3,97c-0.1,0.3-0.3,0.4-0.6,0.4
		c-0.4,0-0.7-0.3-0.7-0.7c0-0.1,0-0.2,0-0.2l3.5-8.6c0.2-0.4,0.6-0.7,1-0.7c0.4,0,0.8,0.3,1,0.7l3.5,8.6c0,0.1,0,0.2,0,0.2
		C73,97,72.8,97.4,72.3,97.4z M68.5,88.6L66.4,94h4.2L68.5,88.6z"/>
	<path style="fill:#939598;" d="M80.6,88.4h-2.7v8.4c0,0.3-0.3,0.6-0.6,0.6c-0.3,0-0.6-0.3-0.6-0.6v-8.4h-2.7
		c-0.3,0-0.5-0.2-0.5-0.6c0-0.3,0.2-0.5,0.5-0.5h6.7c0.3,0,0.5,0.2,0.5,0.6C81.1,88.2,80.9,88.4,80.6,88.4z"/>
	<path style="fill:#939598;" d="M83.8,97.4c-0.3,0-0.6-0.3-0.6-0.6v-9c0-0.3,0.3-0.6,0.6-0.6c0.3,0,0.6,0.3,0.6,0.6v9
		C84.4,97.1,84.1,97.4,83.8,97.4z"/>
	<path style="fill:#939598;" d="M91.8,97.5c-3,0-5-2.2-5-5.2c0-3,2-5.2,5-5.2c3,0,5,2.2,5,5.2C96.8,95.3,94.7,97.5,91.8,97.5z
		 M91.8,88.3c-2.3,0-3.7,1.7-3.7,4.1c0,2.3,1.4,4.1,3.7,4.1c2.2,0,3.7-1.7,3.7-4.1C95.5,90,94,88.3,91.8,88.3z"/>
	<path style="fill:#939598;" d="M106.7,97.4c-0.2,0-0.5-0.1-0.6-0.3l-5.7-7.8v7.5c0,0.3-0.3,0.6-0.6,0.6c-0.3,0-0.6-0.3-0.6-0.6V88
		c0-0.4,0.3-0.8,0.8-0.8c0.3,0,0.5,0.1,0.7,0.3l5.6,7.6v-7.3c0-0.3,0.3-0.6,0.6-0.6c0.3,0,0.6,0.3,0.6,0.6v8.9
		C107.5,97.1,107.2,97.4,106.7,97.4z"/>
</g>
<g>
	<g>
		<path style="fill:#407BA4;" d="M77.8,36.6c-0.4-0.3-1-0.2-1.3,0.2c-1.8,2.6-4.1,4.7-6.8,6.3c-3.2,1.8-6.7,2.8-10.4,2.8
			c0,0-0.1,0-0.1,0c-6.7,0-13-3.2-16.9-8.5c0,0,0,0-0.1,0c0-0.1-0.1-0.1-0.1-0.1c0,0-0.1-0.1-0.1-0.1c-0.1,0-0.1,0-0.2-0.1
			c-0.1,0-0.1,0-0.2,0c0,0,0,0-0.1,0c0,0-0.1,0-0.1,0c-0.1,0-0.1,0-0.2,0c-0.1,0-0.1,0-0.2,0.1c0,0-0.1,0-0.1,0c0,0,0,0,0,0.1
			c-0.1,0-0.1,0.1-0.1,0.1c0,0-0.1,0.1-0.1,0.1c0,0.1,0,0.1-0.1,0.2c0,0.1,0,0.1,0,0.2c0,0,0,0,0,0.1v3.8c0,0.5,0.4,1,1,1
			c0.5,0,1-0.4,1-1v-1.1c4.3,4.6,10.4,7.2,16.8,7.2c0,0,0.1,0,0.1,0c4,0,7.9-1.1,11.3-3.1c3-1.7,5.5-4,7.4-6.9
			C78.3,37.5,78.2,36.9,77.8,36.6z"/>
		<path style="fill:#D37D41;" d="M58.2,3C58.2,3,58.2,2.9,58.2,3c0-0.1,0-0.1,0-0.2c0-0.1,0-0.1-0.1-0.2c0-0.1,0-0.1-0.1-0.2
			c0,0-0.1-0.1-0.1-0.1c0-0.1-0.1-0.1-0.2-0.1c0,0,0,0-0.1-0.1l-3.5-2c-0.5-0.3-1-0.1-1.3,0.4c-0.3,0.5-0.1,1,0.4,1.3l1.1,0.6
			C52,2.9,49.8,3.8,47.6,5c-3.4,2-6.3,4.9-8.3,8.3c-3.9,6.7-4.2,14.8-0.8,21.8c0.2,0.3,0.5,0.5,0.9,0.5c0.1,0,0.3,0,0.4-0.1
			c0.5-0.2,0.7-0.8,0.4-1.3c-3.1-6.4-2.9-13.8,0.7-20c1.8-3.1,4.5-5.8,7.6-7.6c2.7-1.6,5.7-2.5,8.8-2.7c0,0,0,0,0,0
			c0.1,0,0.2,0,0.3-0.1c0,0,0,0,0,0c0.1-0.1,0.2-0.1,0.3-0.2c0,0,0,0,0.1-0.1c0,0,0.1-0.1,0.1-0.1c0,0,0-0.1,0-0.1
			c0-0.1,0-0.1,0.1-0.2C58.2,3.1,58.2,3.1,58.2,3z"/>
		<path style="fill:#E9B520;" d="M83.2,31.8c-0.3-0.5-0.9-0.6-1.3-0.4l-0.9,0.5c2-6.1,1.3-12.9-2-18.5C75.2,7,68.6,2.7,61.1,2
			c-0.5,0-1,0.3-1,0.9s0.3,1,0.9,1c6.8,0.6,12.9,4.5,16.4,10.4c3.4,5.9,3.7,13.2,0.9,19.4c0,0,0,0.1,0,0.1c0,0.1,0,0.1,0,0.2
			c0,0.1,0,0.1,0,0.2c0,0.1,0,0.1,0,0.2c0,0.1,0,0.1,0.1,0.2c0,0,0,0.1,0,0.1c0,0,0.1,0.1,0.1,0.1c0,0,0,0,0,0.1
			c0.1,0.1,0.2,0.1,0.3,0.2c0,0,0,0,0,0c0,0,0.1,0,0.1,0c0,0,0,0,0.1,0c0.1,0,0.2,0,0.2,0c0,0,0,0,0,0c0.1,0,0.2,0,0.2,0
			c0,0,0.1,0,0.1,0c0,0,0.1,0,0.1-0.1l3.3-1.9C83.3,32.8,83.5,32.2,83.2,31.8z"/>
	</g>
	<g>
		<g style="enable-background:new    ;">
			<g>
				<g>
					<path style="fill:#656665;" d="M55.1,39.5c-0.4,0.6-0.8,1.1-1,1.6C54.3,40.6,54.7,40.1,55.1,39.5"/>
				</g>
			</g>
		</g>
		<path style="fill:#656665;" d="M57.7,6c0.5,0,1.1,0,1.6-0.1c1.7,0,2.6,0.7,2.2,2c-0.4,1.6-2.6,3.7-5.5,5.7c-0.5,0.3-1.1-0.5-1-0.8
			c0,0,0.1-0.1,0.1-0.1c2.5-1.7,4.4-3.6,4.8-4.9c0.3-1.3-0.7-1.9-2.6-1.7L57.7,6"/>
		<path style="fill:#656665;" d="M67.5,7.8c1,0.5,1.4,1.3,1.1,2.5c-1,3.6-8.1,9.3-15.9,12.6c-1.5,0.6-2.9,1.1-4.2,1.5
			c-0.7,0.1-0.8-0.9-0.5-1.3c0.1-0.1,0.2-0.2,0.3-0.2c1.2-0.4,2.5-0.8,3.9-1.4c7.4-3.1,14.1-8.4,15-11.9c0.3-1.2-0.1-2.1-1.2-2.5
			C66.3,7.3,67,7.6,67.5,7.8"/>
		<path style="fill:#656665;" d="M75.9,15.9l0.2,0.4c0.2,0.6,0.2,0.6,0.2,1c0,0,0,0.1,0,0.1c-0.2-0.1-0.7-1.1-0.8-1.5
			c0-0.4-0.1-0.8-0.3-1.2L75.9,15.9"/>
		<path style="fill:#656665;" d="M77.7,20.2c0.1,0.4,0.1,0.9-0.1,1.5c-1,3.6-7.1,8.8-14.4,12.7c-0.8,0.3-1.3-0.3-1.1-0.8
			c0.1-0.3,0.3-0.4,0.4-0.5c7.5-3.9,13.7-9.3,14.7-12.9c0.2-0.7,0.2-1.2,0-1.7C77.3,19.1,77.5,19.7,77.7,20.2"/>
		<path style="fill:#656665;" d="M78.2,23.7l0,0.6c0,0.3,0,0.6-0.1,0.9c-0.6,2.2-3.2,5.1-6.9,7.8c-0.6,0.4-0.9-0.2-0.8-0.6
			c0.1-0.3,0.3-0.5,0.4-0.6c3.8-2.8,6.6-5.8,7.2-8.1c0.1-0.4,0.1-0.8,0.1-1.2L78.2,23.7"/>
		<path style="fill:#656665;" d="M51.2,38.3c-0.1-0.1-0.5-0.7-1.1-0.6c-3.1,0.5-5.3,0.2-6.2-0.9c0,0,0,0,0-0.1c0,0,0,0,0,0
			c0.2,0.2,0.4,0.4,0.6,0.7c0.2,0.2,0.4,0.5,0.6,0.7c0.9,1,3.1,1.3,6,0.8C51.4,38.8,51.3,38.5,51.2,38.3z"/>
		<path style="fill:#656665;" d="M60.2,38.7c0,0.1,0.1,0.4-0.4,0.7c-5.6,2.2-10,2.7-11.8,1.4c-0.4-0.3-1-0.7-1.4-1.1
			c1.7,1.4,6.4,1,12.3-1.4C59.9,38.1,60.1,38.7,60.2,38.7"/>
		<path style="fill:#656665;" d="M78.2,26.9c-0.1,0.4-0.1,1.1-0.2,1.5c0,0.1,0,0.2-0.1,0.3c-0.9,3.5-7.9,9-15.4,12.2
			c-4.9,2.1-8.9,2.7-10.9,1.9c-0.5-0.2-1.1-0.5-1.6-0.8c6.7,2.8,27.2-8.5,28.2-15.4L78.2,26.9"/>
		<path style="fill:#656665;" d="M76.8,32.4C74,38.3,60.8,44.8,55.6,44c-0.5-0.1-1.3-0.3-1.8-0.4c1.9,0.5,5.4-0.1,9.6-1.9
			c6.8-2.9,13.1-7.8,14-11C77.3,31.2,77.1,31.9,76.8,32.4"/>
		<path style="fill:#656665;" d="M72.6,38.3c0,0.1-0.2,0.3-0.5,0.5c-1.8,1.5-4.2,2.9-6.8,4c-2.1,0.9-4,1.4-5.4,1.5c-0.6,0-1.4,0-2,0
			c1.6,0.1,4-0.5,6.8-1.6c2.9-1.2,5.6-2.9,7.7-4.5c0,0,0.1-0.1,0.2-0.1c0,0,0,0.1,0,0.1C72.7,38.1,72.7,38.2,72.6,38.3"/>
		<path style="fill:#656665;" d="M41.3,23.2c-0.3-0.1-0.5-0.3-0.7-0.6c-0.2-0.3-0.3-0.7-0.3-1.2c0-0.2,0.1-0.4,0.1-0.5
			c0,0.1,0,0.1,0,0.2l-0.1,0.7l-0.2,1l0,0c0,0.1,0,0.3,0,0.4c0,0.1,0,0.1,0,0.2c0,0,0,0.1,0,0.1c0,0.1,0.1,0.3,0.1,0.4
			c0,0,0,0,0,0.1c0,0,0,0.1,0,0.1c0,0.1,0.1,0.1,0.1,0.2c0,0,0,0,0,0c0.2,0.3,0.4,0.5,0.7,0.6c0.2,0,0.3-0.3,0.3-0.5
			C41.4,24.3,41.5,23.4,41.3,23.2z"/>
		<path style="fill:#656665;" d="M70.9,10l-0.8-0.6L69.5,9c0.3,0.3,1,0.7,0.9,1.8c-0.3,6.3-24.7,21.3-30.2,15.5
			c-0.2-0.3-0.4-0.7-0.4-1.2c0,0.5,0,1.1,0.1,1.6c0,0,0,0,0,0c0,0,0,0.1,0,0.1c0,0,0,0,0,0c0,0,0,0.1,0,0.1c0,0,0,0,0,0
			c0,0.1,0,0.1,0,0.1c0,0,0-0.1,0-0.1c0,0.1,0,0.2,0.1,0.3c0,0,0,0.1,0,0.1c0,0,0,0,0,0.1c0,0,0,0,0,0c0,0.1,0.1,0.1,0.1,0.2
			c0,0-0.1-0.1-0.1-0.1c0.1,0.1,0.1,0.3,0.2,0.4c0,0,0,0,0,0c1.4,1.9,6.7,1.5,13.5-1.4c8.7-3.7,16.6-9.9,17.7-14
			C71.9,11.4,71.6,10.5,70.9,10z"/>
		<path style="fill:#656665;" d="M73.9,12.8c-0.3-0.4-0.8-0.9-1.2-1.3c0.6,0.6,0.7,1.4,0.5,2.4c-1.1,4.2-9.4,10.7-18.4,14.5
			c-7.1,3-12.6,3.5-14.1,1.5c0,0,0,0,0,0c-0.2-0.2-0.3-0.5-0.3-0.7c0.1,0.5,0.3,1.2,0.5,1.7c0.1,0.3,0.1,0.4,0.3,0.5l0,0
			c0,0,0,0,0,0l0,0l0,0c0,0,0,0,0,0l0,0c0,0,0,0,0,0c1.5,2,7.1,1.5,14.3-1.5c9.2-3.9,17.6-10.5,18.8-14.8
			C74.5,14.2,74.3,13.4,73.9,12.8z"/>
		<path style="fill:#656665;" d="M54.1,6.6c-0.3,0.1-0.4,0.1-0.6,0.2c-0.3,0.1-0.3,0.1-0.6,0.2c-0.3,0.1-0.4,0.2-0.6,0.2
			c-0.2,0.1-0.3,0.1-0.6,0.3c-0.2,0.1-0.3,0.1-0.5,0.2c-0.2,0.1-0.3,0.1-0.5,0.2C50.5,8,50.4,8,50.2,8.1C50,8.2,50,8.2,49.8,8.3
			c-0.2,0.1-0.2,0.1-0.4,0.2c-0.2,0.1-0.2,0.1-0.4,0.3c-0.2,0.1-0.3,0.2-0.4,0.3c-0.2,0.1-0.2,0.2-0.4,0.3c-0.2,0.1-0.3,0.2-0.4,0.3
			c-0.2,0.1-0.3,0.2-0.4,0.3c-0.2,0.2-0.3,0.2-0.5,0.4c-0.2,0.2-0.3,0.2-0.5,0.4c-0.4,0.4-0.8,0.8-1.1,1.1c-0.3,0.3-0.5,0.6-0.6,0.9
			c0,0.1-0.1,0.2-0.1,0.3c0,0.1,0,0.1,0,0.2c0,0.3,0,0.5,0.1,0.7c0.6,0.8,2.8,0.6,5.7-0.6c0.9-0.4,1.8-0.8,2.6-1.3
			c0.2-0.2,0.1-0.4,0-0.5c-0.1-0.1-0.4-0.4-0.6-0.3c-0.7,0.4-1.4,0.8-2.1,1.1c-2.3,1-4.1,1.1-4.5,0.5c-0.1-0.2-0.2-0.4-0.1-0.7
			c0.1-0.3,0.3-0.6,0.6-1c0.4-0.4,0.9-0.9,1.5-1.4c1.3-0.9,2.8-1.8,4.3-2.4c0.3-0.1,0.5-0.2,0.7-0.3c2.3-0.7,3.8-0.5,3.5,0.6
			c-0.1,0.4-0.3,0.8-0.7,1.2c0.2,0.2,1.1,0.4,1.4,0.2c0.5-0.5,0.8-1.1,0.9-1.5C58.1,6.3,56.5,5.9,54.1,6.6z"/>
		<path style="fill:#656665;" d="M48.7,15.7c-2.8,0.9-4.8,0.9-5.4,0.1c-0.2-0.3-0.3-0.6-0.1-1.1c0.1-0.4,0.2-0.6,0.4-0.9
			c0.1-0.2,0.3-0.4,0.5-0.7l0,0l-0.3,0.3c-0.1,0.2-0.3,0.4-0.5,0.7c-0.2,0.2-0.3,0.4-0.4,0.6c-0.1,0.2-0.3,0.5-0.4,0.7
			c-0.1,0.2-0.1,0.3-0.2,0.5c0,0.1,0,0.2-0.1,0.3c0,0.2,0,0.4,0,0.5c0,0,0,0,0,0c0,0.1,0.1,0.3,0.2,0.4c0,0,0,0,0,0
			c0.6,0.7,2,0.8,3,0.6c3.5-0.4,3.6-1,3.6-1.4C49.1,16.4,49.1,15.7,48.7,15.7z"/>
		<path style="fill:#656665;" d="M63.9,6.5c-0.2-0.1-0.4-0.1-0.7-0.2c-0.5-0.1-0.5-0.1-0.6-0.1c0.9,0.3,1.3,1,1,2
			c-0.8,2.8-6.3,7.2-12.4,9.8c-4.8,2-8.5,2.3-9.5,1c-0.3-0.4-0.3-0.8-0.2-1.4c0.1-0.2,0.1-0.4,0.2-0.6c-0.2,0.5-0.5,1.2-0.7,1.7
			c0,0.1-0.1,0.2-0.1,0.3c0,0.1-0.1,0.3-0.1,0.4c-0.1,0.5,0,0.9,0.3,1.2c1.1,1.5,5.1,1.1,10.4-1.1c6.7-2.8,12.8-7.6,13.6-10.7
			C65.4,7.7,65,6.9,63.9,6.5z"/>
		<path style="fill:#656665;" d="M42.6,34.9c0,0-0.1-0.1-0.3-0.6c0,0,0,0,0,0c0,0,0,0,0-0.1c-0.1-0.3-0.3-0.5-0.4-0.8
			c1.5,2.1,7.2,1.6,14.6-1.5c5.5-2.3,10.8-5.7,14.4-8.9c0.6-0.3,0.9,0.2,1,0.4c0.2,0.5,0,0.8-0.2,1c-3.6,3.2-8.9,6.5-14.4,8.9
			c-6.9,2.9-12.3,3.5-14.2,1.9C43,35.3,42.7,35,42.6,34.9"/>
		<path style="fill:#656665;" d="M42.6,34.9"/>
	</g>
</g>
</svg>
