<?xml version="1.0" encoding="utf-8"?>
<!-- Generator: Adobe Illustrator 19.2.0, SVG Export Plug-In . SVG Version: 6.00 Build 0)  -->
<svg version="1.1" id="Layer_1" xmlns="http://www.w3.org/2000/svg" xmlns:xlink="http://www.w3.org/1999/xlink" x="0px" y="0px"
	 viewBox="0 0 57.6 57.6" style="enable-background:new 0 0 57.6 57.6;" xml:space="preserve">
<g>
	<path style="fill:#417BA4;" d="M8.9,36H15c-0.5-0.4-0.9-0.8-1.4-1.2c-2.2-2.2-3.6-4.9-4.2-7.8H8.9v-4.5H4.5V27H0v4.5h8.9V36z
		 M0.4,37.8v19.8H20V38.7c-0.8-0.2-1.5-0.5-2.2-0.9H0.4z M15.7,53.2H4.8v-11h10.9V53.2z M13.6,44.3H6.9v6.8h6.7V44.3z M35.7,11.9
		V4.5h-4.5V0h-4.5v4.5h-4.5v3.3C27,7,32,8.4,35.7,11.9z M12.7,13.3c0.3-0.4,0.6-0.7,0.9-1V6.5H6.9v6.8H12.7z M11.2,15.4H4.8v-11
		h10.9v6.1c1.4-1,2.8-1.7,4.4-2.2V0H0.4v19.8h9C9.8,18.3,10.4,16.8,11.2,15.4z M44.7,36v1.3l3.1,3.1l0.1,0.1h1.3V36H44.7z M51.1,6.5
		h-6.7v6.8h6.7V6.5z M38,0v14.6c1.1,1.6,1.8,3.4,2.3,5.2h17.4V0H38z M53.2,15.4H42.3v-11h10.9L53.2,15.4L53.2,15.4z M49.1,45h-0.4
		c-0.2,0.6-0.5,1.1-1,1.6c-1.7,1.7-4.5,1.7-6.2,0l-1.4-1.4v4.3h-8.9v-9h4.3l-3-3.1c-1.8,1-3.7,1.6-5.7,1.9V54h26.8V40.5h-4.5
		C49.1,40.5,49.1,45,49.1,45z M49.1,27h-4.5v-4.5h-4c0.2,3-0.5,6-1.9,8.7l0.3,0.3h14.7v-9h-4.5L49.1,27L49.1,27z M40,45l-4.3-4.3V45
		H40z M42.8,44.9c0.9,0.9,2.3,0.9,3.2,0s0.9-2.4,0-3.3L35.6,31.1c3.6-5.2,3.1-12.4-1.5-17c-5.1-5.2-13.5-5.2-18.6,0
		s-5.1,13.6,0,18.8c4.6,4.6,11.7,5.1,16.9,1.5L42.8,44.9z M18.8,29.6c-3.4-3.4-3.4-8.9,0-12.2c3.4-3.4,8.8-3.4,12.2,0
		s3.4,8.9,0,12.2C27.6,33,22.1,33,18.8,29.6z"/>
</g>
</svg>
