<?xml version="1.0" encoding="utf-8"?>
<!-- Generator: Adobe Illustrator 19.2.0, SVG Export Plug-In . SVG Version: 6.00 Build 0)  -->
<svg version="1.1" id="Layer_1" xmlns="http://www.w3.org/2000/svg" xmlns:xlink="http://www.w3.org/1999/xlink" x="0px" y="0px"
	 viewBox="0 0 42.8 30.1" style="enable-background:new 0 0 42.8 30.1;" xml:space="preserve">
<g>
	<g>
		<path style="fill:#407BA4;" d="M38,30.1H5.5c-1.5,0-2.8-1.3-2.8-2.8v-2.1H2.1C1,25.1,0,24.2,0,23s1-2.1,2.1-2.1h0.5v-3.6H2.1
			c-1.2,0-2.1-1-2.1-2.1S1,13,2.1,13h0.5V9.4H2.1C1,9.4,0,8.4,0,7.2s1-2.1,2.1-2.1h0.5V3c0-1.5,1.3-2.8,2.8-2.8h29.9
			c0.3,0,0.7,0.1,1,0.2c0.2,0.1,0.3,0.3,0.2,0.5c0,0.1-0.2,0.2-0.4,0.1s-0.5-0.1-0.8-0.1H5.5C4.3,0.9,3.4,1.8,3.4,3v2.5
			c0,0.2-0.2,0.4-0.4,0.4H2.1c-0.8,0-1.4,0.6-1.4,1.4s0.6,1.4,1.4,1.4H3c0.2,0,0.4,0.2,0.4,0.4v4.3c0,0.2-0.2,0.4-0.4,0.4H2.1
			c-0.8,0-1.4,0.6-1.4,1.4c0,0.8,0.6,1.4,1.4,1.4H3c0.2,0,0.4,0.2,0.4,0.4v4.3c0,0.2-0.2,0.4-0.4,0.4H2.1c-0.8,0-1.4,0.6-1.4,1.4
			s0.6,1.4,1.4,1.4H3c0.2,0,0.4,0.2,0.4,0.4v2.5c0,1.2,0.9,2.1,2.1,2.1H38c1.2,0,2.1-0.9,2.1-2.1V4.5c0-1.2-0.9-2.1-2.1-2.1H5.5
			C5.3,2.4,5.1,2.2,5.1,2s0.2-0.4,0.4-0.4H38c1.5,0,2.8,1.3,2.8,2.8v22.8C40.8,28.8,39.6,30.1,38,30.1z"/>
	</g>
	<g>
		<path style="fill:#407BA4;" d="M41.6,11.6c-0.1,0-0.2,0-0.3-0.1c-0.1-0.2-0.1-0.4,0.1-0.5c0.4-0.3,0.6-0.8,0.6-1.3V6.5
			c0-0.5-0.2-1-0.6-1.3c-0.2-0.1-0.2-0.3-0.1-0.5c0.1-0.2,0.3-0.2,0.5-0.1c0.6,0.4,0.9,1.1,0.9,1.8v3.2c0,0.7-0.3,1.4-0.9,1.8
			C41.8,11.6,41.7,11.6,41.6,11.6z"/>
	</g>
	<g>
		<path style="fill:#407BA4;" d="M41.6,17.1c-0.1,0-0.2,0-0.3-0.1c-0.1-0.2-0.1-0.4,0.1-0.5c0.4-0.3,0.6-0.8,0.6-1.3v-2.5
			c0-0.2,0.2-0.4,0.4-0.4s0.4,0.2,0.4,0.4v2.5c0,0.7-0.3,1.4-0.9,1.8C41.8,17.1,41.7,17.1,41.6,17.1z"/>
	</g>
	<g>
		<path style="fill:#407BA4;" d="M41.6,22.6c-0.1,0-0.2,0-0.3-0.1c-0.1-0.2-0.1-0.4,0.1-0.5c0.4-0.3,0.6-0.8,0.6-1.3v-2.5
			c0-0.2,0.2-0.4,0.4-0.4s0.4,0.2,0.4,0.4v2.5c0,0.7-0.3,1.4-0.9,1.8C41.8,22.6,41.7,22.6,41.6,22.6z"/>
	</g>
	<g>
		<path style="fill:#407BA4;" d="M41.6,28.1c-0.1,0-0.2,0-0.3-0.1c-0.1-0.2-0.1-0.4,0.1-0.5c0.4-0.3,0.6-0.8,0.6-1.3v-2.5
			c0-0.2,0.2-0.4,0.4-0.4s0.4,0.2,0.4,0.4v2.5c0,0.7-0.3,1.4-0.9,1.8C41.8,28,41.7,28.1,41.6,28.1z"/>
	</g>
	<g>
		<path style="fill:#407BA4;" d="M25.7,22.4c-0.2,0-0.4-0.2-0.4-0.4v-0.7c0-0.7-0.6-1.4-1.4-1.4h-0.4c-0.5,0-0.9-0.4-0.9-0.9v-0.8
			c0-0.3,0.2-0.6,0.4-0.8c0.9-0.6,1.4-1.7,1.1-2.9c-0.2-1-1-1.7-2-2c-0.8-0.2-1.7,0-2.3,0.5c-0.6,0.5-1,1.3-1,2.1
			c0,0.9,0.5,1.8,1.3,2.3c0.3,0.2,0.5,0.5,0.5,0.8v0.7c0,0.5-0.4,0.9-0.9,0.9h-0.5c-0.7,0-1.4,0.6-1.4,1.4c0,0.3-0.2,0.6-0.5,0.7
			s-0.6,0.1-0.9-0.1c-2.3-1.8-3.5-4.5-3.2-7.4c0.4-3.8,3.5-6.9,7.3-7.3C23,7,25.3,7.7,27.1,9.3c1.8,1.6,2.8,3.8,2.8,6.2
			c0,2.3-1,4.6-2.7,6.1c-0.1,0.1-0.4,0.1-0.5,0s-0.1-0.4,0-0.5c1.6-1.4,2.5-3.5,2.5-5.6c0-2.2-0.9-4.2-2.5-5.6
			C25.1,8.4,23,7.8,20.8,8c-3.5,0.4-6.3,3.2-6.7,6.7c-0.3,2.6,0.8,5.2,2.9,6.8h0.1c0,0,0.1,0,0.1-0.1c0-1.1,0.9-2.1,2.1-2.1h0.5
			c0.1,0,0.2-0.1,0.2-0.2v-0.7c0-0.1-0.1-0.2-0.1-0.2c-1-0.6-1.6-1.7-1.6-2.9c0-1,0.5-2,1.3-2.7c0.8-0.6,1.9-0.9,2.9-0.6
			c1.2,0.3,2.2,1.3,2.5,2.5c0.3,1.4-0.2,2.8-1.4,3.6c-0.1,0-0.1,0.2-0.1,0.2v0.8c0,0.1,0.1,0.2,0.2,0.2H24c1.1,0,2.1,0.9,2.1,2.1
			v0.7C26.1,22.3,25.9,22.4,25.7,22.4z"/>
	</g>
</g>
</svg>
