<?xml version="1.0" encoding="utf-8"?>
<!-- Generator: Adobe Illustrator 19.2.0, SVG Export Plug-In . SVG Version: 6.00 Build 0)  -->
<svg version="1.1" id="Layer_1" xmlns="http://www.w3.org/2000/svg" xmlns:xlink="http://www.w3.org/1999/xlink" x="0px" y="0px"
	 viewBox="0 0 27.3 30.2" style="enable-background:new 0 0 27.3 30.2;" xml:space="preserve">
<g>
	<g>
		<path style="fill:#417BA4;" d="M13.7,23c-4.4,0-7.9-3.6-7.9-7.9c0-4.4,3.6-7.9,7.9-7.9s7.9,3.6,7.9,7.9C21.6,19.5,18,23,13.7,23z
			 M13.7,7.9c-4,0-7.2,3.2-7.2,7.2s3.2,7.2,7.2,7.2s7.2-3.2,7.2-7.2S17.7,7.9,13.7,7.9z"/>
	</g>
	<g>
		<g style="enable-background:new    ;">
			<g style="enable-background:new    ;">
				<g>
					<path style="fill:#417BA4;" d="M11.7,7.9C11.4,8,11.4,8,11.3,8.1C11,8.2,11,8.2,10.8,8.2c-0.3,0.1-0.3,0.1-0.4,0.2
						c-0.2,0.1-0.2,0.1-0.3,0.2C9.8,8.7,9.8,8.7,9.7,8.8C9.5,8.9,9.5,8.9,9.4,9C9.2,9.2,9.2,9.2,9.1,9.3C8.8,9.5,8.8,9.5,8.7,9.6
						c0.5-0.5,1.4-1,2.2-1.4C11.2,8.1,11.5,8,11.7,7.9"/>
					<g>
						<path style="fill:#417BA4;" d="M7.6,10.9c-0.1,0.1-0.1,0.2-0.2,0.3C7.4,11,7.5,11,7.6,10.9"/>
					</g>
					<g>
						<path style="fill:#417BA4;" d="M12.1,20.7c-0.2,0.2-0.3,0.4-0.4,0.6C11.8,21.1,12,20.9,12.1,20.7"/>
					</g>
					<polyline style="fill:#417BA4;" points="6.3,14.2 6.3,14.2 6.3,14.2 					"/>
					<g>
						<path style="fill:#417BA4;" d="M6.3,15.6c0,0.1,0,0.2,0,0.2C6.2,15.7,6.2,15.7,6.3,15.6"/>
					</g>
					<g>
						<path style="fill:#417BA4;" d="M6.5,16.9c0,0.2,0,0.3,0,0.4C6.5,17.2,6.5,17.1,6.5,16.9"/>
					</g>
					<g>
						<path style="fill:#417BA4;" d="M8.1,20.1c-0.1-0.2-0.3-0.3-0.4-0.5l0,0C7.9,19.8,8.1,20,8.1,20.1C8.2,20.1,8.1,20.1,8.1,20.1"
							/>
					</g>
					<g>
						<path style="fill:#417BA4;" d="M11.7,22.1c-0.1-0.1-0.1-0.3-0.1-0.4C11.6,21.9,11.7,22,11.7,22.1"/>
					</g>
					<path style="fill:#417BA4;" d="M6.3,14.2c0-0.1,0-0.1,0-0.2c0-0.2,0.1-0.4,0.1-0.6c0,0,0,0,0,0.1l-0.1,0.3V14.2L6.3,14.2"/>
					<path style="fill:#417BA4;" d="M7.6,10.9c0.1-0.1,0.2-0.3,0.3-0.4l0,0l-0.1,0.1c-0.1,0.1-0.2,0.3-0.3,0.5
						C7.4,11,7.5,11,7.6,10.9"/>
				</g>
			</g>
			<g style="enable-background:new    ;">
				<g style="enable-background:new    ;">
					<path style="fill:#417BA4;" d="M16.6,12C16.6,12,16.5,12,16.6,12C16.5,12,16.5,12,16.6,12C16.5,12,16.5,12,16.6,12L16.6,12"/>
				</g>
				<g>
					<g>
						<path style="fill:#417BA4;" d="M8.3,10c0.1-0.1,0.3-0.3,0.4-0.4c0.2-0.2,0.2-0.2,0.4-0.3C9.3,9.1,9.3,9.1,9.4,9
							c0.2-0.1,0.2-0.1,0.3-0.2C9.9,8.7,9.9,8.7,10,8.6c0.2-0.1,0.2-0.1,0.3-0.2c0.2-0.1,0.2-0.1,0.4-0.2C11,8.1,11,8.1,11.2,8
							c0.4,0,0.4,0,0.5-0.1c1-0.3,1.5-0.1,1.4,0.4c0,0.2-0.2,0.4-0.4,0.6c-0.2,0.1-0.5,0-0.6-0.1c0.1-0.2,0.2-0.3,0.3-0.5
							c0.1-0.5-0.7-0.6-1.8-0.1c-0.8,0.4-1.6,1-2,1.5C8.5,9.8,8.4,9.9,8.3,10"/>
						<path style="fill:#417BA4;" d="M8.3,10c-0.1,0.1-0.2,0.2-0.2,0.4C8.1,10.3,8.2,10.1,8.3,10"/>
					</g>
					<g>
						<path style="fill:#417BA4;" d="M13.1,7.7c0.2,0,0.4,0,0.6,0c0.7,0,1,0.3,0.9,0.8c-0.2,0.6-1,1.4-2.1,2.2
							c-0.2,0.1-0.4-0.2-0.4-0.3l0,0c1-0.7,1.7-1.4,1.9-1.9c0.1-0.5-0.3-0.7-1-0.6L13.1,7.7"/>
						<path style="fill:#417BA4;" d="M7.4,11.1c0,0.1-0.1,0.2-0.1,0.3C7.3,11.3,7.3,11.2,7.4,11.1"/>
					</g>
					<path style="fill:#417BA4;" d="M16.9,8.4c0.4,0.2,0.5,0.5,0.4,1c-0.4,1.4-3.2,3.6-6.2,4.9c-0.6,0.2-1.1,0.4-1.6,0.6
						c-0.3,0-0.3-0.4-0.2-0.5c0-0.1,0.1-0.1,0.1-0.1c0.5-0.1,1-0.3,1.5-0.6c2.9-1.2,5.5-3.3,5.8-4.6c0.1-0.5-0.1-0.8-0.5-1
						C16.5,8.2,16.7,8.3,16.9,8.4"/>
					<path style="fill:#417BA4;" d="M20.2,11.5l0.1,0.2c0.1,0.2,0.1,0.2,0.1,0.4l0,0C20.3,12.1,20.1,11.7,20.2,11.5
						c-0.1-0.2-0.1-0.3-0.2-0.5L20.2,11.5"/>
					<path style="fill:#417BA4;" d="M20.9,13.2c0,0.2,0,0.4,0,0.6c-0.4,1.4-2.7,3.4-5.6,4.9c-0.3,0.1-0.5-0.1-0.4-0.3
						c0-0.1,0.1-0.1,0.2-0.2c2.9-1.5,5.3-3.6,5.7-5c0.1-0.3,0.1-0.5,0-0.7C20.7,12.8,20.8,13,20.9,13.2"/>
					<path style="fill:#417BA4;" d="M21.1,14.6v0.2c0,0.1,0,0.2,0,0.4c-0.2,0.9-1.3,2-2.7,3c-0.2,0.1-0.3-0.1-0.3-0.2
						s0.1-0.2,0.2-0.2C19.7,16.6,20.8,15.5,21.1,14.6c0-0.1,0-0.3,0-0.4V14.6"/>
					<g>
						<path style="fill:#417BA4;" d="M8,10.8c0,0,0-0.1,0-0.2C8,10.7,8,10.8,8,10.8"/>
						<path style="fill:#417BA4;" d="M11.3,9.9c0,0,0.1,0.1,0,0.2c-0.3,0.2-0.7,0.4-1,0.5c-1.1,0.5-2,0.5-2.2,0.2
							c0.1-0.2,0.3-0.3,0.4-0.5c0.2,0.2,0.9,0.2,1.8-0.2c0.3-0.1,0.6-0.3,0.8-0.4C11.1,9.7,11.2,9.9,11.3,9.9"/>
					</g>
					<g>
						<path style="fill:#417BA4;" d="M7.2,12c-0.1-0.1-0.1-0.2-0.1-0.4C7.1,11.8,7.1,11.9,7.2,12L7.2,12"/>
						<path style="fill:#417BA4;" d="M9.8,11.7c0,0.2,0,0.4-1.4,0.6c-0.4,0-0.9,0-1.2-0.2l0,0c0.1-0.2,0.2-0.4,0.3-0.5
							c0.2,0.3,1,0.3,2.1,0C9.8,11.5,9.8,11.7,9.8,11.7"/>
					</g>
					<g>
						<path style="fill:#417BA4;" d="M6.7,13.4c-0.1-0.1-0.1-0.3-0.1-0.5C6.6,13.1,6.6,13.3,6.7,13.4"/>
						<path style="fill:#417BA4;" d="M15.3,7.8c0.1,0,0.2,0,0.3,0.1C16,8.1,16.1,8.3,16,8.8c-0.3,1.2-2.7,3.1-5.3,4.2
							c-2,0.9-3.6,1-4,0.4c0.1-0.2,0.1-0.4,0.2-0.6c0.4,0.5,1.8,0.4,3.7-0.4c2.4-1,4.5-2.7,4.8-3.8c0.1-0.4,0-0.7-0.4-0.8
							C15.1,7.8,15.1,7.8,15.3,7.8"/>
					</g>
					<g>
						<polyline style="fill:#417BA4;" points="6.3,14.2 6.3,14.2 6.3,14.2 						"/>
						<path style="fill:#417BA4;" d="M6.8,14.8c0,0.1-0.1,0.2-0.1,0.2c-0.3-0.2-0.5-0.4-0.4-0.8c0,0.2,0,0.4,0.1,0.5
							c0-0.2,0.1-0.4,0.1-0.6c0.1,0.1,0.2,0.2,0.3,0.2C6.9,14.5,6.8,14.8,6.8,14.8"/>
					</g>
					<g>
						<path style="fill:#417BA4;" d="M6.3,15.8c0-0.1,0-0.1,0-0.2C6.2,15.7,6.2,15.7,6.3,15.8"/>
						<path style="fill:#417BA4;" d="M18,9l0.3,0.2c0.3,0.2,0.4,0.5,0.3,1c-0.4,1.6-3.5,4-6.9,5.4c-3.3,1.4-5.6,1.4-5.4,0
							c0,0.2,0,0.4,0.1,0.6c0-0.2,0-0.4,0-0.6c2.1,2.3,11.6-3.6,11.7-6c0-0.4-0.2-0.6-0.4-0.7L18,9"/>
					</g>
					<g>
						<path style="fill:#417BA4;" d="M6.6,17.4c0-0.1-0.1-0.3,0-0.4C6.5,17.1,6.5,17.2,6.6,17.4"/>
						<path style="fill:#417BA4;" d="M19.4,10.3c0.2,0.2,0.2,0.5,0.1,0.9c-0.4,1.7-3.7,4.2-7.3,5.8c-3.4,1.5-5.9,1.4-5.7-0.1
							c0,0.3,0,0.5,0.1,0.6c-0.1-0.2-0.1-0.4-0.2-0.6c0.6,0.8,2.7,0.6,5.5-0.6c3.5-1.5,6.7-4,7.1-5.6c0.1-0.4,0-0.7-0.2-0.9
							C19.1,10,19.3,10.2,19.4,10.3"/>
					</g>
					<g>
						<path style="fill:#417BA4;" d="M18.6,14.5c0.1,0.2,0,0.3-0.1,0.4c-1.4,1.3-3.4,2.5-5.6,3.5c-3.2,1.4-5.6,1.4-5.8,0.3
							c0-0.1,0,0,0-0.1c0,0,0,0.2,0.1,0.4c0-0.1-0.1-0.1-0.1-0.2v-0.1c0-0.1-0.1-0.2-0.1-0.3c0.6,0.8,2.8,0.6,5.7-0.6
							c2.2-0.9,4.2-2.2,5.6-3.4C18.5,14.2,18.6,14.4,18.6,14.5"/>
					</g>
					<path style="fill:#417BA4;" d="M10.6,20.3c0,0.1,0.1,0.2-0.1,0.2c-1.1,0.2-2,0.1-2.3-0.3c-0.1-0.2-0.3-0.4-0.4-0.5
						c0.3,0.4,1.2,0.6,2.4,0.4C10.4,20,10.6,20.2,10.6,20.3"/>
					<path style="fill:#417BA4;" d="M14.1,20.4c0,0,0,0.2-0.2,0.3c-2.2,0.9-3.9,1-4.6,0.6c-0.2-0.1-0.4-0.3-0.5-0.4
						c0.7,0.6,2.5,0.4,4.8-0.5C14,20.2,14.1,20.4,14.1,20.4"/>
					<path style="fill:#417BA4;" d="M21.1,15.8c0,0.2,0,0.4-0.1,0.6v0.1c-0.4,1.4-3.1,3.5-6,4.7c-1.9,0.8-3.5,1.1-4.2,0.8
						c-0.2-0.1-0.4-0.2-0.6-0.3C12.7,22.8,20.7,18.4,21.1,15.8L21.1,15.8"/>
					<path style="fill:#417BA4;" d="M20.6,17.9c-1.1,2.3-6.2,4.8-8.2,4.5c-0.2,0-0.5-0.1-0.7-0.2c0.7,0.2,2.1,0,3.7-0.7
						c2.7-1.1,5.1-3,5.5-4.3C20.7,17.5,20.7,17.8,20.6,17.9"/>
					<path style="fill:#417BA4;" d="M18.9,20.2c0,0-0.1,0.1-0.2,0.2C18,21,17.1,21.6,16.1,22c-0.8,0.4-1.6,0.5-2.1,0.6
						c-0.2,0-0.5,0-0.8,0c0.6,0,1.6-0.2,2.6-0.6C17,21.4,18.1,20.8,18.9,20.2c0-0.1,0-0.1,0-0.1C19,20.1,19,20.1,18.9,20.2
						C19,20.2,18.9,20.2,18.9,20.2"/>
					<path style="fill:#417BA4;" d="M8,10.8c0,0,0-0.1,0-0.2v-0.1c0.1-0.1,0.3-0.3,0.4-0.4c0,0.1,0,0.2,0,0.3
						C8.3,10.5,8.2,10.7,8,10.8"/>
					<path style="fill:#417BA4;" d="M7.2,12c-0.1-0.1-0.1-0.2-0.1-0.4v-0.1c0.1-0.2,0.2-0.3,0.3-0.5c0,0.2,0,0.3,0.1,0.4
						C7.4,11.7,7.3,11.9,7.2,12"/>
					<path style="fill:#417BA4;" d="M6.7,13.4c-0.1-0.1-0.1-0.3-0.1-0.5v-0.1c0.1-0.2,0.1-0.4,0.2-0.5c-0.1,0.2,0,0.4,0.1,0.6
						C6.8,13,6.7,13.2,6.7,13.4"/>
					<path style="fill:#417BA4;" d="M6.4,14.8c-0.1-0.1-0.1-0.3-0.1-0.5l0.1-0.4l0.1-0.3c-0.1,0.3,0,0.5,0.1,0.6
						C6.4,14.4,6.4,14.6,6.4,14.8"/>
					<path style="fill:#417BA4;" d="M6.4,16.2c-0.1-0.1-0.1-0.2-0.1-0.4c0-0.2,0-0.5,0-0.7c0,0.2,0,0.3,0.1,0.4
						C6.4,15.8,6.4,16,6.4,16.2"/>
					<path style="fill:#417BA4;" d="M6.7,17.6c0-0.1-0.1-0.1-0.1-0.2c-0.1-0.2-0.1-0.5-0.2-0.7c0,0.1,0.1,0.2,0.1,0.3
						C6.6,17.2,6.6,17.4,6.7,17.6"/>
					<path style="fill:#417BA4;" d="M8,10.5v-0.1c0-0.1,0.1-0.2,0.2-0.4c0.1-0.1,0.2-0.2,0.4-0.3C8.5,9.8,8.4,10,8.4,10.1
						C8.3,10.2,8.1,10.4,8,10.5"/>
					<path style="fill:#417BA4;" d="M7.2,11.6c0-0.1,0-0.1,0.1-0.2c0-0.1,0.1-0.2,0.1-0.3c0.1-0.2,0.2-0.4,0.3-0.5l0.1-0.1
						c-0.1,0.2-0.3,0.4-0.3,0.6C7.4,11.2,7.3,11.4,7.2,11.6"/>
					<path style="fill:#417BA4;" d="M6.6,12.8v-0.1c0.1-0.2,0.2-0.5,0.3-0.7c0,0.1-0.1,0.2-0.1,0.3C6.7,12.4,6.7,12.6,6.6,12.8"/>
				</g>
			</g>
		</g>
	</g>
	<g>
		<path style="fill:#417BA4;" d="M20.3,12.5c-0.1,0-0.2,0-0.3-0.1c-0.1-0.1-0.1-0.3,0-0.4c0-0.1,0.1-0.3,0.1-0.3l0.7,0.1
			c-0.1,0.5-0.2,0.6-0.2,0.6C20.4,12.4,20.4,12.5,20.3,12.5z"/>
	</g>
</g>
<g>
	<g>
		<path style="fill:#417BA4;" d="M13.7,27.6C6.8,27.6,1.2,22,1.2,15.1C1.2,9,5.5,3.8,11.5,2.8c0.2,0,0.4,0.1,0.4,0.3
			s-0.1,0.4-0.3,0.4C6,4.5,1.9,9.4,1.9,15.1c0,6.5,5.3,11.8,11.8,11.8c0.2,0,0.4,0.2,0.4,0.4C14,27.5,13.9,27.6,13.7,27.6z"/>
	</g>
	<g>
		<path style="fill:#417BA4;" d="M15.8,27.4c-0.2,0-0.3-0.1-0.3-0.3c0-0.2,0.1-0.4,0.3-0.4c5.7-1,9.8-5.9,9.8-11.6
			c0-6.5-5.3-11.8-11.8-11.8c-0.2,0-0.4-0.2-0.4-0.4s0.2-0.4,0.4-0.4c6.9,0,12.5,5.6,12.5,12.5C26.2,21.2,21.8,26.4,15.8,27.4
			L15.8,27.4z"/>
	</g>
	<g>
		<path style="fill:#417BA4;" d="M13.7,3.3c-0.1,0-0.2-0.1-0.3-0.2c-0.1-0.2-0.1-0.4,0.1-0.5L17.3,0c0.1,0,0.3,0,0.5,0.2
			c0.1,0.2,0.1,0.4-0.1,0.5l-3.8,2.6C13.8,3.3,13.7,3.3,13.7,3.3z"/>
	</g>
	<g>
		<path style="fill:#417BA4;" d="M9.9,30.2c-0.1,0-0.2-0.1-0.3-0.2c-0.1-0.2-0.1-0.4,0.1-0.5l3.8-2.6c0.2-0.1,0.4-0.1,0.5,0.1
			s0.1,0.4-0.1,0.5l-3.8,2.6C10,30.2,10,30.2,9.9,30.2z"/>
	</g>
	<g>
		<path style="fill:#417BA4;" d="M9.9,30.2C9.9,30.2,9.8,30.2,9.9,30.2c-0.3-0.1-0.4-0.2-0.3-0.4l0.4-1.9c0-0.2,0.2-0.3,0.4-0.3
			s0.3,0.2,0.3,0.4l-0.5,2C10.2,30.1,10,30.2,9.9,30.2z"/>
	</g>
	<g>
		<path style="fill:#417BA4;" d="M17,2.6L17,2.6c-0.3-0.1-0.4-0.2-0.3-0.4l0.4-1.9c0-0.2,0.2-0.3,0.4-0.3c0.2,0,0.3,0.2,0.3,0.4
			l-0.4,1.9C17.3,2.5,17.2,2.6,17,2.6z"/>
	</g>
	<g>
		<path style="fill:#417BA4;" d="M10.3,28.4L10.3,28.4c-5.6-1.4-9.5-6-10.2-11.6c-0.9-7.2,4-13.9,11.2-15.1c0.2,0,0.4,0.1,0.4,0.3
			s-0.1,0.4-0.3,0.4C4.6,3.5,0,9.8,0.8,16.7c0.7,5.3,4.4,9.6,9.6,11c0.2,0,0.3,0.2,0.3,0.4C10.6,28.3,10.5,28.4,10.3,28.4z"/>
	</g>
	<g>
		<path style="fill:#417BA4;" d="M16,28.6c-0.2,0-0.3-0.1-0.3-0.3c0-0.2,0.1-0.4,0.3-0.4c6.8-1.2,11.5-7.5,10.6-14.4
			c-0.7-5.3-4.4-9.6-9.6-11c-0.2,0-0.3-0.2-0.3-0.4s0.2-0.3,0.4-0.3c5.5,1.4,9.4,6,10.1,11.6C28.1,20.7,23.2,27.3,16,28.6L16,28.6z"
			/>
	</g>
</g>
</svg>
