<?xml version="1.0" encoding="utf-8"?>
<!-- Generator: Adobe Illustrator 19.2.0, SVG Export Plug-In . SVG Version: 6.00 Build 0)  -->
<svg version="1.1" id="Layer_1" xmlns="http://www.w3.org/2000/svg" xmlns:xlink="http://www.w3.org/1999/xlink" x="0px" y="0px"
	 viewBox="0 0 28.1 28.7" style="enable-background:new 0 0 28.1 28.7;" xml:space="preserve">
<g>
	<g>
		<g>
			<path style="fill:#656665;stroke:#417BA4;stroke-linecap:round;stroke-miterlimit:10;" d="M26.1,10.5"/>
		</g>
		<g>
			<path style="fill:#656665;" d="M24.4,10.1c-0.1,0-0.3-0.1-0.3-0.2c-0.3-0.6-0.9-1-1.5-1h-2.8c-0.2,0-0.4-0.2-0.4-0.4
				s0.2-0.4,0.4-0.4h2.8c0.9,0,1.8,0.6,2.2,1.4c0.1,0.2,0,0.4-0.2,0.5C24.5,10,24.4,10.1,24.4,10.1z"/>
		</g>
		<g>
			<path style="fill:#656665;" d="M0.4,10.8c-0.2,0-0.4-0.2-0.4-0.4C0,9.1,1.1,8,2.4,8h4.5c0.2,0,0.4,0.2,0.4,0.4S7.1,8.8,6.9,8.8
				H2.4c-0.9,0-1.7,0.7-1.7,1.7C0.7,10.7,0.5,10.8,0.4,10.8z"/>
		</g>
		<g>
			<path style="fill:#656665;stroke:#417BA4;stroke-linecap:round;stroke-miterlimit:10;" d="M26.1,10.5"/>
		</g>
		<g>
			<path style="fill:#656665;" d="M26.4,22.1h-7.1c-1.6,0-2.9-1.3-2.9-2.9v-0.3c0-1.6,1.3-2.9,2.9-2.9h7.1c0.9,0,1.6,0.7,1.6,1.6
				v2.8C28.1,21.3,27.3,22.1,26.4,22.1z M19.4,16.8c-1.2,0-2.2,1-2.2,2.2v0.3c0,1.2,1,2.2,2.2,2.2h7.1c0.5,0,0.9-0.4,0.9-0.9v-2.8
				c0-0.5-0.4-0.9-0.9-0.9h-7.1V16.8z"/>
		</g>
		<g>
			<path style="fill:#656665;" d="M19.9,20.9c-1,0-1.8-0.8-1.8-1.8s0.8-1.8,1.8-1.8s1.8,0.8,1.8,1.8S20.9,20.9,19.9,20.9z M19.9,18
				c-0.6,0-1.1,0.5-1.1,1.1s0.5,1.1,1.1,1.1s1.1-0.5,1.1-1.1S20.5,18,19.9,18z"/>
		</g>
		<g>
			<path style="fill:#656665;" d="M23.2,10.8H2.8c-0.2,0-0.4-0.2-0.4-0.4S2.6,10,2.8,10h20.3c0.2,0,0.4,0.2,0.4,0.4
				C23.5,10.7,23.4,10.8,23.2,10.8z"/>
		</g>
		<g>
			<path style="fill:#656665;" d="M24.1,28.7H2.4c-1.3,0-2.4-1.1-2.4-2.4V10.5c0-0.2,0.2-0.4,0.4-0.4s0.4,0.2,0.4,0.4v15.9
				c0,0.9,0.7,1.7,1.7,1.7h21.7c0.9,0,1.7-0.7,1.7-1.7v-3.7c0-0.2,0.2-0.4,0.4-0.4c0.2,0,0.4,0.2,0.4,0.4v3.7
				C26.4,27.7,25.4,28.7,24.1,28.7z"/>
		</g>
		<g>
			<path style="fill:#656665;" d="M26.1,15.8c-0.2,0-0.4-0.2-0.4-0.4v-3c0-0.9-0.7-1.7-1.7-1.7H2.4c-0.2,0-0.4-0.2-0.4-0.4
				s0.2-0.4,0.4-0.4H24c1.3,0,2.4,1.1,2.4,2.4v3C26.4,15.7,26.3,15.8,26.1,15.8z"/>
		</g>
	</g>
	<g>
		<path style="fill:#656665;" d="M16.2,10.8h-5.9L5.4,6C5,5.5,4.9,5,5.1,4.4c0.2-0.5,0.7-0.9,1.3-0.9H9V1.1C9,0.5,9.5,0,10.1,0h5.8
			C16.5,0,17,0.5,17,1.1v2.5h3.1c0.6,0,1.1,0.3,1.3,0.9s0.1,1-0.4,1.5L16.2,10.8z M10.6,10.1h5.3l4.7-4.7c0.2-0.2,0.3-0.5,0.2-0.8
			c-0.1-0.3-0.4-0.4-0.6-0.4h-3.8V1.1c0-0.2-0.2-0.4-0.4-0.4h-5.8c-0.2,0-0.4,0.2-0.4,0.4v3.2H6.4c-0.3,0-0.5,0.2-0.6,0.4
			C5.6,5,5.7,5.2,5.9,5.5L10.6,10.1z"/>
	</g>
</g>
</svg>
