<?xml version="1.0" encoding="utf-8"?>
<!-- Generator: Adobe Illustrator 19.2.0, SVG Export Plug-In . SVG Version: 6.00 Build 0)  -->
<svg version="1.1" id="Layer_1" xmlns="http://www.w3.org/2000/svg" xmlns:xlink="http://www.w3.org/1999/xlink" x="0px" y="0px"
	 viewBox="0 0 28.8 26.8" style="enable-background:new 0 0 28.8 26.8;" xml:space="preserve">
<g>
	<g>
		<path style="fill:#D37D41;" d="M18.4,23.9H6.1c-0.6,0-1.1-0.5-1.1-1.1v-7.9c0-0.6,0.5-1.1,1.1-1.1h12.3c0.6,0,1.1,0.5,1.1,1.1v7.9
			C19.6,23.4,19.1,23.9,18.4,23.9z M6.1,14.5c-0.2,0-0.4,0.2-0.4,0.4v7.9c0,0.2,0.2,0.4,0.4,0.4h12.3c0.2,0,0.4-0.2,0.4-0.4v-7.9
			c0-0.2-0.2-0.4-0.4-0.4H6.1z"/>
	</g>
	<g>
		<path style="fill:#D37D41;" d="M15,0.9c-0.2,0.6-0.9,1.4-2,2.1c0,0,0,0,0,0.1s0.2,0.4,0.4,0.3c1.2-0.8,2.1-1.7,2.3-2.4
			c0.1-0.5-0.2-0.8-0.9-0.8c-0.2,0-0.5,0-0.7,0h-0.2C14.7,0.2,15.2,0.4,15,0.9z"/>
		<path style="fill:#D37D41;" d="M18.1,1.8c-0.4,1.4-3.2,3.7-6.3,5c-0.6,0.2-1.1,0.4-1.7,0.6c0,0-0.1,0-0.1,0.1
			C9.8,7.6,9.9,8,10.2,8c0.5-0.2,1.1-0.4,1.8-0.6c3.3-1.4,6.3-3.8,6.7-5.3c0.1-0.5,0-0.9-0.4-1.1c-0.2-0.1-0.5-0.2-0.7-0.3
			C18,0.9,18.2,1.2,18.1,1.8z"/>
		<path style="fill:#D37D41;" d="M22,5L22,5c0-0.2,0-0.2-0.1-0.4l-0.1-0.2l-0.3-0.5c0.1,0.1,0.1,0.3,0.1,0.5C21.7,4.6,21.9,5,22,5z"
			/>
		<path style="fill:#D37D41;" d="M11,3.4c0.4-0.2,0.8-0.4,1.1-0.6c0.1-0.1,0-0.2,0-0.2s-0.2-0.2-0.3-0.1c-0.3,0.2-0.6,0.3-0.9,0.4
			C10,3.3,9.2,3.4,9,3.1c0,0,0-0.1,0-0.3c0-0.1,0.1-0.3,0.2-0.4C9.4,2.2,9.6,2,9.8,1.9c0.5-0.4,1.2-0.8,1.8-1c0.1,0,0.2-0.1,0.3-0.1
			c1-0.3,1.6-0.2,1.5,0.3c0,0.1-0.1,0.3-0.3,0.5c0.1,0.1,0.4,0.2,0.6,0.1c0.2-0.2,0.3-0.4,0.4-0.6c0.1-0.6-0.5-0.7-1.5-0.4
			c-0.1,0-0.2,0-0.3,0.1c-0.1,0-0.1,0-0.3,0.1c-0.1,0-0.2,0.1-0.3,0.1s-0.1,0.1-0.3,0.1c-0.1,0-0.1,0.1-0.2,0.1
			C11.3,1,11.2,1,11.1,1C11,1,11,1.1,10.9,1.1s-0.1,0.1-0.2,0.1c-0.1,0-0.1,0.1-0.2,0.1c-0.1,0-0.1,0.1-0.2,0.1
			c-0.1,0-0.1,0.1-0.2,0.1C10,1.5,10,1.6,9.9,1.6c0.1,0.1,0.1,0.1,0,0.2C9.8,1.9,9.8,1.9,9.7,1.9C9.6,2,9.6,2,9.5,2.1
			C9.4,2.2,9.4,2.2,9.3,2.3C9.1,2.4,9,2.6,8.8,2.8C8.7,2.9,8.6,3,8.6,3.1v0.1v0.1c0,0.1,0,0.2,0.1,0.3C8.8,4,9.8,3.9,11,3.4z"/>
		<path style="fill:#D37D41;" d="M11.5,5.9c2.8-1.2,5.4-3.2,5.7-4.5c0.1-0.5-0.1-0.8-0.5-0.9c-0.1,0-0.2,0-0.3-0.1
			c-0.2,0-0.2,0-0.3,0c0.4,0.1,0.5,0.4,0.4,0.9c-0.3,1.2-2.7,3-5.2,4.1c-2,0.9-3.6,1-4,0.4c-0.1-0.2-0.1-0.4,0-0.6
			c0-0.1,0.1-0.2,0.1-0.3C7.3,5.1,7.2,5.4,7.1,5.6v0.1c0,0.1,0,0.1,0,0.2c0,0.2,0,0.4,0.1,0.5C7.6,7,9.3,6.9,11.5,5.9z"/>
		<path style="fill:#D37D41;" d="M6.7,7.6C6.7,7.6,6.7,7.7,6.7,7.6c0,0.1,0.1,0.2,0.1,0.3l0,0l0,0C6.9,8,7,8.1,7.1,8.2
			c0.1,0,0.1-0.1,0.1-0.2c0,0,0.1-0.4,0-0.4C7.1,7.4,7,7.3,6.9,7.3C6.8,7.1,6.8,6.9,6.8,6.6V6.5c0,0,0,0,0,0.1v0.3L6.7,7.3l0,0l0,0
			l0,0C6.7,7.4,6.7,7.5,6.7,7.6z"/>
		<path style="fill:#D37D41;" d="M7.8,12.4C7.8,12.4,7.7,12.4,7.8,12.4C7.7,12.3,7.7,12.3,7.8,12.4C7.7,12.3,7.7,12.4,7.8,12.4z"/>
		<path style="fill:#D37D41;" d="M7.7,5L7.7,5C8,5.3,8.6,5.3,9,5.2c1.5-0.2,1.5-0.4,1.5-0.6c0,0,0-0.3-0.2-0.3c-1.2,0.4-2,0.4-2.3,0
			c0,0,0-0.2,0-0.4c0.1-0.3,0.2-0.4,0.3-0.6l0,0l0,0v0.1C8.1,3.6,8,3.8,7.9,4c0,0.1-0.1,0.2-0.2,0.3c0,0.1-0.1,0.1-0.1,0.2v0.1
			c0,0.1,0,0.2,0,0.2C7.7,4.8,7.7,4.9,7.7,5z"/>
	</g>
	<path style="fill:#D37D41;" d="M6.7,9C6.7,9.1,6.7,9.1,6.7,9C6.7,9.1,6.7,9.1,6.7,9C6.7,9.1,6.7,9.1,6.7,9C6.7,9.1,6.7,9.1,6.7,9
		c0,0.1,0,0.1,0,0.1v0.1v0.1c0,0,0,0.1,0.1,0.1l0,0C7,9.7,7.5,9.9,8.1,9.9h0.2c1,0,2.5-0.3,4.3-1.1c3.7-1.5,7-4.2,7.4-5.9
		c0.1-0.5,0-0.8-0.3-1l-0.3-0.2l-0.3-0.2c0.1,0.1,0.4,0.3,0.4,0.8c-0.1,2.6-10.4,9-12.7,6.5C6.7,8.6,6.6,8.5,6.6,8.3
		C6.6,8.5,6.7,8.8,6.7,9L6.7,9z"/>
	<path style="fill:#D37D41;" d="M22.6,9.9c0,0,0-0.1,0.1-0.1V9.7c0-0.2,0.1-0.4,0.1-0.6V9c0,0.3-0.2,0.7-0.4,1L22.6,9.9L22.6,9.9z"
		/>
	<g>
		<path style="fill:#D37D41;" d="M27.2,26.7H1.6C0.7,26.7,0,26,0,25.1v-2.3c0-0.5,0.4-0.9,0.9-1c1.4-0.2,2.4-1.5,2.4-2.9
			s-1-2.6-2.4-2.9C0.4,15.9,0,15.5,0,15v-2.3c0-1,0.7-1.7,1.6-1.7h25.5c0.9,0,1.6,0.7,1.6,1.6v2.3c0,0.5-0.4,0.9-0.9,1
			c-0.1,0-0.2,0-0.3,0.1c-1.2,0.4-2.1,1.5-2.1,2.8c0,1.4,1,2.6,2.4,2.9c0.5,0.1,0.9,0.5,0.9,1V25C28.8,26,28.1,26.7,27.2,26.7z
			 M1.6,11.7c-0.5,0-0.9,0.4-0.9,0.9v2.3c0,0.2,0.1,0.3,0.3,0.3c1.7,0.3,3,1.8,3,3.6s-1.3,3.3-3,3.6c-0.2,0-0.3,0.2-0.3,0.3V25
			c0,0.5,0.4,0.9,0.9,0.9h25.5c0.5,0,0.9-0.4,0.9-0.9v-2.3c0-0.2-0.1-0.3-0.3-0.3c-1.7-0.3-3-1.8-3-3.6c0-1.6,1.1-3,2.6-3.5
			c0.1,0,0.2-0.1,0.4-0.1c0.2,0,0.3-0.2,0.3-0.3v-2.3c0-0.5-0.4-0.9-0.9-0.9C27.1,11.7,1.6,11.7,1.6,11.7z"/>
	</g>
	<g>
		<path style="fill:#D37D41;" d="M22.6,10.3L22.6,10.3c-0.3,0-0.4-0.2-0.3-0.4c0.1-0.5,0.1-1,0.1-1.4c0-4.2-3.5-7.7-7.7-7.7
			S7,4.2,7,8.4c0,0.5,0,1,0.1,1.4c0,0.2-0.1,0.4-0.3,0.4c-0.2,0-0.4-0.1-0.4-0.3c-0.1-0.5-0.1-1-0.1-1.6C6.3,3.8,10,0,14.7,0
			s8.4,3.8,8.4,8.4c0,0.5,0,1.1-0.1,1.6C22.9,10.2,22.8,10.3,22.6,10.3z"/>
	</g>
	<path style="fill:#D37D41;" d="M22.5,6.2c-0.1-0.2-0.2-0.5-0.2-0.7c0.1,0.2,0.1,0.4,0,0.7c-0.3,1-1.6,2.4-3.3,3.7
		c0,0-0.3,0.5,0.2,0.4c0.3,0,0.8-0.4,0.8-0.4c1.4-1.1,2.3-2.2,2.5-3C22.5,6.6,22.5,6.4,22.5,6.2z"/>
	<path style="fill:#D37D41;" d="M22.7,7.7V7.2C22.7,7.3,22.7,7.5,22.7,7.7c-0.3,0.7-0.8,1.4-1.7,2.2c-0.2,0.2-0.2,0.5,0.1,0.4
		c0.3-0.1,0.6-0.4,0.6-0.4c0.5-0.6,0.9-1.1,1-1.6c0-0.1,0.1-0.3,0-0.4V7.7z"/>
	<path style="fill:#D37D41;" d="M20.9,3.1L20.9,3.1c-0.1-0.2-0.3-0.4-0.5-0.5c0.2,0.2,0.3,0.6,0.2,1c-0.5,1.8-3.9,4.5-7.7,6.1
		c-0.2,0.1-0.4,0.2-0.6,0.2c0,0-1,0.4,0,0.4s1.8-0.4,1.8-0.4c3.5-1.7,6.6-4.2,7-5.8C21.2,3.7,21.1,3.4,20.9,3.1z"/>
	<g>
		<path style="fill:#D37D41;" d="M19.6,7.4c-1,0.9-2.2,1.7-3.6,2.5c0,0-0.6,0.4,0,0.4c0.9,0,1.3-0.4,1.3-0.4c1-0.6,1.8-1.3,2.6-1.9
			C20,7.9,20.1,7.8,20,7.6C20,7.5,19.9,7.3,19.6,7.4z"/>
		<path style="fill:#D37D41;" d="M22,4.5c-0.2,0-0.4,0.1-0.4,0.3c0,0.2-0.1,0.4-0.1,0.4c-0.1,0.1-0.1,0.3,0,0.4s0.2,0.1,0.3,0.1
			c0.1,0,0.2,0,0.2-0.1c0.1-0.1,0.1-0.1,0.3-0.7C22.3,4.7,22.2,4.5,22,4.5z"/>
	</g>
	<g>
		<path style="fill:#D37D41;" d="M10.8,22.1H7.4c-0.3,0-0.6-0.3-0.6-0.6v-5.4c0-0.3,0.3-0.6,0.6-0.6h3.4c0.2,0,0.4,0.2,0.4,0.4
			c0,0.2-0.2,0.4-0.4,0.4H7.6v2.1h3.1c0.2,0,0.4,0.2,0.4,0.4c0,0.2-0.2,0.4-0.4,0.4H7.6v2.3h3.2c0.2,0,0.4,0.2,0.4,0.4
			C11.1,22,11,22.1,10.8,22.1z"/>
		<path style="fill:#D37D41;" d="M17.7,16.4c0.1,0.1,0.1,0.2,0.1,0.3c0,0.2-0.2,0.4-0.4,0.4c-0.1,0-0.2,0-0.3-0.1
			c-0.4-0.5-1-0.8-1.6-0.8c-1.4,0-2.5,1.1-2.5,2.7s1.1,2.7,2.5,2.7c0.6,0,1.2-0.3,1.6-0.7c0.1-0.1,0.2-0.1,0.3-0.1
			c0.2,0,0.4,0.2,0.4,0.4c0,0.1,0,0.2-0.1,0.3c-0.5,0.5-1.2,0.9-2.2,0.9c-1.9,0-3.4-1.4-3.4-3.4s1.5-3.4,3.4-3.4
			C16.5,15.5,17.2,15.9,17.7,16.4z"/>
	</g>
	<g>
		<g>
			<path style="fill:#D37D41;" d="M21.5,12c-0.2,0-0.4-0.2-0.4-0.4v-0.4c0-0.2,0.2-0.4,0.4-0.4c0.2,0,0.4,0.2,0.4,0.4v0.4
				C21.8,11.9,21.7,12,21.5,12z"/>
		</g>
		<g>
			<path style="fill:#D37D41;" d="M21.5,24.9c-0.2,0-0.4-0.2-0.4-0.4v-0.7c0-0.2,0.2-0.4,0.4-0.4c0.2,0,0.4,0.2,0.4,0.4v0.7
				C21.8,24.8,21.7,24.9,21.5,24.9z M21.5,22.8c-0.2,0-0.4-0.2-0.4-0.4v-0.7c0-0.2,0.2-0.4,0.4-0.4c0.2,0,0.4,0.2,0.4,0.4v0.7
				C21.8,22.6,21.7,22.8,21.5,22.8z M21.5,20.6c-0.2,0-0.4-0.2-0.4-0.4v-0.7c0-0.2,0.2-0.4,0.4-0.4c0.2,0,0.4,0.2,0.4,0.4v0.7
				C21.8,20.5,21.7,20.6,21.5,20.6z M21.5,18.5c-0.2,0-0.4-0.2-0.4-0.4v-0.7c0-0.2,0.2-0.4,0.4-0.4c0.2,0,0.4,0.2,0.4,0.4v0.7
				C21.8,18.3,21.7,18.5,21.5,18.5z M21.5,16.3c-0.2,0-0.4-0.2-0.4-0.4v-0.7c0-0.2,0.2-0.4,0.4-0.4c0.2,0,0.4,0.2,0.4,0.4V16
				C21.8,16.2,21.7,16.3,21.5,16.3z M21.5,14.2c-0.2,0-0.4-0.2-0.4-0.4v-0.7c0-0.2,0.2-0.4,0.4-0.4c0.2,0,0.4,0.2,0.4,0.4v0.7
				C21.8,14,21.7,14.2,21.5,14.2z"/>
		</g>
		<g>
			<path style="fill:#D37D41;" d="M21.5,26.7c-0.2,0-0.4-0.2-0.4-0.4V26c0-0.2,0.2-0.4,0.4-0.4c0.2,0,0.4,0.2,0.4,0.4v0.4
				C21.8,26.6,21.7,26.7,21.5,26.7z"/>
		</g>
	</g>
</g>
</svg>
