<svg id="Layer_1" data-name="Layer 1" xmlns="http://www.w3.org/2000/svg" viewBox="0 0 75 19"><defs><style>.cls-1{fill:#fff;}</style></defs><title>Artboard 1</title><g id="Page-1"><g id="_01" data-name="01"><g id="Group"><g id="factom-logo-white"><g id="Page-1-2" data-name="Page-1"><g id="Factom"><path id="Fill-1" class="cls-1" d="M41.33,9.74A4.35,4.35,0,0,1,45.8,5.21,3.76,3.76,0,0,1,49,6.8a.4.4,0,0,1-.14.59l-.58.31a.38.38,0,0,1-.48-.11,2.5,2.5,0,0,0-2-1,3,3,0,0,0-2.93,3.16A3,3,0,0,0,45.8,12.9a2.48,2.48,0,0,0,2-1,.38.38,0,0,1,.48-.11l.58.3a.4.4,0,0,1,.13.59,3.76,3.76,0,0,1-3.16,1.59,4.35,4.35,0,0,1-4.47-4.53"/><path id="Fill-3" class="cls-1" d="M63.53,9.74a2.84,2.84,0,1,0-5.64,0,2.84,2.84,0,1,0,5.64,0m-7.17,0a4.33,4.33,0,0,1,2.93-4.31l.25-.07a4.69,4.69,0,0,1,1.17-.14,4.29,4.29,0,0,1,4.35,4.53,4.35,4.35,0,1,1-8.7,0"/><path id="Fill-5" class="cls-1" d="M38.09,5.35H36.76a.38.38,0,0,0-.36.25l-3,8a.39.39,0,0,0,.36.54h.87a.39.39,0,0,0,.36-.25l.53-1.43.42-1.35.44-1.2,1.09-3L39,11.08H37.42a.39.39,0,0,0-.37.28l-.25.82a.2.2,0,0,0,.18.26h2.4l.53,1.43a.39.39,0,0,0,.36.25h.87a.39.39,0,0,0,.36-.54l-3-8a.39.39,0,0,0-.36-.25"/><path id="Fill-7" class="cls-1" d="M33.3,9H30.49V6.71h4a.39.39,0,0,0,.36-.25L35,5.89a.39.39,0,0,0-.36-.54h-5.3a.39.39,0,0,0-.38.4v8a.39.39,0,0,0,.38.4h.72a.39.39,0,0,0,.38-.4V10.33h2.6a.38.38,0,0,0,.36-.25l.21-.56A.39.39,0,0,0,33.3,9"/><path id="Fill-9" class="cls-1" d="M49.85,5.35a.39.39,0,0,0-.3.64l.36.54a.38.38,0,0,0,.32.17h2.14v7.41h1.49V6.71H56a.38.38,0,0,0,.32-.18A5.2,5.2,0,0,1,56.71,6a.4.4,0,0,0-.28-.66Z"/><path id="Fill-11" class="cls-1" d="M72.74,5.58,71,9.86a.41.41,0,0,0,0,.3l.52,1.3a.19.19,0,0,0,.36,0l1.56-3.87v6.1a.39.39,0,0,0,.38.4h.72a.39.39,0,0,0,.38-.4v-8a.39.39,0,0,0-.38-.4H73.09a.38.38,0,0,0-.36.24"/><path id="Fill-13" class="cls-1" d="M70.72,13a.39.39,0,0,0,.36-.55l-.56-1.39h0L68.3,5.58a.38.38,0,0,0-.36-.25H66.48a.39.39,0,0,0-.38.4v8a.39.39,0,0,0,.38.4h.72a.39.39,0,0,0,.38-.4V7.59l2.08,5.2A.38.38,0,0,0,70,13Z"/></g><g id="iso"><path id="Fill-17" class="cls-1" d="M8.4,0l.75,0c.8,0,1.21.32,1,1a6.38,6.38,0,0,1-2.6,2.75c-.26.13-.53-.23-.47-.39a.19.19,0,0,1,0-.06A5.57,5.57,0,0,0,9.45.86C9.61.23,9.11,0,8.2,0l.2,0"/><path id="Fill-19" class="cls-1" d="M13,.93a1,1,0,0,1,.5,1.22C13.08,3.92,9.7,6.67,6,8.28A17.35,17.35,0,0,1,4,9c-.33,0-.39-.45-.25-.65a.28.28,0,0,1,.13-.11,16.34,16.34,0,0,0,1.87-.69C9.25,6,12.43,3.46,12.86,1.79A.9.9,0,0,0,12.28.6L13,.93"/><path id="Fill-21" class="cls-1" d="M17,4.87l.11.22a1,1,0,0,1,.11.49.05.05,0,0,1,0,0,1.49,1.49,0,0,1-.37-.72,1.07,1.07,0,0,0-.16-.57l.32.55"/><path id="Fill-23" class="cls-1" d="M17.86,7a1.46,1.46,0,0,1,0,.73C17.39,9.45,14.5,12,11,13.9c-.39.17-.63-.14-.54-.39a.44.44,0,0,1,.2-.23c3.55-1.92,6.48-4.52,6.94-6.29a1.41,1.41,0,0,0,0-.83c.08.25.18.57.25.82"/><path id="Fill-25" class="cls-1" d="M18.13,8.64l0,.3a1.57,1.57,0,0,1-.06.46c-.28,1.07-1.53,2.46-3.28,3.79-.28.18-.41-.08-.37-.29a.55.55,0,0,1,.18-.3c1.81-1.38,3.11-2.82,3.4-3.93a1.53,1.53,0,0,0,0-.58l.06.55"/><path id="Fill-27" class="cls-1" d="M5.34,15.78a.62.62,0,0,0-.53-.31c-1.47.25-2.52.09-2.95-.46l0,0v0l.26.33.27.33c.45.49,1.46.63,2.85.39.18-.05.14-.2.1-.28"/><path id="Fill-29" class="cls-1" d="M9.58,16c0,.06.05.2-.18.32-2.65,1.08-4.73,1.3-5.56.7-.19-.15-.46-.35-.65-.52.81.7,3,.49,5.83-.66.42-.13.56.15.56.16"/><path id="Fill-31" class="cls-1" d="M18.12,10.2c0,.22-.06.51-.09.73l0,.14c-.44,1.71-3.71,4.37-7.3,5.94-2.34,1-4.23,1.32-5.15.94-.23-.11-.53-.25-.75-.37,3.15,1.35,12.87-4.12,13.34-7.5v.12"/><path id="Fill-33" class="cls-1" d="M17.47,12.9c-1.35,2.85-7.57,6-10,5.63l-.85-.21c.89.26,2.54,0,4.54-.91,3.23-1.41,6.17-3.78,6.65-5.35-.08.25-.19.6-.29.84"/><path id="Fill-35" class="cls-1" d="M15.48,15.76a1.13,1.13,0,0,1-.21.26A13.89,13.89,0,0,1,12.06,18a7.79,7.79,0,0,1-2.54.71H8.58a7.8,7.8,0,0,0,3.22-.8,15.74,15.74,0,0,0,3.63-2.21l.08,0,0,0a.72.72,0,0,1,0,.1"/><path id="Fill-37" class="cls-1" d="M.65,8.43a.92.92,0,0,1-.33-.28.87.87,0,0,1-.14-.59c0-.08,0-.17,0-.25l0,.08-.06.34-.07.5h0a1.24,1.24,0,0,0,0,.2s0,.06,0,.09v.05a.89.89,0,0,0,.06.2l0,0,0,0,0,.07v0a1,1,0,0,0,.35.31c.08,0,.12-.13.14-.26s.06-.41-.05-.51"/><g id="Group-41"><path id="Fill-39" class="cls-1" d="M14.68,2l-.36-.28L14,1.49a1,1,0,0,1,.43.88C14.29,5.45,2.74,12.76.17,9.92A1,1,0,0,1,0,9.36c0,.23,0,.54,0,.78H0v.06H0v0s0,0,0,.07v-.05a1,1,0,0,0,0,.16l0,.06v0l0,.09,0-.07a.92.92,0,0,0,.1.18h0c.66.94,3.16.74,6.41-.68C10.73,8.2,14.48,5.15,15,3.19A1.07,1.07,0,0,0,14.68,2"/></g><path id="Fill-42" class="cls-1" d="M16.06,3.37c-.16-.2-.39-.45-.56-.64a1.14,1.14,0,0,1,.22,1.16C15.2,5.94,11.3,9.1,7,11c-3.35,1.46-5.94,1.69-6.65.74v0a1,1,0,0,1-.16-.36c.06.25.15.58.22.83a.64.64,0,0,0,.13.27h0c.72,1,3.36.75,6.79-.75,4.36-1.9,8.34-5.13,8.87-7.21a1.2,1.2,0,0,0-.16-1.11"/><path id="Fill-44" class="cls-1" d="M6.72.32l-.3.09-.29.1L5.83.62l-.3.12L5.31.84,5.08,1l-.21.11-.2.11-.2.12-.2.12-.2.13-.2.14-.21.16L3.45,2l-.23.19L3,2.41a4.63,4.63,0,0,0-.5.54,2.12,2.12,0,0,0-.28.45,1.11,1.11,0,0,0-.05.16.84.84,0,0,0,0,.1A.44.44,0,0,0,2.21,4c.28.39,1.33.3,2.7-.29A10.6,10.6,0,0,0,6.16,3c.09-.08,0-.19,0-.24s-.17-.21-.3-.17a8.44,8.44,0,0,1-1,.52c-1.08.47-1.92.54-2.14.23a.39.39,0,0,1,0-.34,1.41,1.41,0,0,1,.26-.48,4.36,4.36,0,0,1,.69-.68A10.56,10.56,0,0,1,5.68.69L6,.56C7.1.19,7.81.3,7.66.87a1.69,1.69,0,0,1-.35.59A.88.88,0,0,0,8,1.55,2,2,0,0,0,8.43.82C8.6.17,7.87,0,6.72.32"/><path id="Fill-46" class="cls-1" d="M4.17,4.79c-1.3.44-2.27.45-2.56,0a.62.62,0,0,1-.06-.53,1.79,1.79,0,0,1,.2-.44c.07-.11.14-.22.22-.32H2l-.12.17L1.62,4l-.21.31c-.06.1-.13.23-.18.33a1.54,1.54,0,0,0-.08.23,1.11,1.11,0,0,0,0,.15,1.12,1.12,0,0,0,0,.25h0a.59.59,0,0,0,.09.2h0a1.62,1.62,0,0,0,1.41.31c1.66-.21,1.68-.5,1.7-.7,0,0,0-.36-.17-.33"/><path id="Fill-48" class="cls-1" d="M11.37.31,11,.22a.81.81,0,0,0-.3,0,.74.74,0,0,1,.48,1C10.84,2.55,8.2,4.69,5.31,6c-2.28,1-4,1.14-4.5.49a.82.82,0,0,1-.08-.7,1.91,1.91,0,0,1,.11-.31c-.11.24-.23.58-.32.82l0,.15a1.48,1.48,0,0,0,0,.19.81.81,0,0,0,.13.58c.51.72,2.44.55,4.93-.53,3.16-1.38,6-3.72,6.43-5.23A.82.82,0,0,0,11.37.31"/><path id="Fill-50" class="cls-1" d="M1.28,14.11a1,1,0,0,1-.15-.28h0v0l-.19-.4c.72,1,3.41.77,6.9-.75a25.61,25.61,0,0,0,6.8-4.32.3.3,0,0,1,.47.2A.49.49,0,0,1,15,9a25.65,25.65,0,0,1-6.82,4.33c-3.27,1.42-5.83,1.72-6.74.93a1.75,1.75,0,0,1-.17-.18"/></g></g></g></g></g></g></svg>