<?xml version="1.0" encoding="utf-8"?>
<!-- Generator: Adobe Illustrator 19.2.0, SVG Export Plug-In . SVG Version: 6.00 Build 0)  -->
<svg version="1.1" id="Layer_1" xmlns="http://www.w3.org/2000/svg" xmlns:xlink="http://www.w3.org/1999/xlink" x="0px" y="0px"
	 viewBox="0 0 119.5 81.2" style="enable-background:new 0 0 119.5 81.2;" xml:space="preserve">
<g>
	<path style="fill:#417BA4;" d="M32.1,69.8c0-6.8,5.1-11.4,11.6-11.4c3.9,0,6.5,1.8,8.2,4c0.4,0.5,0.2,1.2-0.4,1.5L50,64.6
		c-0.4,0.2-0.9,0.1-1.2-0.3c-1.2-1.5-3-2.5-5.1-2.5c-4.4,0-7.6,3.4-7.6,8s3.3,8,7.6,8c2.1,0,4-1,5.1-2.5c0.3-0.4,0.8-0.5,1.2-0.3
		l1.5,0.8c0.6,0.3,0.7,1,0.3,1.5c-1.7,2.2-4.3,4-8.2,4C37.1,81.2,32.1,76.6,32.1,69.8z"/>
	<path style="fill:#417BA4;" d="M71.1,69.8c0-5.3,3-9.5,7.6-10.9c0.2-0.1,0.4-0.1,0.7-0.2c1-0.2,2-0.4,3-0.4
		c6.6,0,11.3,4.8,11.3,11.4S89,81.1,82.4,81.1C75.8,81.2,71.1,76.4,71.1,69.8z M89.8,69.8c0-4.6-2.9-8-7.3-8c-4.5,0-7.3,3.4-7.3,8
		c0,4.5,2.9,8,7.3,8S89.8,74.3,89.8,69.8z"/>
	<path style="fill:#417BA4;" d="M23.7,58.7h-3.5c-0.4,0-0.8,0.3-0.9,0.6l-7.9,20.1c-0.3,0.7,0.2,1.4,0.9,1.4h2.3
		c0.4,0,0.8-0.3,0.9-0.6l1.4-3.6l1.1-3.4l1.1-3l2.8-7.5l4,10.5h-4c-0.4,0-0.8,0.3-1,0.7L20.2,76c-0.1,0.3,0.1,0.7,0.5,0.7H27
		l1.4,3.6c0.1,0.4,0.5,0.6,0.9,0.6h2.3c0.7,0,1.2-0.7,0.9-1.4l-7.9-20.1C24.4,59,24.1,58.7,23.7,58.7z"/>
	<path style="fill:#417BA4;" d="M11.2,67.9H3.9v-5.7h10.3c0.4,0,0.8-0.3,0.9-0.6l0.6-1.4c0.3-0.7-0.2-1.4-0.9-1.4H1
		c-0.6,0-1,0.4-1,1v20.1c0,0.6,0.4,1,1,1h1.9c0.6,0,1-0.4,1-1v-8.6h6.8c0.4,0,0.8-0.3,0.9-0.6l0.6-1.4
		C12.4,68.6,11.9,67.9,11.2,67.9z"/>
	<path style="fill:#417BA4;" d="M54.2,58.7c-0.8,0-1.3,1-0.8,1.6l0.9,1.4c0.2,0.3,0.5,0.4,0.8,0.4h5.6v18.7h3.9V62.1h5.6
		c0.3,0,0.6-0.2,0.8-0.4c0.3-0.5,0.6-0.9,1-1.3c0.6-0.6,0.1-1.7-0.7-1.7L54.2,58.7z"/>
	<g>
		<path style="fill:#417BA4;" d="M113.7,59.3l-4.5,10.8c-0.1,0.2-0.1,0.5,0,0.8l1.4,3.3c0.2,0.4,0.8,0.4,0.9,0l4.1-9.8v15.4
			c0,0.6,0.4,1,1,1h1.9c0.6,0,1-0.4,1-1V59.7c0-0.6-0.4-1-1-1h-3.8C114.2,58.7,113.9,58.9,113.7,59.3z"/>
		<path style="fill:#417BA4;" d="M108.5,78.1c0.7,0,1.2-0.7,0.9-1.4l-1.5-3.5l0,0l-5.7-13.9c-0.2-0.4-0.5-0.6-0.9-0.6h-3.8
			c-0.6,0-1,0.4-1,1v20.1c0,0.6,0.4,1,1,1h1.9c0.6,0,1-0.4,1-1V64.4l5.4,13.1c0.2,0.4,0.5,0.6,0.9,0.6H108.5z"/>
	</g>
</g>
<g>
	<g style="enable-background:new    ;">
		<g>
			<g>
				<path style="fill:#E8B521;" d="M55,40c-0.5,0.7-0.9,1.3-1.2,1.9C54.1,41.3,54.5,40.6,55,40"/>
			</g>
		</g>
	</g>
	<path style="fill:#D37D41;" d="M58,0.1C58.6,0,59.4,0,59.9,0c2,0,3,0.8,2.6,2.3C62,4.2,59.4,6.7,56,9c-0.7,0.3-1.3-0.6-1.2-0.9
		C54.9,8.1,54.9,8,55,8c3-2,5.3-4.2,5.7-5.9c0.4-1.5-0.9-2.2-3.1-2L58,0.1"/>
	<path style="fill:#E8B521;" d="M69.7,2.3c1.2,0.5,1.6,1.5,1.3,3c-1.2,4.3-9.6,11-19,15c-1.8,0.7-3.4,1.3-5,1.8
		c-0.8,0.1-1-1.1-0.6-1.6c0.1-0.2,0.2-0.2,0.3-0.3c1.4-0.4,3-1,4.7-1.7c8.8-3.7,16.8-10,17.9-14.1c0.4-1.5-0.2-2.4-1.5-2.9
		C68.3,1.7,69.1,2,69.7,2.3"/>
	<path style="fill:#E8B521;" d="M79.8,11.9l0.3,0.5c0.3,0.7,0.3,0.7,0.3,1.2v0.1c-0.3-0.1-0.9-1.3-0.9-1.8s-0.1-1-0.4-1.4L79.8,11.9
		"/>
	<path style="fill:#417BA4;" d="M81.8,17.1c0.1,0.5,0.1,1.1-0.1,1.8c-1.1,4.3-8.4,10.5-17.2,15.1c-1,0.4-1.6-0.3-1.3-1
		c0.1-0.3,0.3-0.4,0.5-0.6c8.9-4.7,16.3-11,17.5-15.4c0.2-0.8,0.2-1.5,0-2C81.4,15.6,81.7,16.4,81.8,17.1"/>
	<path style="fill:#D37D41;" d="M82.5,21.1v0.7c0,0.3,0,0.7-0.1,1.1c-0.7,2.6-3.8,6-8.3,9.3c-0.7,0.4-1-0.2-0.9-0.7
		c0.1-0.4,0.3-0.6,0.5-0.7c4.6-3.4,7.8-6.9,8.5-9.6c0.1-0.5,0.2-1,0.1-1.4L82.5,21.1"/>
	<path style="fill:#417BA4;" d="M50.3,38.6c-0.1-0.2-0.6-0.8-1.3-0.8c-3.7,0.6-6.3,0.2-7.4-1.1c0,0,0,0-0.1-0.1l0,0
		c0.2,0.3,0.4,0.5,0.7,0.8c0.2,0.3,0.5,0.6,0.7,0.8c1.1,1.2,3.7,1.5,7.2,1C50.6,39.1,50.4,38.7,50.3,38.6z"/>
	<path style="fill:#D37D41;" d="M61,39c0.1,0.1,0.1,0.5-0.5,0.8c-6.7,2.6-11.9,3.2-14,1.7c-0.5-0.4-1.2-0.9-1.6-1.3
		c2,1.7,7.6,1.2,14.7-1.6C60.6,38.3,61,39,61,39"/>
	<path style="fill:#417BA4;" d="M82.5,24.9c-0.1,0.5-0.1,1.3-0.2,1.8c0,0.1,0,0.2-0.1,0.3c-1.1,4.2-9.3,10.7-18.4,14.5
		c-5.9,2.5-10.6,3.2-12.9,2.3c-0.6-0.3-1.3-0.6-1.9-0.9c7.9,3.3,32.4-10.1,33.5-18.3V24.9"/>
	<path style="fill:#E8B521;" d="M80.8,31.5c-3.4,7-19,14.7-25.2,13.7c-0.6-0.1-1.5-0.3-2.1-0.5c2.2,0.6,6.4-0.1,11.4-2.2
		c8.1-3.4,15.5-9.2,16.7-13.1C81.3,30.1,81.1,30.9,80.8,31.5"/>
	<path style="fill:#417BA4;" d="M75.8,38.5c0,0.1-0.2,0.4-0.5,0.6c-2.2,1.7-5,3.5-8,4.8c-2.5,1.1-4.7,1.6-6.4,1.7
		c-0.7,0-1.7,0-2.4,0c1.9,0.1,4.8-0.5,8.1-2c3.4-1.4,6.7-3.4,9.1-5.4c0.1,0,0.1-0.1,0.2-0.1v0.1C75.9,38.3,75.9,38.4,75.8,38.5"/>
	<path style="fill:#E8B521;" d="M38.6,20.6c-0.4-0.2-0.6-0.4-0.8-0.7c-0.3-0.4-0.4-0.9-0.4-1.5c0-0.2,0.1-0.4,0.1-0.6
		c0,0.1,0,0.1,0,0.2l-0.2,0.8L37.1,20l0,0c0,0.2,0,0.3,0,0.5c0,0.1,0,0.1,0,0.2v0.1c0,0.2,0.1,0.3,0.1,0.5c0,0,0,0,0,0.1
		c0,0,0,0.1,0.1,0.1c0,0.1,0.1,0.1,0.1,0.2l0,0c0.2,0.3,0.5,0.6,0.9,0.8c0.2,0,0.3-0.3,0.4-0.6C38.7,21.8,38.8,20.9,38.6,20.6z"/>
	<path style="fill:#D37D41;" d="M73.8,4.9l-0.9-0.7l-0.8-0.5c0.4,0.3,1.2,0.9,1.1,2.2c-0.4,7.5-29.4,25.4-35.9,18.4
		c-0.3-0.4-0.4-0.8-0.4-1.4c0,0.6,0.1,1.3,0.1,1.9l0,0v0.1l0,0V25l0,0c0,0.1,0,0.1,0,0.2v-0.1c0,0.1,0,0.3,0.1,0.4v0.1
		c0,0,0,0,0,0.1l0,0c0,0.1,0.1,0.1,0.1,0.2c0-0.1-0.1-0.1-0.1-0.2c0.1,0.2,0.1,0.3,0.2,0.4l0,0c1.7,2.3,7.9,1.8,16.1-1.7
		c10.3-4.4,19.8-11.8,21-16.6C74.9,6.5,74.6,5.5,73.8,4.9z"/>
	<path style="fill:#417BA4;" d="M77.3,8.2c-0.4-0.5-1-1.1-1.4-1.6c0.7,0.7,0.9,1.6,0.6,2.8c-1.3,5-11.1,12.7-21.9,17.3
		c-8.4,3.6-14.9,4.1-16.7,1.8l0,0c-0.2-0.3-0.3-0.6-0.4-0.9c0.1,0.6,0.4,1.4,0.5,2c0.1,0.4,0.2,0.4,0.3,0.6l0,0l0,0l0,0l0,0l0,0l0,0
		l0,0c1.8,2.4,8.5,1.8,17.1-1.8c11-4.6,21-12.5,22.3-17.6C78,9.8,77.9,8.9,77.3,8.2z"/>
	<path style="fill:#417BA4;" d="M53.8,0.8C53.5,0.9,53.3,0.9,53,1s-0.4,0.1-0.7,0.2s-0.5,0.2-0.7,0.3c-0.2,0.1-0.4,0.2-0.7,0.3
		c-0.3,0.1-0.3,0.1-0.6,0.3c-0.2,0.1-0.3,0.1-0.6,0.3c-0.2,0.1-0.3,0.2-0.5,0.3S48.9,2.9,48.7,3c-0.3,0-0.3,0-0.5,0.2
		c-0.2,0.1-0.3,0.2-0.5,0.3s-0.3,0.2-0.5,0.3S46.9,4,46.7,4.1c-0.2,0.2-0.3,0.2-0.5,0.4c-0.2,0.2-0.3,0.2-0.5,0.4
		c-0.3,0.2-0.4,0.3-0.6,0.5c-0.2,0.2-0.3,0.3-0.6,0.5c-0.5,0.5-0.9,0.9-1.3,1.3c-0.3,0.4-0.5,0.8-0.7,1.1c-0.1,0.1-0.1,0.3-0.1,0.4
		c0,0.1,0,0.2,0,0.2c0,0.3,0,0.6,0.2,0.8c0.7,1,3.4,0.7,6.8-0.7c1.1-0.5,2.2-1,3.1-1.6c0.2-0.2,0.1-0.5,0-0.6s-0.4-0.5-0.7-0.4
		c-0.8,0.5-1.6,0.9-2.5,1.3c-2.7,1.2-4.8,1.3-5.4,0.6c-0.2-0.2-0.2-0.5-0.1-0.8c0.1-0.4,0.3-0.8,0.7-1.2c0.4-0.5,1-1.1,1.7-1.7
		c1.5-1.1,3.3-2.1,5.2-2.9c0.3-0.1,0.6-0.2,0.9-0.3c2.7-0.9,4.5-0.6,4.1,0.8c-0.1,0.4-0.4,0.9-0.9,1.5c0,0.1,1,0.3,1.5,0.1
		c0.6-0.6,1-1.3,1.1-1.8C58.5,0.4,56.7,0,53.8,0.8z"/>
	<path style="fill:#D37D41;" d="M47.4,11.7c-3.3,1.1-5.7,1.1-6.4,0.1c-0.2-0.3-0.3-0.8-0.2-1.3c0.1-0.4,0.3-0.8,0.5-1.1
		s0.3-0.5,0.5-0.8l0,0L41.5,9c-0.2,0.2-0.4,0.5-0.5,0.8c-0.2,0.3-0.4,0.5-0.5,0.8c-0.1,0.2-0.3,0.6-0.4,0.8C40,11.6,40,11.8,39.9,12
		c0,0.1-0.1,0.2-0.1,0.4c0,0.3,0,0.4,0,0.6l0,0c0,0.2,0.1,0.3,0.2,0.5l0,0c0.8,0.9,2.3,0.9,3.5,0.8c4.2-0.5,4.2-1.2,4.3-1.7
		C47.8,12.5,47.9,11.6,47.4,11.7z"/>
	<path style="fill:#417BA4;" d="M65.5,0.8c-0.2-0.1-0.5-0.1-0.9-0.2c-0.5-0.1-0.6-0.1-0.8-0.1c1.1,0.4,1.5,1.2,1.2,2.4
		c-0.9,3.4-7.5,8.6-14.8,11.7c-5.7,2.4-10.1,2.8-11.3,1.2c-0.3-0.4-0.4-1-0.2-1.7c0.1-0.2,0.2-0.5,0.3-0.8c-0.3,0.6-0.6,1.4-0.8,2
		c0,0.1-0.1,0.2-0.1,0.4S38,16,38,16.2c-0.1,0.6,0,1,0.3,1.4c1.3,1.8,6.1,1.4,12.4-1.3c8-3.4,15.2-9.1,16.2-12.8
		C67.2,2.1,66.7,1.2,65.5,0.8z"/>
	<path style="fill:#E8B521;" d="M40.1,34.5c0,0-0.1-0.1-0.4-0.7l0,0c0,0,0,0,0-0.1c-0.2-0.3-0.3-0.6-0.5-1c1.8,2.5,8.6,1.9,17.3-1.8
		c6.6-2.8,12.8-6.7,17.1-10.6c0.7-0.4,1.1,0.2,1.2,0.5c0.2,0.6,0,1-0.2,1.2c-4.3,3.8-10.5,7.8-17.1,10.6c-8.2,3.5-14.7,4.2-16.9,2.3
		C40.6,34.9,40.3,34.6,40.1,34.5"/>
	<path style="fill:#E8B521;" d="M40.1,34.5"/>
</g>
</svg>
