<?xml version="1.0" encoding="utf-8"?>
<!-- Generator: Adobe Illustrator 19.2.0, SVG Export Plug-In . SVG Version: 6.00 Build 0)  -->
<svg version="1.1" id="Layer_1" xmlns="http://www.w3.org/2000/svg" xmlns:xlink="http://www.w3.org/1999/xlink" x="0px" y="0px"
	 viewBox="0 0 57.6 57.6" style="enable-background:new 0 0 57.6 57.6;" xml:space="preserve">
<g>
	<path style="fill:#417BA4;" d="M43.7,0.4c-1.1,0.4-3.2,2-4.5,3.4l-2.5,2.7l6.5,6.9c3.6,3.8,7.1,6.8,7.8,6.8c1.9,0,6.6-6,6.6-8.4
		S50.2,0.9,47.5,0.2C46.5-0.1,44.7,0,43.7,0.4z"/>
	<path style="fill:#417BA4;" d="M21.2,22.1l-11,11.1l6.9,7l6.9,7l10.1-9.5c5.7-5.2,10.7-10.4,11.2-11.6c1-1.8,0.2-2.9-5.4-8.6
		c-3.6-3.6-6.8-6.7-7.1-6.7C32.6,10.8,27.3,15.8,21.2,22.1z"/>
	<path style="fill:#417BA4;" d="M2.3,47.8c-3.8,11.7-4.1,11.4,8.8,7l8.4-2.8l-7-7.1l-7-7L2.3,47.8z"/>
</g>
</svg>
