<?xml version="1.0" encoding="UTF-8"?>
<svg width="278px" height="212px" viewBox="0 0 278 212" version="1.1" xmlns="http://www.w3.org/2000/svg" xmlns:xlink="http://www.w3.org/1999/xlink">
    <!-- Generator: Sketch 46 (44423) - http://www.bohemiancoding.com/sketch -->
    <title>illus-ok</title>
    <desc>Created with Sketch.</desc>
    <defs>
        <linearGradient x1="50%" y1="0%" x2="50%" y2="100%" id="linearGradient-1">
            <stop stop-color="#FFFB7A" offset="0%"></stop>
            <stop stop-color="#FFFFFF" stop-opacity="0" offset="100%"></stop>
        </linearGradient>
    </defs>
    <g id="Backup-LightTeme" stroke="none" stroke-width="1" fill="none" fill-rule="evenodd">
        <g id="03-backup-light" transform="translate(-718.000000, -103.000000)">
            <g id="illus-yellow-light-theme" transform="translate(718.000000, 103.000000)">
                <path d="M204.220628,164.434524 C189.392358,164.434524 177.328697,152.34956 177.328697,137.495105 L177.328697,86.1795418 C177.328697,71.3250873 189.392358,59.2401236 204.220628,59.2401236 C219.048898,59.2401236 231.112558,71.3250873 231.112558,86.1795418 L231.112558,137.495105 C231.112558,152.34956 219.048898,164.434524 204.220628,164.434524 Z" id="Fill-1" fill="#FFFFFF" fill-rule="evenodd"></path>
                <path d="M204.220628,58.7582091 C189.16534,58.7582091 176.847728,71.0975727 176.847728,86.1794455 L176.847728,137.495973 C176.847728,152.576882 189.16534,164.916245 204.220628,164.916245 C219.275915,164.916245 231.593527,152.576882 231.593527,137.495973 L231.593527,86.1794455 C231.593527,71.0975727 219.275915,58.7582091 204.220628,58.7582091 M204.220628,59.7218455 C218.783403,59.7218455 230.63159,71.5909545 230.63159,86.1794455 L230.63159,137.495973 C230.63159,152.084464 218.783403,163.952609 204.220628,163.952609 C189.657853,163.952609 177.809666,152.084464 177.809666,137.495973 L177.809666,86.1794455 C177.809666,71.5909545 189.657853,59.7218455 204.220628,59.7218455" id="Fill-3" fill="#756F8A" fill-rule="evenodd"></path>
                <path d="M255.677177,123.303055 C251.845779,123.303055 248.728139,120.180873 248.728139,116.341745 C248.728139,112.503582 251.845779,109.3814 255.677177,109.3814 C259.508575,109.3814 262.626215,112.503582 262.626215,116.341745 C262.626215,120.180873 259.508575,123.303055 255.677177,123.303055" id="Fill-5" fill="#FFFFFF" fill-rule="evenodd"></path>
                <path d="M255.677177,108.899293 C251.573551,108.899293 248.24717,112.231547 248.24717,116.34242 C248.24717,120.452329 251.573551,123.784584 255.677177,123.784584 C259.780803,123.784584 263.107184,120.452329 263.107184,116.34242 C263.107184,112.231547 259.780803,108.899293 255.677177,108.899293 M255.677177,109.862929 C259.24308,109.862929 262.145246,112.77022 262.145246,116.34242 C262.145246,119.915584 259.24308,122.820947 255.677177,122.820947 C252.110312,122.820947 249.209108,119.915584 249.209108,116.34242 C249.209108,112.77022 252.110312,109.862929 255.677177,109.862929" id="Fill-7" fill="#DA8141" fill-rule="evenodd"></path>
                <path d="M173.328671,170.310393 C158.500401,170.310393 146.43674,158.225429 146.43674,143.370975 L146.43674,96.8292655 C151.516734,96.4679018 155.465488,90.4249382 159.638374,84.0379564 C164.331668,76.8540473 169.185606,69.4253745 175.935522,69.4253745 L195.227183,69.4253745 C210.054491,69.4253745 222.118152,81.5103382 222.118152,96.3647927 L222.118152,143.370975 C222.118152,158.225429 210.054491,170.310393 195.227183,170.310393 L173.328671,170.310393 Z" id="Fill-9" fill="#FFFFFF" fill-rule="evenodd"></path>
                <path d="M195.226895,68.9431709 L175.936196,68.9431709 C162.641255,68.9431709 156.644535,96.3644073 145.956445,96.3644073 L145.956445,143.370589 C145.956445,158.453425 158.274057,170.791825 173.328383,170.791825 L195.226895,170.791825 C210.282182,170.791825 222.599794,158.453425 222.599794,143.370589 L222.599794,96.3644073 C222.599794,81.2834982 210.282182,68.9431709 195.226895,68.9431709 M195.226895,69.9068073 C209.78967,69.9068073 221.637857,81.7749527 221.637857,96.3644073 L221.637857,143.370589 C221.637857,157.960044 209.78967,169.828189 195.226895,169.828189 L173.328383,169.828189 C158.765608,169.828189 146.918383,157.960044 146.918383,143.370589 L146.918383,97.2644436 C152.012805,96.5870073 155.919234,90.6086073 160.040175,84.3016073 C164.66421,77.2246618 169.446002,69.9068073 175.936196,69.9068073 L195.226895,69.9068073" id="Fill-11" fill="#756F8A" fill-rule="evenodd"></path>
                <path d="M215.299745,99.2366218 C215.299745,99.2366218 205.393711,128.485876 128.750361,128.485876" id="Stroke-15" stroke="#756F8A" stroke-width="1"></path>
                <path d="M205.133218,84.8733327 C205.133218,84.8733327 196.791294,117.77766 133.964256,117.77766" id="Stroke-19" stroke="#756F8A" stroke-width="1"></path>
                <path d="M170.721916,92.4469364 C170.721916,92.4469364 162.901363,113.599718 111.806117,120.129318" id="Stroke-23" stroke="#756F8A" stroke-width="1"></path>
                <polygon id="Fill-25" fill="#407BA4" fill-rule="evenodd" points="89.2187612 131.923071 72.3184775 78.0529073 146.611813 79.1341073 162.204824 132.242998"></polygon>
                <path d="M71.6596464,77.5613564 L88.8648644,132.402865 L162.847494,132.727611 L146.972636,78.6579745 L71.6596464,77.5613564 Z M72.9765391,78.5452291 L146.250221,79.6110109 L161.560421,131.758193 L89.5718886,131.44212 L72.9765391,78.5452291 Z" id="Fill-27" fill="#407BA4" fill-rule="evenodd"></path>
                <polygon id="Fill-29" fill="#407BA4" fill-rule="evenodd" points="163.038535 131.634173 161.494625 126.033518 185.361262 128.143882 185.361262 131.915555"></polygon>
                <path d="M160.846471,125.491955 L162.671267,132.111173 L185.841461,132.403155 L185.841461,127.702536 L160.846471,125.491955 Z M162.143163,126.574118 L184.879523,128.584264 L184.879523,131.426991 L163.406188,131.157173 L162.143163,126.574118 Z" id="Fill-31" fill="#407BA4" fill-rule="evenodd"></path>
                <polyline id="Fill-33" fill="#FFFFFF" fill-rule="evenodd" points="47.4055412 211.531287 47.4055412 136.320433 230.410344 136.320433 230.410344 211.531287"></polyline>
                <polyline id="Stroke-35" stroke="#756F8A" stroke-width="1" points="47.4055412 211.531287 47.4055412 136.320433 230.410344 136.320433 230.410344 211.531287"></polyline>
                <path d="M60.7006747,160.607249 L81.0341142,180.977558" id="Fill-37" fill="#000000" fill-rule="evenodd"></path>
                <path d="M60.7006747,160.607249 L81.0341142,180.977558" id="Stroke-39" stroke="#756F8A" stroke-width="1"></path>
                <path d="M73.215773,162.174122 L77.9081052,166.87474" id="Fill-41" fill="#000000" fill-rule="evenodd"></path>
                <path d="M73.215773,162.174122 L77.9081052,166.87474" id="Stroke-43" stroke="#756F8A" stroke-width="1"></path>
                <polygon id="Fill-45" fill="#FFFFFF" fill-rule="evenodd" points="0.480968858 140.539618 277.334339 140.539618 277.334339 130.534182 0.480968858 130.534182"></polygon>
                <path d="M183.49568,77.2752527 C179.447846,77.2752527 176.156095,73.9767255 176.156095,69.9227073 L176.156095,60.6448164 C176.156095,56.5907982 179.447846,53.2922709 183.49568,53.2922709 L185.641763,53.2922709 C189.688635,53.2922709 192.981347,56.5907982 192.981347,60.6448164 L192.981347,69.9227073 C192.981347,73.9767255 189.688635,77.2752527 185.641763,77.2752527 L183.49568,77.2752527 Z" id="Fill-48" fill="#FFFFFF" fill-rule="evenodd"></path>
                <path d="M185.641763,52.8107418 L183.49568,52.8107418 C179.193894,52.8107418 175.675126,56.3357236 175.675126,60.6451055 L175.675126,69.9229964 C175.675126,74.2314145 179.193894,77.75736 183.49568,77.75736 L185.641763,77.75736 C189.943548,77.75736 193.462316,74.2314145 193.462316,69.9229964 L193.462316,60.6451055 C193.462316,56.3357236 189.943548,52.8107418 185.641763,52.8107418 M185.641763,53.7743782 C189.424102,53.7743782 192.500379,56.8560873 192.500379,60.6451055 L192.500379,69.9229964 C192.500379,73.7110509 189.424102,76.7937236 185.641763,76.7937236 L183.49568,76.7937236 C179.71334,76.7937236 176.637064,73.7110509 176.637064,69.9229964 L176.637064,60.6451055 C176.637064,56.8560873 179.71334,53.7743782 183.49568,53.7743782 L185.641763,53.7743782" id="Fill-49" fill="#756F8A" fill-rule="evenodd"></path>
                <path d="M184.277735,65.3277036 C169.449465,65.3277036 157.385804,53.24274 157.385804,38.3882855 L157.385804,27.4201764 C157.385804,12.5666855 169.449465,0.481721818 184.277735,0.481721818 C199.106005,0.481721818 211.169666,12.5666855 211.169666,27.4201764 L211.169666,38.3882855 C211.169666,53.24274 199.106005,65.3277036 184.277735,65.3277036" id="Fill-50" fill="#FFFFFF" fill-rule="evenodd"></path>
                <path d="M184.277735,-0.000578181818 C169.22341,-0.000578181818 156.904835,12.3387855 156.904835,27.4206582 L156.904835,38.3887673 C156.904835,53.47064 169.22341,65.80904 184.277735,65.80904 C199.33206,65.80904 211.650635,53.47064 211.650635,38.3887673 L211.650635,27.4206582 C211.650635,12.3387855 199.33206,-0.000578181818 184.277735,-0.000578181818 M184.277735,0.963058182 C198.84051,0.963058182 210.688697,12.8321673 210.688697,27.4206582 L210.688697,38.3887673 C210.688697,52.9772582 198.84051,64.8454036 184.277735,64.8454036 C169.71496,64.8454036 157.866773,52.9772582 157.866773,38.3887673 L157.866773,27.4206582 C157.866773,12.8321673 169.71496,0.963058182 184.277735,0.963058182" id="Fill-51" fill="#756F8A" fill-rule="evenodd"></path>
                <path d="M157.369836,36.33998 C156.085649,36.33998 155.040023,35.2934709 155.040023,34.0060527 L155.040023,26.3355073 L171.283303,26.3355073 L171.283303,34.0060527 C171.283303,35.2934709 170.238639,36.33998 168.95349,36.33998 L157.369836,36.33998 Z" id="Fill-52" fill="#FFFFFF" fill-rule="evenodd"></path>
                <path d="M171.764561,25.8534 L154.559343,25.8534 L154.559343,34.0057636 C154.559343,35.5543273 155.824291,36.8215091 157.370125,36.8215091 L168.953779,36.8215091 C170.499612,36.8215091 171.764561,35.5543273 171.764561,34.0057636 L171.764561,25.8534 Z M170.802623,26.8170364 L170.802623,34.0057636 C170.802623,35.0272182 169.973433,35.8578727 168.953779,35.8578727 L157.370125,35.8578727 C156.350471,35.8578727 155.52128,35.0272182 155.52128,34.0057636 L155.52128,26.8170364 L170.802623,26.8170364 L170.802623,26.8170364 Z" id="Fill-53" fill="#EDB820" fill-rule="evenodd"></path>
                <path d="M179.267963,36.33998 C177.982815,36.33998 176.93815,35.2934709 176.93815,34.0060527 L176.93815,26.3355073 L193.18143,26.3355073 L193.18143,34.0060527 C193.18143,35.2934709 192.136766,36.33998 190.851617,36.33998 L179.267963,36.33998 Z" id="Fill-54" fill="#FFFFFF" fill-rule="evenodd"></path>
                <path d="M193.662784,25.8534 L176.457566,25.8534 L176.457566,34.0057636 C176.457566,35.5543273 177.721552,36.8215091 179.268348,36.8215091 L190.852002,36.8215091 C192.397836,36.8215091 193.662784,35.5543273 193.662784,34.0057636 L193.662784,25.8534 Z M192.700846,26.8170364 L192.700846,34.0057636 C192.700846,35.0272182 191.871656,35.8578727 190.852002,35.8578727 L179.268348,35.8578727 C178.248694,35.8578727 177.419504,35.0272182 177.419504,34.0057636 L177.419504,26.8170364 L192.700846,26.8170364 L192.700846,26.8170364 Z" id="Fill-55" fill="#EDB820" fill-rule="evenodd"></path>
                <path d="M171.764561,26.9544509 L176.456893,26.9544509" id="Fill-56" fill="#000000" fill-rule="evenodd"></path>
                <path d="M171.764561,26.9544509 L176.456893,26.9544509" id="Stroke-57" stroke="#EDB820" stroke-width="1"></path>
                <polyline id="Fill-59" fill="#FFFFFF" fill-rule="evenodd" points="171.764561 26.9544509 168.636339 39.9558327 174.110727 39.9558327"></polyline>
                <polyline id="Stroke-60" stroke="#756F8A" stroke-width="1" points="171.764561 26.9544509 168.636339 39.9558327 174.110727 39.9558327"></polyline>
                <path d="M176.446391,50.9239418 C176.446391,52.6546327 174.350221,54.0576873 171.764561,54.0576873 C169.1789,54.0576873 167.08273,52.6546327 167.08273,50.9239418" id="Stroke-63" stroke="#756F8A" stroke-width="1"></path>
                <path d="M161.40401,32.9047127 C161.40401,33.5252945 160.901879,34.0283127 160.282391,34.0283127 C159.662903,34.0283127 159.15981,33.5252945 159.15981,32.9047127 C159.15981,32.2841309 159.662903,31.7801491 160.282391,31.7801491 C160.901879,31.7801491 161.40401,32.2841309 161.40401,32.9047127" id="Fill-65" fill="#756F8A" fill-rule="evenodd"></path>
                <path d="M183.744148,32.9047127 C183.744148,33.5252945 183.242017,34.0283127 182.622529,34.0283127 C182.003041,34.0283127 181.500909,33.5252945 181.500909,32.9047127 C181.500909,32.2841309 182.003041,31.7801491 182.622529,31.7801491 C183.242017,31.7801491 183.744148,32.2841309 183.744148,32.9047127" id="Fill-66" fill="#756F8A" fill-rule="evenodd"></path>
                <path d="M159.251386,21.1528782 C159.251386,21.1528782 181.149898,27.0291327 195.226895,11.3594418 C195.226895,11.3594418 196.791006,30.5541145 204.611559,30.5541145 L205.003068,30.5541145 C206.298798,30.5541145 207.348272,31.6064055 207.348272,32.9044236 C207.348272,34.2024418 206.298798,35.2547327 205.003068,35.2547327 C205.003068,35.2547327 204.611559,46.2238055 209.303891,46.2238055" id="Stroke-67" stroke="#756F8A" stroke-width="1"></path>
                <path d="M55.6209702,48.5675618 C55.6209702,44.0432891 51.9261675,40.3409982 47.408908,40.3409982 C42.8935723,40.3409982 39.1978076,44.0432891 39.1978076,48.5675618 L39.1978076,128.09358" id="Fill-68" fill="#FFFFFF" fill-rule="evenodd"></path>
                <path d="M55.6209702,48.5675618 C55.6209702,44.0432891 51.9261675,40.3409982 47.408908,40.3409982 C42.8935723,40.3409982 39.1978076,44.0432891 39.1978076,48.5675618 L39.1978076,128.09358" id="Stroke-69" stroke="#EDB820" stroke-width="1"></path>
                <polygon id="Fill-71" fill="#FFFFFF" fill-rule="evenodd" points="51.5205183 47.9972818 59.1159785 43.9731364 68.575674 55.5974818 55.7857502 62.3718455"></polygon>
                <path d="M59.2399723,43.3625764 L50.9471073,47.7557945 L55.492263,63.0727945 L69.3191557,55.7481945 L59.2399723,43.3625764 Z M58.9927543,44.5835036 L67.832,55.4456127 L56.0800069,61.6716673 L52.093737,48.2385764 L58.9927543,44.5835036 Z" id="Fill-72" fill="#EDB820" fill-rule="evenodd"></path>
                <polygon id="Fill-73" fill="#FFFFFF" fill-rule="evenodd" points="30.2943045 130.353982 48.1016955 130.353982 48.1016955 125.833564 30.2943045 125.833564"></polygon>
                <path d="M29.8123737,130.8358 L48.5826644,130.8358 L48.5826644,125.351745 L29.8123737,125.351745 L29.8123737,130.8358 Z M30.7743114,129.872164 L47.6207266,129.872164 L47.6207266,126.315382 L30.7743114,126.315382 L30.7743114,129.872164 Z" id="Fill-74" fill="#EDB820" fill-rule="evenodd"></path>
                <polygon id="Fill-75" fill="#FFFFFF" fill-rule="evenodd" points="242.808471 129.962842 239.798567 105.855551 256.305419 105.855551 253.295516 129.962842"></polygon>
                <path d="M256.850068,105.374118 L239.254303,105.374118 L242.383487,130.445045 L253.719922,130.445045 L256.850068,105.374118 Z M255.760192,106.337755 L252.870531,129.481409 L243.232878,129.481409 L240.343217,106.337755 L255.760192,106.337755 Z" id="Fill-76" fill="#DA8141" fill-rule="evenodd"></path>
                <polygon id="Path-2" fill="url(#linearGradient-1)" fill-rule="evenodd" opacity="0.251811594" points="59 64.3049645 69.1 127 160 127 69.1 59"></polygon>
                <path d="M0,141.021436 L277.81627,141.021436 L277.81627,130.052364 L0,130.052364 L0,141.021436 Z M0.961937716,140.0578 L276.854332,140.0578 L276.854332,131.016 L0.961937716,131.016 L0.961937716,140.0578 Z" id="Fill-47" fill="#756F8A" fill-rule="evenodd"></path>
                <path d="M193.5,29.5 L200.5,29.5" id="Line" stroke="#EDB820" stroke-width="1" stroke-linecap="square"></path>
            </g>
        </g>
    </g>
</svg>