<?xml version="1.0" encoding="utf-8"?>
<!-- Generator: Adobe Illustrator 19.2.0, SVG Export Plug-In . SVG Version: 6.00 Build 0)  -->
<svg version="1.1" id="Layer_1" xmlns="http://www.w3.org/2000/svg" xmlns:xlink="http://www.w3.org/1999/xlink" x="0px" y="0px"
	 viewBox="0 0 31.5 31.5" style="enable-background:new 0 0 31.5 31.5;" xml:space="preserve">
<g>
	<path style="fill:#407BA4;" d="M18,31.5h-4.5c-0.8,0-1.5-0.7-1.5-1.5v-1.6c0-0.3-0.2-0.7-0.5-0.8c-0.4-0.1-0.7-0.3-1-0.4
		s-0.7-0.1-0.9,0.2l-1.1,1.1c-0.6,0.6-1.6,0.6-2.2,0L3,25.3c-0.3-0.3-0.4-0.7-0.4-1.1s0.2-0.8,0.4-1.1L4.2,22
		c0.2-0.2,0.3-0.6,0.2-0.9c-0.2-0.3-0.3-0.7-0.4-1s-0.4-0.5-0.8-0.5H1.5C0.7,19.5,0,18.8,0,18v-4.5C0,12.7,0.7,12,1.5,12h1.6
		c0.3,0,0.7-0.2,0.8-0.5c0.1-0.4,0.3-0.7,0.4-1s0.1-0.7-0.2-0.9L3,8.4C2.7,8.1,2.6,7.7,2.6,7.3c0-0.4,0.2-0.8,0.4-1.1L6.2,3
		c0.3-0.3,0.7-0.4,1.1-0.4s0.8,0.2,1.2,0.6l1,1c0.2,0.2,0.6,0.3,0.9,0.2c0.3-0.2,0.7-0.3,1-0.4C11.8,3.8,12,3.5,12,3.1V1.5
		C12,0.7,12.7,0,13.5,0H18c0.8,0,1.5,0.7,1.5,1.5v1.6c0,0.3,0.2,0.7,0.5,0.8c0.4,0.1,0.7,0.3,1,0.4s0.7,0.1,0.9-0.2L23.2,3
		c0.6-0.6,1.6-0.6,2.2,0l3.2,3.2c0.6,0.6,0.6,1.6,0,2.2l-1.1,1.1c-0.2,0.2-0.3,0.6-0.2,0.9c0.2,0.3,0.3,0.7,0.4,1s0.4,0.5,0.8,0.5
		H30c0.8,0,1.5,0.7,1.5,1.5V18c0,0.8-0.7,1.5-1.5,1.5h-1.6c-0.3,0-0.7,0.2-0.8,0.5c-0.1,0.3-0.3,0.7-0.4,1s-0.1,0.7,0.2,0.9l1.1,1.1
		c0.6,0.6,0.6,1.6,0,2.2l-3.2,3.2c-0.6,0.6-1.6,0.6-2.2,0l-1.1-1c-0.2-0.2-0.6-0.3-0.9-0.2c-0.3,0.2-0.7,0.3-1,0.4s-0.5,0.4-0.5,0.8
		V30C19.5,30.8,18.8,31.5,18,31.5z M10.1,26.4c0.2,0,0.4,0,0.6,0.1c0.3,0.1,0.6,0.3,1,0.4c0.6,0.2,1,0.8,1,1.4V30
		c0,0.5,0.4,0.8,0.8,0.8H18c0.5,0,0.8-0.4,0.8-0.8v-1.6c0-0.6,0.4-1.2,1-1.4c0.3-0.1,0.7-0.3,1-0.4c0.6-0.3,1.3-0.1,1.7,0.3l1.1,1.1
		c0.3,0.3,0.9,0.3,1.2,0l3.2-3.2c0.3-0.3,0.3-0.9,0-1.2l-1.1-1.1c-0.4-0.4-0.6-1.1-0.3-1.7c0.1-0.3,0.3-0.6,0.4-1
		c0.2-0.6,0.8-1,1.4-1H30c0.5,0,0.8-0.4,0.8-0.8v-4.5c0-0.5-0.4-0.8-0.8-0.8h-1.6c-0.6,0-1.2-0.4-1.4-1c-0.1-0.3-0.3-0.7-0.4-1
		c-0.3-0.6-0.1-1.3,0.3-1.7L28,7.9c0.3-0.3,0.3-0.9,0-1.2l-3.2-3.2c-0.3-0.3-0.9-0.3-1.2,0l-1.1,1.1c-0.4,0.4-1.1,0.6-1.7,0.3
		c-0.3-0.1-0.6-0.3-1-0.4c-0.6-0.2-1-0.8-1-1.4V1.5c0-0.5-0.4-0.8-0.8-0.8h-4.5c-0.5,0-0.8,0.4-0.8,0.8v1.6c0,0.6-0.4,1.2-1,1.4
		c-0.3,0.1-0.7,0.3-1,0.4C10.1,5.2,9.5,5.1,9,4.6l-1-1C7.8,3.4,7.5,3.3,7.3,3.3S6.9,3.4,6.7,3.5L3.5,6.7C3.3,6.9,3.3,7.1,3.3,7.3
		c0,0.2,0.1,0.4,0.2,0.6L4.6,9c0.4,0.4,0.6,1.1,0.3,1.7c-0.1,0.3-0.3,0.6-0.4,1c-0.2,0.6-0.8,1-1.4,1H1.5c-0.5,0-0.8,0.4-0.8,0.8V18
		c0,0.5,0.4,0.8,0.8,0.8h1.6c0.6,0,1.2,0.4,1.4,1c0.1,0.3,0.3,0.7,0.4,1c0.3,0.6,0.1,1.3-0.3,1.7l-1.1,1.1c-0.2,0.2-0.2,0.4-0.2,0.6
		s0.1,0.4,0.2,0.6L6.7,28c0.3,0.3,0.9,0.3,1.2,0L9,26.9C9.3,26.6,9.7,26.4,10.1,26.4z M15.8,20.8c-2.8,0-5-2.3-5-5c0-2.8,2.3-5,5-5
		c2.8,0,5,2.3,5,5S18.5,20.8,15.8,20.8z M15.8,11.4c-2.4,0-4.4,2-4.4,4.4s2,4.4,4.4,4.4s4.4-2,4.4-4.4S18.2,11.4,15.8,11.4z"/>
</g>
</svg>
