<svg id="Layer_1" data-name="Layer 1" xmlns="http://www.w3.org/2000/svg" viewBox="0 0 27.3 30.2"><defs><style>.cls-1{fill:#417ba4;}</style></defs><title>nav_transactions</title><path class="cls-1" d="M8.25,11.19C12.89,9.25,17.12,6,17.69,3.83a1.15,1.15,0,0,0-.81-1.54l-.51-.12a1.23,1.23,0,0,0-.45-.06,1,1,0,0,1,.7,1.39c-.52,1.94-4.39,5-8.63,6.73-3.34,1.4-5.92,1.61-6.61.69a1.11,1.11,0,0,1-.12-1,2.62,2.62,0,0,1,.17-.44c-.15.34-.34.81-.48,1.16,0,.07,0,.14-.07.21a2,2,0,0,0-.05.26,1.1,1.1,0,0,0,.19.82C1.78,13,4.6,12.72,8.25,11.19ZM7.72,7.3a16,16,0,0,0,1.87-1c.13-.11,0-.29,0-.35s-.26-.31-.44-.24a12.7,12.7,0,0,1-1.49.76c-1.62.7-2.88.8-3.21.34a.56.56,0,0,1-.06-.49,2.06,2.06,0,0,1,.39-.71,6.47,6.47,0,0,1,1-1A15.88,15.88,0,0,1,8.88,2.9l.52-.2c1.61-.53,2.67-.37,2.45.46a2.48,2.48,0,0,1-.52.88,1.33,1.33,0,0,0,1,.13A2.91,2.91,0,0,0,13,3.09c.25-1-.83-1.21-2.56-.74L10,2.48l-.43.14-.44.16L8.66,3l-.35.15L8,3.27l-.31.16-.31.17-.3.17L6.77,4l-.3.19-.3.21-.32.23-.31.24-.35.29-.34.3a6.87,6.87,0,0,0-.76.8,3.11,3.11,0,0,0-.41.66,1.61,1.61,0,0,0-.08.23,1.21,1.21,0,0,0,0,.15.64.64,0,0,0,.1.47C4.1,8.31,5.67,8.17,7.72,7.3Zm-5.62,2a.81.81,0,0,0,.13.28h0A2.48,2.48,0,0,0,4.3,10c2.44-.29,2.47-.7,2.5-1,0,0,0-.51-.25-.47-1.92.62-3.34.63-3.77.06a.83.83,0,0,1-.09-.74A2.44,2.44,0,0,1,3,7.28c.1-.15.2-.3.32-.44h0l-.18.23-.32.44L2.49,8c-.08.14-.19.32-.26.46a2.09,2.09,0,0,0-.12.32,1.18,1.18,0,0,0,0,.55ZM22,19.6a.76.76,0,0,0-.26.43c-.06.29.12.65.52.4,2.47-1.86,4.23-3.81,4.62-5.3a2.18,2.18,0,0,0,.08-.64l0-.42-.08-.76a2.12,2.12,0,0,1-.07.81C26.39,15.65,24.56,17.67,22,19.6ZM26.3,12c-.68,2.49-5,6.14-10.21,8.83a.63.63,0,0,0-.29.32c-.14.36.21.79.79.55C21.72,19,26,15.44,26.63,13a2,2,0,0,0,0-1c-.09-.35-.25-.81-.37-1.16A1.9,1.9,0,0,1,26.3,12ZM14.13,3.06c-.25.94-1.54,2.22-3.27,3.36a.26.26,0,0,0-.06.08c-.08.21.31.72.68.54,2-1.31,3.45-2.77,3.74-3.85.23-.88-.36-1.33-1.51-1.33l-1.08,0-.3,0C13.64,1.8,14.36,2.18,14.13,3.06Zm11.57,7a.09.09,0,0,0,0,0,1.77,1.77,0,0,0-.15-.75l-.15-.34L25,8.08a1.79,1.79,0,0,1,.21.87A2.39,2.39,0,0,0,25.7,10.07ZM19.17,4.31c-.64,2.36-5.36,6-10.54,8.18a25,25,0,0,1-2.77,1,.42.42,0,0,0-.2.15c-.21.29-.13,1,.37.93A26.54,26.54,0,0,0,9,13.5c5.5-2.29,10.51-6.18,11.19-8.69a1.32,1.32,0,0,0-.74-1.73c-.33-.15-.79-.33-1.12-.47A1.26,1.26,0,0,1,19.17,4.31ZM.64,17.28c1,1.35,4.66,1,9.45-1,6.06-2.56,11.58-6.91,12.33-9.72A1.5,1.5,0,0,0,22,4.88l-.54-.4L21,4.17a1.35,1.35,0,0,1,.64,1.26C21.39,9.82,4.38,20.26.58,16.21a1.32,1.32,0,0,1-.25-.8c0,.33,0,.77.05,1.12h0v.1s0,0,0,.07v0s0,.07,0,.1,0-.05,0-.08a1.32,1.32,0,0,0,.05.22l0,.08,0,0v0a1.35,1.35,0,0,0,.07.13L.5,17a1.3,1.3,0,0,0,.14.26Zm22.45,7a23.45,23.45,0,0,1-5.33,3A12.06,12.06,0,0,1,13,28.45c.42,0,1,0,1.39,0a12,12,0,0,0,3.73-1,20.69,20.69,0,0,0,4.71-2.69,1.58,1.58,0,0,0,.31-.36,1,1,0,0,0,.07-.14l0-.05Zm-6.38,2.49c-2.95,1.27-5.37,1.7-6.67,1.33.37.1.88.21,1.25.3C14.92,29,24,24.38,26,20.24c.16-.36.31-.86.43-1.23C25.77,21.29,21.45,24.74,16.71,26.78ZM14,25.23c.35-.17.3-.39.27-.47s-.21-.42-.82-.23c-4.17,1.67-7.42,2-8.61,1,.28.24.67.53,1,.75C7,27.12,10.06,26.8,14,25.23ZM.36,14.11a1.25,1.25,0,0,0,.09.29l0,0,0,.06.06.11v0a1.41,1.41,0,0,0,.52.45c.12,0,.18-.19.21-.37,0,0,.09-.59-.08-.74a1.36,1.36,0,0,1-.5-.4,1.22,1.22,0,0,1-.21-.86c0-.12,0-.25.06-.37l0,.11-.1.48-.11.73h0a1.73,1.73,0,0,0,0,.28s0,.09,0,.13ZM7.3,27.21c.33.17.77.37,1.11.52,1.35.55,4.15.11,7.59-1.34,5.29-2.23,10.11-6,10.77-8.46q0-.1,0-.2c.05-.31.1-.73.14-1l0-.17C26.28,21.35,11.95,29.13,7.3,27.21Zm.56-2.15c.25-.08.19-.29.13-.41a.87.87,0,0,0-.74-.45c-2.07.37-3.55.13-4.15-.68l0,0,0,0,.37.49.39.48C4.48,25.21,5.91,25.41,7.86,25.06Zm3.23-6.24c6.41-2.75,12.25-7.43,13-10.45a1.72,1.72,0,0,0-.24-1.61c-.24-.29-.58-.65-.83-.92a1.64,1.64,0,0,1,.33,1.68c-.78,3-6.5,7.54-12.79,10.24C5.68,19.88,1.87,20.21.83,18.83l0,0a1.38,1.38,0,0,1-.23-.52c.08.36.22.84.32,1.2a.92.92,0,0,0,.19.39h0C2.17,21.32,6.06,21,11.09,18.82Zm1.43,2a37.94,37.94,0,0,0,10-6.19.69.69,0,0,0,.13-.71.45.45,0,0,0-.68-.29A37.88,37.88,0,0,1,12,19.8C6.84,22,2.88,22.3,1.82,20.87q.13.29.28.57l0,0h0a1.41,1.41,0,0,0,.22.4,2.54,2.54,0,0,0,.25.25C3.94,23.26,7.71,22.84,12.52,20.81Z"/></svg>