<?xml version="1.0" encoding="utf-8"?>
<!-- Generator: Adobe Illustrator 19.2.0, SVG Export Plug-In . SVG Version: 6.00 Build 0)  -->
<svg version="1.1" id="Layer_1" xmlns="http://www.w3.org/2000/svg" xmlns:xlink="http://www.w3.org/1999/xlink" x="0px" y="0px"
	 viewBox="0 0 42.6 26.8" style="enable-background:new 0 0 42.6 26.8;" xml:space="preserve">
<g>
	<path style="fill:#656665;" d="M9.1,26.8c-0.3,0-0.6-0.1-0.8-0.3c-0.5-0.4-0.8-1-0.8-1.7v-6.4c0-0.2,0.2-0.4,0.4-0.4
		s0.4,0.2,0.4,0.4v6.4c0,0.5,0.2,0.9,0.5,1.1C8.9,26,9.1,26.1,9.4,26l31.9-10c0.5-0.1,0.7-0.7,0.7-1.1c0-0.5-0.1-1.1-0.6-1.3
		l-30-12.9c-0.3-0.1-0.6,0-0.8,0.3l-3,3.5c-0.2,0.2-0.1,0.6,0,0.7L8.3,6c0.4,0.4,0.4,1,0.2,1.4S8,8,7.6,8H5C4.8,8,4.6,8.1,4.4,8.3
		l-3.6,4.4c-0.4,0.5-0.4,1.2-0.2,1.6c0.1,0.2,0.3,0.6,0.7,0.6H34c0.2,0,0.4,0.2,0.4,0.4s-0.2,0.4-0.4,0.4H1.4c-0.6,0-1.1-0.4-1.4-1
		C-0.3,14-0.4,13,0.3,12.3l3.6-4.4C4.2,7.5,4.5,7.3,5,7.3h2.7c0.1,0,0.2-0.1,0.2-0.2C8,6.9,8,6.6,7.8,6.5L7.1,5.7
		C6.7,5.3,6.7,4.6,7,4.1l2.9-3.5C10.3,0,11-0.1,11.5,0.1l30,12.9c0.7,0.3,1.1,1.1,1,2s-0.5,1.5-1.2,1.7l-31.9,10
		C9.3,26.8,9.2,26.8,9.1,26.8z"/>
</g>
</svg>
