<?xml version="1.0" encoding="utf-8"?>
<!-- Generator: Adobe Illustrator 19.2.0, SVG Export Plug-In . SVG Version: 6.00 Build 0)  -->
<svg version="1.1" id="Layer_1" xmlns="http://www.w3.org/2000/svg" xmlns:xlink="http://www.w3.org/1999/xlink" x="0px" y="0px"
	 viewBox="0 0 42.8 31.1" style="enable-background:new 0 0 42.8 31.1;" xml:space="preserve">
<g>
	<g>
		<path style="fill:#656665;" d="M27.6,26.8c-0.3,0-0.5-0.1-0.7-0.3l-4.7-4.7c-0.2-0.2-0.3-0.5-0.3-0.7c0-0.3,0.1-0.5,0.3-0.7
			l7.3-7.3c0.4-0.4,1-0.4,1.4,0l4.7,4.7c0.4,0.4,0.4,1,0,1.4l-7.3,7.3C28.1,26.7,27.8,26.8,27.6,26.8z M30.1,13.6
			c-0.1,0-0.1,0-0.2,0.1L22.6,21c-0.1,0.1-0.1,0.1-0.1,0.2s0,0.2,0.1,0.2l4.7,4.7c0.1,0.1,0.3,0.1,0.4,0l7.3-7.3
			c0.1-0.1,0.1-0.3,0-0.4l-4.7-4.7C30.3,13.6,30.2,13.6,30.1,13.6z"/>
	</g>
	<g>
		<path style="fill:#656665;" d="M26.2,31.3c-0.4,0-0.7-0.1-1-0.4l-1.4-1.4c-0.3-0.3-0.4-0.8-0.1-1.2c0.7-1,0.5-2.2-0.3-3.1
			s-2.1-0.9-3.1-0.3c-0.4,0.3-0.9,0.2-1.2-0.1l-1.4-1.4c-0.5-0.5-0.5-1.4,0-2L33,6.3c0.5-0.5,1.4-0.5,2,0l1.4,1.4
			c0.3,0.3,0.4,0.8,0.1,1.2c0,0.1-0.1,0.1-0.1,0.2c-0.5,0.9-0.3,2.1,0.4,2.8c0.8,0.8,2.1,0.9,3.1,0.3c0.4-0.3,0.9-0.2,1.2,0.1
			l1.4,1.4c0.5,0.5,0.5,1.4,0,2L27.2,30.9C27,31.1,26.6,31.3,26.2,31.3z M21.8,23.8c0.8,0,1.6,0.3,2.2,0.9c1.1,1.1,1.2,2.7,0.4,4
			c-0.1,0.1,0,0.2,0,0.3l1.4,1.4c0.3,0.3,0.7,0.3,1,0l15.1-15.1c0.1-0.1,0.2-0.3,0.2-0.5s-0.1-0.4-0.2-0.5l-1.4-1.4
			c-0.1-0.1-0.2-0.1-0.3,0c-1.2,0.9-2.9,0.7-4-0.4c-1-1-1.2-2.5-0.5-3.7c0.1-0.1,0.1-0.2,0.2-0.3c0.1-0.1,0.1-0.2,0-0.3l-1.4-1.4
			c-0.3-0.3-0.7-0.3-1,0L18.3,22c-0.3,0.3-0.3,0.7,0,1l1.4,1.4c0.1,0.1,0.2,0.1,0.3,0C20.6,24,21.2,23.8,21.8,23.8z"/>
	</g>
	<g>
		<path style="fill:#656665;" d="M29.9,22.7l-2,2c-0.2,0.2-0.5,0.2-0.7,0L24,21.5c-0.2-0.2-0.2-0.5,0-0.7l2-2c0.1-0.1,0.3-0.1,0.4,0
			s0.1,0.3,0,0.4l-1.9,1.9l1.3,1.3l1.8-1.8c0.1-0.1,0.3-0.1,0.4,0s0.1,0.3,0,0.4l-1.8,1.8l1.3,1.3l1.9-1.9c0.1-0.1,0.3-0.1,0.4,0
			C30,22.4,30,22.6,29.9,22.7z"/>
		<path style="fill:#656665;" d="M30.6,15.2c0.1,0,0.2,0,0.2,0.1c0.1,0.1,0.1,0.3,0,0.5c-0.1,0.1-0.1,0.1-0.2,0.1
			c-0.5,0-1.1,0.2-1.4,0.5c-0.8,0.8-0.8,2.1,0.1,3.1c0.9,0.9,2.2,0.9,3.1,0.1c0.4-0.4,0.6-0.9,0.5-1.4c0-0.1,0-0.2,0.1-0.2
			c0.1-0.1,0.3-0.1,0.5,0c0.1,0.1,0.1,0.1,0.1,0.2c0,0.6-0.2,1.3-0.8,1.8c-1.1,1.1-2.8,1.2-4,0s-1.1-2.9,0-4
			C29.3,15.4,30,15.2,30.6,15.2z"/>
	</g>
	<g>
		<g>
			<path style="fill:#656665;" d="M30.1,10.5c-0.1,0-0.2,0-0.2-0.1l-0.2-0.2c-0.1-0.1-0.1-0.4,0-0.5s0.4-0.1,0.5,0l0.2,0.2
				c0.1,0.1,0.1,0.4,0,0.5S30.2,10.5,30.1,10.5z"/>
		</g>
		<g>
			<path style="fill:#656665;" d="M37.5,18c-0.1,0-0.2,0-0.2-0.1l-0.5-0.5c-0.1-0.1-0.1-0.4,0-0.5s0.4-0.1,0.5,0l0.5,0.5
				c0.1,0.1,0.1,0.4,0,0.5C37.7,17.9,37.6,18,37.5,18z M36,16.5c-0.1,0-0.2,0-0.2-0.1l-0.5-0.5c-0.1-0.1-0.1-0.4,0-0.5
				s0.4-0.1,0.5,0l0.5,0.5c0.1,0.1,0.1,0.4,0,0.5C36.2,16.4,36.1,16.5,36,16.5z M34.6,15c-0.1,0-0.2,0-0.2-0.1l-0.5-0.5
				c-0.1-0.1-0.1-0.4,0-0.5s0.4-0.1,0.5,0l0.5,0.5c0.1,0.1,0.1,0.4,0,0.5C34.7,15,34.6,15,34.6,15z M33.1,13.5c-0.1,0-0.2,0-0.2-0.1
				l-0.5-0.5c-0.1-0.1-0.1-0.4,0-0.5s0.4-0.1,0.5,0l0.5,0.5c0.1,0.1,0.1,0.4,0,0.5S33.2,13.5,33.1,13.5z M31.6,12
				c-0.1,0-0.2,0-0.2-0.1l-0.5-0.5c-0.1-0.1-0.1-0.4,0-0.5s0.4-0.1,0.5,0l0.5,0.5c0.1,0.1,0.1,0.4,0,0.5S31.7,12,31.6,12z"/>
		</g>
		<g>
			<path style="fill:#656665;" d="M38.8,19.2c-0.1,0-0.2,0-0.2-0.1l-0.2-0.2c-0.1-0.1-0.1-0.4,0-0.5s0.4-0.1,0.5,0l0.2,0.2
				c0.1,0.1,0.1,0.4,0,0.5C38.9,19.2,38.8,19.2,38.8,19.2z"/>
		</g>
	</g>
</g>
<g>
	<path style="fill:#656665;" d="M28.2,9.3L28.2,9.3c-0.2,0-0.3-0.1-0.3-0.3c0,0-0.5-1.9-0.8-2.8c-1-2.6-3.6-4.4-6.5-4.4
		c-3.1,0-5.9,2.1-6.7,5.1c0,0.2-0.2,0.3-0.4,0.2c-0.2-0.1-0.3-0.2-0.2-0.4C14.2,3.4,17.2,1,20.7,1c3.1,0,6,1.9,7.1,4.8
		c0.2,0.5,0.5,1.5,0.6,2.1l1.2-1.8l-0.9,0.2c-0.2,0-0.3-0.1-0.4-0.2c-1-3-3.6-5.1-6.7-5.5c-3.9-0.5-7.7,2-8.7,5.8l-0.1,0.2
		c0,0.4-0.2,0.5-0.4,0.4c-0.2-0.1-0.3-0.3-0.2-0.4l0.1-0.2c1.1-4.1,5.2-6.9,9.5-6.3c3.3,0.4,6,2.6,7.2,5.7l1.4-0.3
		c0.1,0,0.3,0,0.4,0.1s0.1,0.3,0,0.4l-2.1,3.1C28.5,9.2,28.4,9.3,28.2,9.3z"/>
</g>
<g>
	<g>
		<path style="fill:#656665;" d="M11.7,28.4c-4.9,0-8.9-4-8.9-8.9s4-8.9,8.9-8.9c4.4,0,8.1,3.1,8.8,7.5c0,0.2-0.1,0.4-0.3,0.4
			c-0.2,0-0.4-0.1-0.4-0.3c-0.7-4-4.1-6.9-8.1-6.9c-4.5,0-8.2,3.7-8.2,8.2s3.7,8.2,8.2,8.2c2.4,0,4.6-1,6.2-2.8
			c0.1-0.1,0.3-0.2,0.5,0c0.1,0.1,0.2,0.3,0,0.5C16.8,27.3,14.3,28.4,11.7,28.4z"/>
	</g>
	<g>
		<path style="fill:#656665;" d="M11.7,25.3c-3.2,0-5.8-2.6-5.8-5.8s2.6-5.8,5.8-5.8s5.8,2.6,5.8,5.8S15,25.3,11.7,25.3z M11.7,14.3
			c-2.8,0-5.1,2.3-5.1,5.1s2.3,5.1,5.1,5.1s5.1-2.3,5.1-5.1C16.9,16.6,14.6,14.3,11.7,14.3z"/>
	</g>
	<g>
		<path style="fill:#656665;" d="M11.7,31.1C5.3,31.1,0,25.9,0,19.4S5.3,7.7,11.7,7.7c5,0,9.4,3.1,11.1,7.8c0.1,0.2,0,0.4-0.2,0.4
			c-0.2,0.1-0.4,0-0.4-0.2c-1.6-4.4-5.7-7.3-10.4-7.3c-6.1,0-11,4.9-11,11s4.9,11,11,11c3.8,0,7.3-1.9,9.3-5.1
			c0.1-0.2,0.3-0.2,0.5-0.1s0.2,0.3,0.1,0.5C19.5,29.1,15.8,31.1,11.7,31.1z"/>
	</g>
	<g>
		<g style="enable-background:new    ;">
			<g style="enable-background:new    ;">
				<g>
					<path style="fill:#656665;" d="M10.3,14.2c-0.2,0.1-0.2,0.1-0.4,0.1c-0.2,0.1-0.2,0.1-0.4,0.1c-0.2,0.1-0.2,0.1-0.3,0.1
						C9,14.6,9,14.6,9,14.6c0,0.2,0,0.2-0.1,0.2c-0.2,0.1-0.2,0.1-0.2,0.2c-0.2,0.1-0.2,0.1-0.3,0.2c-0.2,0.1-0.2,0.1-0.3,0.2
						c0.4-0.4,1-0.7,1.6-1C9.9,14.3,10.1,14.2,10.3,14.2"/>
					<g>
						<path style="fill:#656665;" d="M7.3,16.3c0,0.1-0.1,0.1-0.1,0.2C7.2,16.5,7.3,16.4,7.3,16.3"/>
					</g>
					<g>
						<path style="fill:#656665;" d="M10.6,23.5c-0.1,0.2-0.2,0.3-0.3,0.5C10.4,23.8,10.5,23.6,10.6,23.5"/>
					</g>
					<polyline style="fill:#656665;" points="6.4,18.8 6.4,18.8 6.4,18.8 					"/>
					<g>
						<path style="fill:#656665;" d="M6.4,19.8c0,0.1,0,0.1,0,0.2C6.4,19.9,6.4,19.8,6.4,19.8"/>
					</g>
					<g>
						<path style="fill:#656665;" d="M6.6,20.7c0,0.1,0,0.2,0,0.3C6.6,21,6.5,20.9,6.6,20.7"/>
					</g>
					<g>
						<path style="fill:#656665;" d="M7.7,23c-0.1-0.1-0.2-0.2-0.3-0.3l0,0C7.5,22.8,7.7,23,7.7,23C7.7,23.1,7.7,23,7.7,23"/>
					</g>
					<g>
						<path style="fill:#656665;" d="M10.3,24.5c-0.1-0.1-0.1-0.2-0.1-0.3C10.2,24.3,10.3,24.4,10.3,24.5"/>
					</g>
					<path style="fill:#656665;" d="M6.4,18.8v-0.1c0-0.1,0-0.3,0.1-0.4l0,0v0.2L6.4,18.8L6.4,18.8"/>
					<path style="fill:#656665;" d="M7.3,16.3c0.1-0.1,0.1-0.2,0.2-0.3l0,0l-0.1,0.1c-0.1,0.1-0.2,0.3-0.3,0.4
						C7.2,16.5,7.3,16.4,7.3,16.3"/>
				</g>
			</g>
			<g style="enable-background:new    ;">
				<g style="enable-background:new    ;">
					<path style="fill:#656665;" d="M13.8,17.2L13.8,17.2C13.8,17.2,13.8,17.1,13.8,17.2C13.8,17.1,13.8,17.1,13.8,17.2
						C13.8,17.1,13.8,17.2,13.8,17.2"/>
				</g>
				<g>
					<g>
						<path style="fill:#656665;" d="M7.8,15.7c0.1-0.1,0.2-0.2,0.3-0.3c0.2-0.2,0.2-0.2,0.3-0.2C8.6,15,8.6,15,8.6,15
							c0.2-0.1,0.2-0.1,0.2-0.2C9,14.7,9,14.7,9.1,14.7c0.2-0.1,0.2-0.1,0.2-0.1c0.2-0.1,0.2-0.1,0.3-0.1c0.2-0.1,0.2-0.1,0.4-0.1
							c0.2-0.1,0.2-0.1,0.4-0.1c0.7-0.2,1.1-0.1,1,0.3c0,0.1-0.1,0.3-0.3,0.4c-0.1,0.1-0.4,0-0.4-0.1c0.1-0.1,0.2-0.2,0.2-0.3
							c0.1-0.4-0.5-0.4-1.3-0.1c-0.6,0.3-1.2,0.7-1.5,1C8,15.6,7.9,15.6,7.8,15.7"/>
						<path style="fill:#656665;" d="M7.8,15.7c-0.1,0.1-0.1,0.2-0.2,0.3C7.7,15.9,7.7,15.8,7.8,15.7"/>
					</g>
					<g>
						<path style="fill:#656665;" d="M11.3,14c0.1,0,0.3,0,0.4,0c0.5,0,0.7,0.2,0.6,0.6c-0.1,0.4-0.7,1.1-1.5,1.6
							c-0.2,0.1-0.3-0.1-0.3-0.2l0,0c0.7-0.5,1.2-1,1.3-1.4s-0.2-0.5-0.7-0.5L11.3,14"/>
						<path style="fill:#656665;" d="M7.2,16.5c0,0.1-0.1,0.1-0.1,0.2C7.1,16.6,7.1,16.6,7.2,16.5"/>
					</g>
					<path style="fill:#656665;" d="M14.1,14.6c0.3,0.1,0.4,0.4,0.3,0.7c-0.3,1-2.3,2.6-4.5,3.5c-0.4,0.2-0.8,0.3-1.2,0.4
						c-0.2,0-0.2-0.3-0.1-0.4l0.1-0.1c0.3-0.1,0.7-0.2,1.1-0.4c2.1-0.9,4-2.4,4.2-3.3c0.1-0.3,0-0.6-0.3-0.7
						C13.8,14.4,14,14.5,14.1,14.6"/>
					<path style="fill:#656665;" d="M16.5,16.8l0.1,0.1c0.1,0.2,0.1,0.2,0.1,0.3l0,0C16.5,17.2,16.4,17,16.5,16.8
						c-0.1-0.1-0.1-0.2-0.2-0.3L16.5,16.8"/>
					<path style="fill:#656665;" d="M17,18c0,0.1,0,0.3,0,0.4c-0.3,1-2,2.5-4.1,3.6c-0.2,0.1-0.4-0.1-0.3-0.2c0-0.1,0.1-0.1,0.1-0.1
						c2.1-1.1,3.9-2.6,4.1-3.6c0-0.2,0-0.3,0-0.5C16.9,17.7,16.9,17.9,17,18"/>
					<path style="fill:#656665;" d="M17.1,19v0.2c0,0.1,0,0.2,0,0.3c-0.2,0.6-0.9,1.4-2,2.2c-0.2,0.1-0.2,0-0.2-0.2
						c0-0.1,0.1-0.2,0.1-0.2C16.1,20.5,16.9,19.7,17.1,19c0-0.1,0-0.2,0-0.3V19"/>
					<g>
						<path style="fill:#656665;" d="M7.6,16.3c0,0-0.1-0.1,0-0.2C7.6,16.2,7.6,16.3,7.6,16.3"/>
						<path style="fill:#656665;" d="M10,15.6c0,0,0.1,0.1,0,0.1c-0.2,0.1-0.5,0.3-0.7,0.4c-0.8,0.3-1.4,0.4-1.6,0.2
							C7.8,16.2,7.9,16.1,8,16c0.1,0.2,0.6,0.1,1.3-0.1C9.5,15.8,9.7,15.7,10,15.6C9.9,15.5,10,15.6,10,15.6"/>
					</g>
					<g>
						<path style="fill:#656665;" d="M7.1,17.2C7,17.1,7,17,7,16.9C7,17,7,17.1,7.1,17.2L7.1,17.2"/>
						<path style="fill:#656665;" d="M8.9,17c0,0.1,0,0.3-1,0.4c-0.3,0-0.7,0-0.8-0.2l0,0c0.1-0.1,0.1-0.3,0.2-0.4
							C7.5,17,8,17,8.8,16.8C8.9,16.8,8.9,17,8.9,17"/>
					</g>
					<g>
						<path style="fill:#656665;" d="M6.7,18.2c-0.1-0.1-0.1-0.2-0.1-0.3C6.6,18,6.6,18.1,6.7,18.2"/>
						<path style="fill:#656665;" d="M12.9,14.1c0.1,0,0.2,0,0.2,0.1c0.3,0.1,0.4,0.3,0.3,0.6c-0.2,0.9-1.9,2.2-3.8,3
							c-1.5,0.6-2.6,0.7-2.9,0.3c0-0.1,0.1-0.3,0.1-0.4c0.3,0.4,1.3,0.3,2.7-0.3c1.7-0.7,3.3-2,3.5-2.8c0.1-0.3,0-0.5-0.3-0.6
							C12.8,14.1,12.8,14.1,12.9,14.1"/>
					</g>
					<g>
						<polyline style="fill:#656665;" points="6.4,18.8 6.4,18.8 6.4,18.8 						"/>
						<path style="fill:#656665;" d="M6.8,19.2c0,0.1,0,0.2-0.1,0.1c-0.2-0.1-0.3-0.3-0.3-0.6c0,0.2,0,0.3,0.1,0.4
							c0-0.1,0-0.3,0.1-0.4c0,0.1,0.1,0.1,0.2,0.2C6.8,18.9,6.8,19.2,6.8,19.2"/>
					</g>
					<g>
						<path style="fill:#656665;" d="M6.4,19.9c0-0.1,0-0.1,0-0.2C6.4,19.8,6.4,19.9,6.4,19.9"/>
						<path style="fill:#656665;" d="M14.9,15l0.2,0.2c0.2,0.2,0.3,0.4,0.2,0.7c-0.3,1.1-2.5,2.9-5,3.9c-2.3,1-4,1-3.9,0
							c0,0.2,0,0.3,0.1,0.4c0-0.1,0-0.3,0-0.4c1.5,1.6,8.4-2.6,8.5-4.4c0-0.3-0.2-0.4-0.3-0.5L14.9,15"/>
					</g>
					<g>
						<path style="fill:#656665;" d="M6.6,21c0-0.1,0-0.2,0-0.3C6.5,20.9,6.6,21,6.6,21"/>
						<path style="fill:#656665;" d="M15.9,16c0.1,0.2,0.2,0.4,0.1,0.6c-0.3,1.2-2.7,3.1-5.3,4.2c-2.5,1.1-4.3,1-4.1,0
							c0,0.2,0,0.3,0.1,0.5c0-0.1-0.1-0.3-0.1-0.4c0.4,0.6,2,0.4,4-0.4c2.5-1.1,4.9-2.9,5.2-4.1c0.1-0.3,0-0.5-0.1-0.7
							C15.7,15.7,15.8,15.8,15.9,16"/>
					</g>
					<g>
						<path style="fill:#656665;" d="M15.3,18.9c0.1,0.1,0,0.2-0.1,0.3c-1,0.9-2.5,1.8-4.1,2.5c-2.3,1-4,1-4.2,0.2c0-0.1,0,0,0,0
							s0,0.1,0.1,0.3c0,0,0-0.1-0.1-0.1c0,0,0,0,0-0.1s-0.1-0.2-0.1-0.2c0.4,0.6,2,0.4,4.1-0.4c1.6-0.7,3-1.6,4-2.5
							C15.2,18.7,15.3,18.9,15.3,18.9"/>
					</g>
					<path style="fill:#656665;" d="M9.5,23.1c0,0,0.1,0.1-0.1,0.2c-0.8,0.1-1.4,0.1-1.7-0.2c-0.1-0.1-0.2-0.3-0.3-0.4
						C7.7,23,8.3,23.1,9.2,23C9.4,23,9.5,23.1,9.5,23.1"/>
					<path style="fill:#656665;" d="M12,23.2c0,0,0,0.1-0.1,0.2c-1.6,0.6-2.8,0.8-3.3,0.4c-0.1-0.1-0.3-0.2-0.4-0.3
						c0.5,0.4,1.8,0.3,3.5-0.4C12,23.1,12,23.2,12,23.2"/>
					<path style="fill:#656665;" d="M17.1,19.9c0,0.1,0,0.3-0.1,0.4v0.1c-0.3,1-2.2,2.5-4.3,3.4c-1.4,0.6-2.5,0.8-3.1,0.5
						c-0.1-0.1-0.3-0.1-0.4-0.2C11.1,25,16.8,21.8,17.1,19.9L17.1,19.9"/>
					<path style="fill:#656665;" d="M16.7,21.5c-0.8,1.6-4.5,3.5-6,3.3c-0.2,0-0.4-0.1-0.5-0.1c0.5,0.2,1.5,0,2.7-0.5
						c1.9-0.8,3.7-2.2,4-3.1C16.9,21.1,16.8,21.3,16.7,21.5"/>
					<path style="fill:#656665;" d="M15.5,23.1l-0.1,0.1c-0.5,0.4-1.2,0.8-1.9,1.1c-0.6,0.3-1.1,0.4-1.5,0.4c-0.2,0-0.4,0-0.6,0
						c0.5,0,1.1-0.1,1.9-0.5C14.2,24,14.9,23.5,15.5,23.1C15.5,23.1,15.5,23,15.5,23.1C15.6,23,15.6,23.1,15.5,23.1
						C15.6,23.1,15.6,23.1,15.5,23.1"/>
					<path style="fill:#656665;" d="M7.6,16.3c0,0-0.1-0.1,0-0.2c0,0,0,0,0-0.1c0.1-0.1,0.2-0.2,0.3-0.3c0,0.1,0,0.1,0,0.2
						C7.8,16.1,7.7,16.2,7.6,16.3"/>
					<path style="fill:#656665;" d="M7.1,17.2C7,17.1,7,17,7,16.9v-0.1c0.1-0.1,0.1-0.2,0.2-0.3c0,0.1,0,0.2,0,0.3
						C7.2,16.9,7.1,17.1,7.1,17.2"/>
					<path style="fill:#656665;" d="M6.7,18.2c-0.1-0.1-0.1-0.2-0.1-0.3v-0.1c0-0.1,0.1-0.3,0.2-0.4c0,0.2,0,0.3,0,0.4
						C6.8,17.9,6.7,18,6.7,18.2"/>
					<path style="fill:#656665;" d="M6.5,19.2c-0.1-0.1-0.1-0.2-0.1-0.4v-0.3v-0.2c0,0.2,0,0.3,0.1,0.4C6.5,18.9,6.5,19,6.5,19.2"/>
					<path style="fill:#656665;" d="M6.5,20.2c-0.1-0.1-0.1-0.2-0.1-0.3c0-0.1,0-0.3,0-0.5c0,0.1,0,0.2,0.1,0.3
						C6.4,19.9,6.4,20,6.5,20.2"/>
					<path style="fill:#656665;" d="M6.7,21.2c0,0-0.1-0.1-0.1-0.2s-0.1-0.3-0.1-0.5c0,0.1,0,0.1,0.1,0.2
						C6.6,20.9,6.6,21.1,6.7,21.2"/>
					<path style="fill:#656665;" d="M7.6,16.1C7.6,16,7.6,16,7.6,16.1c0.1-0.2,0.1-0.3,0.2-0.3c0.1-0.1,0.2-0.2,0.3-0.2
						C8,15.7,8,15.8,7.9,15.9C7.8,15.9,7.7,16,7.6,16.1"/>
					<path style="fill:#656665;" d="M7,16.8v-0.1c0-0.1,0.1-0.1,0.1-0.2c0.1-0.1,0.2-0.3,0.3-0.4L7.5,16c-0.1,0.1-0.2,0.3-0.2,0.4
						C7.2,16.6,7.1,16.7,7,16.8"/>
					<path style="fill:#656665;" d="M6.6,17.7L6.6,17.7c0.1-0.2,0.2-0.4,0.2-0.6c0,0.1-0.1,0.1-0.1,0.2C6.7,17.5,6.7,17.6,6.6,17.7"
						/>
				</g>
			</g>
		</g>
	</g>
	<g>
		<path style="fill:#656665;" d="M16.5,17.6c-0.1,0-0.2,0-0.3-0.1c-0.1-0.1-0.1-0.3,0-0.4c0-0.1,0.1-0.2,0.1-0.2L17,17
			c-0.1,0.4-0.1,0.4-0.2,0.5C16.7,17.6,16.6,17.6,16.5,17.6z"/>
	</g>
	<g>
		<circle style="fill:#656665;" cx="11.7" cy="9.5" r="0.3"/>
		<circle style="fill:#656665;" cx="11.7" cy="29.4" r="0.3"/>
	</g>
	<g>
		
			<ellipse transform="matrix(0.9659 -0.2588 0.2588 0.9659 -2.2198 2.7147)" style="fill:#656665;" cx="9.2" cy="9.8" rx="0.3" ry="0.3"/>
		
			<ellipse transform="matrix(0.9659 -0.2588 0.2588 0.9659 -7.0192 4.6873)" style="fill:#656665;" cx="14.3" cy="29" rx="0.3" ry="0.3"/>
	</g>
	<g>
		<ellipse transform="matrix(0.866 -0.5 0.5 0.866 -4.4763 4.8446)" style="fill:#656665;" cx="6.8" cy="10.8" rx="0.3" ry="0.3"/>
		<ellipse transform="matrix(0.866 -0.5 0.5 0.866 -11.7692 12.096)" style="fill:#656665;" cx="16.7" cy="28" rx="0.3" ry="0.3"/>
	</g>
	<g>
		
			<ellipse transform="matrix(0.7071 -0.7071 0.7071 0.7071 -7.3746 6.966)" style="fill:#656665;" cx="4.7" cy="12.4" rx="0.3" ry="0.3"/>
		
			<ellipse transform="matrix(0.7071 -0.7071 0.7071 0.7071 -13.1699 20.9951)" style="fill:#656665;" cx="18.8" cy="26.4" rx="0.3" ry="0.3"/>
	</g>
	<g>
		<ellipse transform="matrix(0.5 -0.866 0.866 0.5 -10.9508 9.8789)" style="fill:#656665;" cx="3.1" cy="14.4" rx="0.3" ry="0.3"/>
	</g>
	<g>
		
			<ellipse transform="matrix(0.2588 -0.9659 0.9659 0.2588 -14.72 14.4907)" style="fill:#656665;" cx="2.1" cy="16.8" rx="0.3" ry="0.3"/>
	</g>
	<g>
		<circle style="fill:#656665;" cx="1.8" cy="19.4" r="0.3"/>
	</g>
	<g>
		
			<ellipse transform="matrix(0.9659 -0.2588 0.2588 0.9659 -5.6228 1.2942)" style="fill:#656665;" cx="2.1" cy="22" rx="0.3" ry="0.3"/>
		
			<ellipse transform="matrix(0.9659 -0.2588 0.2588 0.9659 -3.6161 6.1078)" style="fill:#656665;" cx="21.4" cy="16.8" rx="0.3" ry="0.3"/>
	</g>
	<g>
		<ellipse transform="matrix(0.866 -0.5 0.5 0.866 -11.785 4.8239)" style="fill:#656665;" cx="3.1" cy="24.4" rx="0.3" ry="0.3"/>
		
			<ellipse transform="matrix(0.866 -0.5 0.5 0.866 -4.4604 12.1167)" style="fill:#656665;" cx="20.4" cy="14.4" rx="0.3" ry="0.3"/>
	</g>
	<g>
		
			<ellipse transform="matrix(0.7071 -0.7071 0.7071 0.7071 -17.3075 11.0329)" style="fill:#656665;" cx="4.7" cy="26.4" rx="0.3" ry="0.3"/>
		
			<ellipse transform="matrix(0.7071 -0.7071 0.7071 0.7071 -3.2369 16.9282)" style="fill:#656665;" cx="18.8" cy="12.4" rx="0.3" ry="0.3"/>
	</g>
	<g>
		<ellipse transform="matrix(0.5 -0.866 0.866 0.5 -20.8521 19.8341)" style="fill:#656665;" cx="6.8" cy="28" rx="0.3" ry="0.3"/>
		
			<ellipse transform="matrix(0.5 -0.866 0.866 0.5 -0.9957 19.8802)" style="fill:#656665;" cx="16.7" cy="10.8" rx="0.3" ry="0.3"/>
	</g>
	<g>
		
			<ellipse transform="matrix(0.2588 -0.9659 0.9659 0.2588 -21.2112 30.3078)" style="fill:#656665;" cx="9.1" cy="29" rx="0.3" ry="0.3"/>
		
			<ellipse transform="matrix(0.2588 -0.9659 0.9659 0.2588 1.1436 21.0945)" style="fill:#656665;" cx="14.3" cy="9.8" rx="0.3" ry="0.3"/>
	</g>
</g>
</svg>
